<svg width="72" height="68" viewBox="0 0 72 68" fill="none" xmlns="http://www.w3.org/2000/svg">
<path d="M6.2207 60.8848L4.69629 56.4482L3.07617 60.8848H6.2207ZM3.98535 54.958H5.52344L9.16699 65H7.67676L6.6582 61.9922H2.68652L1.59961 65H0.205078L3.98535 54.958ZM13.3301 64.1729C13.9043 64.1729 14.3805 63.9336 14.7588 63.4551C15.1416 62.972 15.333 62.252 15.333 61.2949C15.333 60.7116 15.2487 60.2103 15.0801 59.791C14.7611 58.9844 14.1777 58.5811 13.3301 58.5811C12.4779 58.5811 11.8945 59.0072 11.5801 59.8594C11.4115 60.3151 11.3271 60.8939 11.3271 61.5957C11.3271 62.1608 11.4115 62.6416 11.5801 63.0381C11.8991 63.7946 12.4824 64.1729 13.3301 64.1729ZM10.1445 57.7129H11.3408V58.6836C11.5869 58.3509 11.8558 58.0934 12.1475 57.9111C12.5622 57.6377 13.0498 57.501 13.6104 57.501C14.4398 57.501 15.1439 57.82 15.7227 58.458C16.3014 59.0915 16.5908 59.9984 16.5908 61.1787C16.5908 62.7738 16.1738 63.9131 15.3398 64.5967C14.8112 65.0296 14.196 65.2461 13.4941 65.2461C12.9427 65.2461 12.4801 65.1253 12.1064 64.8838C11.8877 64.7471 11.6439 64.5124 11.375 64.1797V67.9189H10.1445V57.7129ZM21.123 64.1729C21.6973 64.1729 22.1735 63.9336 22.5518 63.4551C22.9346 62.972 23.126 62.252 23.126 61.2949C23.126 60.7116 23.0417 60.2103 22.873 59.791C22.554 58.9844 21.9707 58.5811 21.123 58.5811C20.2708 58.5811 19.6875 59.0072 19.373 59.8594C19.2044 60.3151 19.1201 60.8939 19.1201 61.5957C19.1201 62.1608 19.2044 62.6416 19.373 63.0381C19.6921 63.7946 20.2754 64.1729 21.123 64.1729ZM17.9375 57.7129H19.1338V58.6836C19.3799 58.3509 19.6488 58.0934 19.9404 57.9111C20.3551 57.6377 20.8428 57.501 21.4033 57.501C22.2327 57.501 22.9368 57.82 23.5156 58.458C24.0944 59.0915 24.3838 59.9984 24.3838 61.1787C24.3838 62.7738 23.9668 63.9131 23.1328 64.5967C22.6042 65.0296 21.9889 65.2461 21.2871 65.2461C20.7357 65.2461 20.2731 65.1253 19.8994 64.8838C19.6807 64.7471 19.4368 64.5124 19.168 64.1797V67.9189H17.9375V57.7129ZM25.8604 54.958H27.0908V65H25.8604V54.958ZM28.9434 57.7129H30.1943V65H28.9434V57.7129ZM28.9434 54.958H30.1943V56.3525H28.9434V54.958ZM32.0332 54.958H33.2158V60.7891L36.374 57.6787H37.9463L35.1436 60.4199L38.1035 65H36.5312L34.248 61.3086L33.2158 62.252V65H32.0332V54.958ZM40.0039 63.0518C40.0039 63.4072 40.1338 63.6875 40.3936 63.8926C40.6533 64.0977 40.9609 64.2002 41.3164 64.2002C41.7493 64.2002 42.1686 64.0999 42.5742 63.8994C43.2578 63.5667 43.5996 63.0221 43.5996 62.2656V61.2744C43.4492 61.3701 43.2555 61.4499 43.0186 61.5137C42.7816 61.5775 42.5492 61.623 42.3213 61.6504L41.5762 61.7461C41.1296 61.8053 40.7946 61.8988 40.5713 62.0264C40.193 62.2406 40.0039 62.5824 40.0039 63.0518ZM42.9844 60.5635C43.2669 60.527 43.4561 60.4085 43.5518 60.208C43.6064 60.0986 43.6338 59.9414 43.6338 59.7363C43.6338 59.3171 43.4834 59.014 43.1826 58.8271C42.8864 58.6357 42.4603 58.54 41.9043 58.54C41.2617 58.54 40.806 58.7132 40.5371 59.0596C40.3867 59.251 40.2887 59.5358 40.2432 59.9141H39.0947C39.1175 59.0117 39.4092 58.3851 39.9697 58.0342C40.5348 57.6787 41.1888 57.501 41.9316 57.501C42.793 57.501 43.4925 57.665 44.0303 57.9932C44.5635 58.3213 44.8301 58.8317 44.8301 59.5244V63.7422C44.8301 63.8698 44.8551 63.9723 44.9053 64.0498C44.96 64.1273 45.0716 64.166 45.2402 64.166C45.2949 64.166 45.3564 64.1637 45.4248 64.1592C45.4932 64.1501 45.5661 64.1387 45.6436 64.125V65.0342C45.4521 65.0889 45.3063 65.123 45.2061 65.1367C45.1058 65.1504 44.9691 65.1572 44.7959 65.1572C44.3721 65.1572 44.0645 65.0068 43.873 64.7061C43.7728 64.5465 43.7021 64.321 43.6611 64.0293C43.4105 64.3574 43.0505 64.6423 42.5811 64.8838C42.1117 65.1253 41.5944 65.2461 41.0293 65.2461C40.3503 65.2461 39.7943 65.041 39.3613 64.6309C38.9329 64.2161 38.7188 63.6989 38.7188 63.0791C38.7188 62.4001 38.9307 61.8737 39.3545 61.5C39.7783 61.1263 40.3343 60.8962 41.0225 60.8096L42.9844 60.5635ZM47.585 62.7031C47.6214 63.1133 47.724 63.4277 47.8926 63.6465C48.2025 64.043 48.7402 64.2412 49.5059 64.2412C49.9616 64.2412 50.3626 64.1432 50.709 63.9473C51.0553 63.7467 51.2285 63.4391 51.2285 63.0244C51.2285 62.71 51.0895 62.4707 50.8115 62.3066C50.6338 62.2064 50.2829 62.0902 49.7588 61.958L48.7812 61.7119C48.1569 61.557 47.6966 61.3838 47.4004 61.1924C46.8717 60.8597 46.6074 60.3994 46.6074 59.8115C46.6074 59.1188 46.8558 58.5583 47.3525 58.1299C47.8538 57.7015 48.526 57.4873 49.3691 57.4873C50.472 57.4873 51.2673 57.8109 51.7549 58.458C52.0602 58.8682 52.2083 59.3102 52.1992 59.7842H51.0371C51.0143 59.5062 50.9163 59.2533 50.7432 59.0254C50.4606 58.7018 49.9707 58.54 49.2734 58.54C48.8086 58.54 48.4554 58.6289 48.2139 58.8066C47.9769 58.9844 47.8584 59.2191 47.8584 59.5107C47.8584 59.8298 48.0156 60.085 48.3301 60.2764C48.5124 60.3903 48.7812 60.4906 49.1367 60.5771L49.9502 60.7754C50.8343 60.9896 51.4268 61.1969 51.7275 61.3975C52.2061 61.7119 52.4453 62.2064 52.4453 62.8809C52.4453 63.5326 52.1969 64.0954 51.7002 64.5693C51.208 65.0433 50.4561 65.2803 49.4443 65.2803C48.3551 65.2803 47.5827 65.0342 47.127 64.542C46.6758 64.0452 46.4342 63.4323 46.4023 62.7031H47.585ZM55.084 56.3799H53.8535V54.958H55.084V56.3799ZM52.6914 66.8525C53.2428 66.8343 53.5732 66.7842 53.6826 66.7021C53.7965 66.6247 53.8535 66.3763 53.8535 65.957V57.7129H55.084V66.0869C55.084 66.6201 54.9974 67.0189 54.8242 67.2832C54.5371 67.7298 53.9925 67.9531 53.1904 67.9531C53.1312 67.9531 53.0674 67.9508 52.999 67.9463C52.9352 67.9417 52.8327 67.9326 52.6914 67.9189V66.8525ZM59.876 64.207C60.6917 64.207 61.25 63.8994 61.5508 63.2842C61.8561 62.6644 62.0088 61.9762 62.0088 61.2197C62.0088 60.5361 61.8994 59.9801 61.6807 59.5518C61.3343 58.8773 60.7373 58.54 59.8896 58.54C59.1377 58.54 58.5908 58.8271 58.249 59.4014C57.9072 59.9756 57.7363 60.6683 57.7363 61.4795C57.7363 62.2588 57.9072 62.9082 58.249 63.4277C58.5908 63.9473 59.1331 64.207 59.876 64.207ZM59.9238 57.4668C60.8672 57.4668 61.6647 57.7812 62.3164 58.4102C62.9681 59.0391 63.2939 59.9642 63.2939 61.1855C63.2939 62.3659 63.0068 63.3411 62.4326 64.1113C61.8584 64.8815 60.9674 65.2666 59.7598 65.2666C58.7526 65.2666 57.9528 64.9271 57.3604 64.248C56.7679 63.5645 56.4717 62.6484 56.4717 61.5C56.4717 60.2695 56.7839 59.2897 57.4082 58.5605C58.0326 57.8314 58.8711 57.4668 59.9238 57.4668ZM64.7637 57.6787H65.9326V58.7178C66.279 58.2894 66.6458 57.9818 67.0332 57.7949C67.4206 57.6081 67.8512 57.5146 68.3252 57.5146C69.3643 57.5146 70.0661 57.877 70.4307 58.6016C70.6312 58.998 70.7314 59.5654 70.7314 60.3037V65H69.4805V60.3857C69.4805 59.9391 69.4144 59.5791 69.2822 59.3057C69.0635 58.8499 68.667 58.6221 68.0928 58.6221C67.8011 58.6221 67.5618 58.6517 67.375 58.7109C67.0378 58.8112 66.7415 59.0117 66.4863 59.3125C66.2812 59.554 66.1468 59.8047 66.083 60.0645C66.0238 60.3197 65.9941 60.6865 65.9941 61.165V65H64.7637V57.6787Z" fill="black"/>
<path d="M32.5 5.25H20.25V17.5H32.5V5.25Z" stroke="black" stroke-width="1.5" stroke-linecap="round" stroke-linejoin="round"/>
<path d="M51.75 5.25H39.5V17.5H51.75V5.25Z" stroke="black" stroke-width="1.5" stroke-linecap="round" stroke-linejoin="round"/>
<path d="M51.75 24.5H39.5V36.75H51.75V24.5Z" stroke="black" stroke-width="1.5" stroke-linecap="round" stroke-linejoin="round"/>
<path d="M32.5 24.5H20.25V36.75H32.5V24.5Z" stroke="black" stroke-width="1.5" stroke-linecap="round" stroke-linejoin="round"/>
</svg>
