<?xml version="1.0" encoding="UTF-8"?>
<svg xmlns="http://www.w3.org/2000/svg" width="753.47043" height="231.62292" viewBox="0 0 753.47043 231.62292">
  <defs>
    <style>
      .cls-1 {
        fill: #fff;
      }
    </style>
  </defs>
  <g id="Segl"/>
  <g id="Outline">
    <g>
      <g>
        <path class="cls-1" d="M0,115.81522c-.00167-27.97643,9.92437-53.6486,26.44417-73.66504h0C47.68163,16.40964,79.83059,0,115.80102,0h0c63.966,0,115.81436,51.86101,115.81522,115.81522h0c-.00086,63.95267-51.84922,115.8077-115.81522,115.8077h0C51.8492,231.62292,0,179.76789,0,115.81522H0Zm1.72,0c0,31.50564,12.77009,60.02028,33.4167,80.66689h0c20.64746,20.64985,49.16125,33.41834,80.66432,33.41834h0c31.50906-.00342,60.02694-12.76849,80.6768-33.41834h0c20.64832-20.64661,33.41595-49.16125,33.41595-80.66689h0c0-31.50222-12.76763-60.02353-33.41595-80.67355h0C175.82796,14.49438,147.30922,1.72076,115.80102,1.72076h0C80.3623,1.72076,48.70062,17.88497,27.77269,43.24505h-.00085C11.49748,62.97282,1.72,88.24864,1.72,115.81522h0Z"/>
        <g>
          <path class="cls-1" d="M25.44432,162.79321c.01914-1.51208,1.25844-2.72386,2.7724-2.70386,1.51293,.01675,2.72728,1.25519,2.70882,2.77069-.01743,1.5155-1.2593,2.72728-2.77223,2.71053-1.51396-.02-2.72489-1.26186-2.70899-2.77736Z"/>
          <path class="cls-1" d="M199.74433,164.42903c.01743-1.51225,1.25844-2.72403,2.77223-2.70403,1.51225,.01675,2.72574,1.25519,2.70728,2.77069-.01743,1.51225-1.2593,2.72728-2.77154,2.70728-1.51379-.02-2.72642-1.25844-2.70796-2.77394Z"/>
        </g>
        <path class="cls-1" d="M195.02248,82.53874c-4.33216-10.22323-10.50934-19.38902-18.38661-27.26698-7.8706-7.86221-17.0398-14.05033-27.25209-18.37499-10.57361-4.46068-21.80643-6.72222-33.36912-6.72222-11.58098,0-22.81055,2.26154-33.38758,6.72222-10.21298,4.32465-19.37381,10.51517-27.25603,18.37499-7.86889,7.87796-14.05034,17.04375-18.36165,27.26936-4.48154,10.56456-6.74974,21.79755-6.74974,33.3575,0,11.58679,2.2682,22.82645,6.7506,33.38501,4.31046,10.20477,10.49191,19.3815,18.35909,27.25278,7.88393,7.86821,17.04476,14.05701,27.25705,18.37669,3.20122,1.35535,6.46175,2.50355,9.77322,3.44836,.02923,.00991,.05503,.02,.08512,.02991,1.66163,.52078,3.34992,.93148,5.04658,1.26527,6.02609,1.32186,12.20174,1.99286,18.48335,1.99286,3.82472,0,7.61354-.25363,11.35486-.74432h.02752c2.17984-.12699,3.71533-.45737,4.7268-.76792,5.9044-1.12155,11.67686-2.86076,17.25994-5.22416,10.21229-4.31969,19.38149-10.50849,27.25209-18.37669l-.6076-.60743,.6076,.60743c7.87795-7.87128,14.05445-17.04802,18.3849-27.25278,4.46154-10.55857,6.72564-21.79823,6.72564-33.38501,0-11.55995-2.2641-22.79295-6.72394-33.35989ZM62.81181,180.94959c-.12853-.10682-.34798-.4707-.23706-.74775,.04683-.11349,.11024-.23706,.17946-.36388,.37054-.69101,.97301-1.49225,1.4755-2.09968,.89217,1.91937,3.04022,5.6347,7.57936,9.64383-3.13217-1.94278-6.13565-4.08587-8.99727-6.43253Zm-.71271-50.84373c1.75512,1.71923,2.0696,3.21131,2.07883,4.21953,0,.40729-.05845,.73442-.11349,.9513-.02666,.10683-.05333,.18699-.07093,.23707-.00496,.01333-.00752,.02342-.01162,.03008-.07845,.11673-.76535,1.42201-2.73565,1.42201-.30457,0-.6452-.03008-1.02822-.10682-3.33488-.64759-6.62874-1.93954-9.35191-2.27658-.04495-.00667-.09759-.00342-.14596-.01008l6.54448-8.973c2.13557,1.9662,3.98657,3.68867,4.83448,4.50649Zm-13.69741-14.94833l42.62344-43.09909-25.55287,59.9902c-.3796-1.00139-1.05317-2.09626-2.17386-3.17782-2.38938-2.31673-12.2378-11.28973-14.89671-13.71329Zm11.48509,23.39387c.48317,.0935,.93712,.13691,1.35945,.13691,1.51806,.00666,2.6237-.5741,3.29728-1.16495,.67853-.5876,.95883-1.16512,.99387-1.2352l.00256-.00667,.00256-.00667c.00496-.01008,.01077-.02341,.02085-.04665l.04837-.11366,26.20884-61.29531c.05589,.40798,.17604,1.20342,.28867,1.58473,.40643,6.88494,1.98619,11.70694,3.64868,15.40979,.95968,2.14309,1.93783,3.78216,2.70301,4.93377,.38387,.57753,.71357,1.03831,.95968,1.36869,.08187,.11349,.15604,.21364,.21621,.2938l-6.11138,21.11389c-.09674,.3338,.01846,.69767,.28953,.91473l1.45636,1.15504s.18442,.17023,.09759,.48728c-.08512,.31722-6.79897,25.09978-6.79897,25.09978l-21.3183,24.47543c-1.57566-1.30869-6.20401-5.59146-12.31881-15.09531-5.33013-8.27191-6.91997-13.4894-6.90904-16.46382,.00239-1.48217,.37123-2.38015,.80774-2.9375l.01914-.02,.02085-.03008c.02512-.03008,.05264-.06683,.07845-.09691,.4883-.54077,1.08667-.72758,1.53806-.72758,.05691,0,.11195,0,.16442,.00991,2.37263,.2738,5.72169,1.55891,9.23432,2.25657ZM105.09393,48.33334c-.1528-.43976-.62264-.67767-1.06326-.54249,.3755-.33549,.74775-.65921,1.10735-.96548l3.6979-.48335c.47155-.06495,.80278-.49651,.74108-.96806-.06085-.47053-.49394-.80278-.96635-.74262l-.56333,.07503c1.15589-.67921,2.33999-1.23007,3.31556-1.63394,.65939-.27124,1.22357-.47822,1.61992-.61597,.39635-.13434,.61427-.19946,.61512-.20117,.45566-.13434,.71596-.61341,.58162-1.07146-.1369-.45395-.61597-.71357-1.07163-.57837-.02666,.01008-1.46542,.43395-3.32565,1.27518,.27039-.38882,.1769-.92465-.21108-1.19758-.38883-.2721-.9255-.17861-1.1993,.20954l-1.97867,2.81325c-.1769,.11588-.3555,.23449-.52898,.35379-.25466,.18031-.53411,.38968-.83047,.62503l.20117-.39379c.21689-.42233,.05008-.94396-.3714-1.15846-.42387-.2186-.94379-.05179-1.15914,.37311l-2.16993,4.21782c-.53821,.4982-1.03899,.97131-1.46696,1.37774,.06751-2.25402,.67426-6.21735,3.20208-8.10595,2.48441-1.90193,4.54324-2.3058,6.25734-2.31247,1.01147,0,1.89937,.1528,2.68643,.26543,.37379,.04921,1.6982,.36798,2.84829,.66007,1.16256,.2979,2.20565,.57496,2.20736,.57752l.22373,.02666c1.27177,.00513,1.90022,.33226,2.23898,.67101,.33892,.34046,.47326,.80039,.47565,1.30613,.00513,.43481-.18185,.92294-.39464,1.29177-.07589,.13519-.14767,.24201-.2145,.3355l-6.42928,.70605c-.23449,.02666-.44899,.14596-.59341,.33209l-4.04998,5.33697-1.98124,.01333-.17946,.02342c-.08016,.01914-.44233,.10016-.84449,.43395-.40643,.32217-.8062,.96806-.79373,1.7975-.00667,1.6083,.5459,2.71155,1.15675,3.35163,.06341,.06922,.12596,.13092,.18852,.18937l-2.63789,2.64473c-.41071-.11024-1.07573-.34046-1.70077-.77869-.80039-.56419-1.52985-1.39124-1.76759-2.84076-.13348-.83782-.18031-1.52729-.18031-2.07712,.00085-.58265,.05093-1.00241,.10511-1.29519,.01008-.00923,.02171-.0142,.03179-.02342,.00085-.00256,.38798-.38063,.99387-.96054l3.64116-1.24443c.44899-.15519,.69015-.64418,.53667-1.09231Zm13.16826,6.58037s.01333,.26782-.2145,.3955c-.22868,.12767-.38473,.35311-.42729,.61102-.0417,.25774,.07007,.50317,.20852,.71425,.0335,.05179,.04187,.16185-.01743,.26543-.0576,.1034-.16938,.29961-.16938,.29961-.12101,.21022-.14613,.46147-.07093,.69272l.00991,.03418c.02837,.10016,.09093,.38473,.08939,.68007,0,.16698-.13365,.64845-.46984,.79457-.32046,.13844-.86465,.24612-1.57737,.2704l-1.81682-.03675c-.42062-.01008-.78774,.29038-.86209,.70434-.00752,.03999-.04922,.27379-.04922,.62674,.00085,.47395,.06922,1.17844,.45395,1.89783,.14442,.27859,.34559,.55069,.59769,.80107,.0041,.00256,.00496,.00751,.00906,.01248h-.00154l3.06432,3.43332-7.93896,.53992-5.40533-4.22945c.26543-.13262,.41977-.21107,.41977-.21107,.29466-.14443,.47907-.44147,.47907-.77031v-2.49774l3.47075-3.4793c.21364-.21364,.29961-.52983,.22629-.81953-.0752-.29534-.30132-.52812-.58931-.61409v-.00256c-.15758-.10853-1.19742-.43976-1.23178-2.56628,.01179-.34884,.09691-.39465,.17194-.47565,.02837-.02256,.05931-.04256,.08426-.05503l2.25675-.01914c.26611-.00171,.51736-.12767,.67921-.33892,0,0,3.61278-4.77603,3.86232-5.08487,.24783-.3138,.62589-.33704,.62589-.33704l4.89464-.53496s.24953-.01419,.28782,.28952c.0417,.4531,.09349,.99985,.14852,1.59567,.01094,.25124-.15434,.34473-.24868,.34713-.62247,.01914-1.27006,.03675-1.96039,.06426-.72348,.02752-1.51208,.35807-2.032,.79697-.38644,.32474-.39977,.92892-.04016,1.27519,.19792,.19108,.6276,.25535,1.09744,.3972,.59427,.17861,1.25348,.40488,1.58489,.29961,.42062-.13519,.57991-.50813,.60914-.91542,.03179-.4548,.30474-.76689,.76364-.76689,.1945,0,.31209,.15929,.32969,.32371,.08751,.85799,.24372,1.94364,.29705,2.55961,.02512,.30115,.05093,.58162,.06837,.81782,.00752,.30628-.26116,.33123-.39891,.34542-.28526,.03675-.51069,.04427-.51069,.04683-.23279,.00991-.44814,.11349-.60333,.28782-.15519,.1745-.23279,.39736-.21535,.63016l.06102,.90465Zm-9.98293,14.29561c.1528,.11947,.33892,.18117,.53171,.18117h.05674l10.02361-.68178c.32798-.02256,.61512-.22869,.73869-.53582,.12511-.30457,.06409-.65101-.15451-.89627l-1.80349-2.02038c1.04822,.32115,1.95201,.60162,2.64968,.81441,.53667,.13519,1.52062,1.00224,2.35434,2.12565,.78945,1.03061,1.51293,2.25163,1.9879,3.23798-.35482,1.77751-.86465,3.53006-1.40457,5.29441l-4.44223,3.37487-9.66827-6.51457c-.48984-.72348-2.73805-3.9999-4.90284-6.17222-1.14752-1.13487-2.77154-1.57634-4.39472-1.57891-.29961,.00256-.60008,.02-.9014,.05008,.42404-.23125,.84791-.45822,1.26186-.67682,.63016-.3338,1.2352-.64759,1.77255-.92635l6.29494,4.92455Zm-8.42795-1.64813c1.31604-.00496,2.49193,.37892,3.17627,1.07232,1.11829,1.11829,2.32666,2.64045,3.24224,3.87565,.91798,1.23605,1.5396,2.17488,1.54216,2.17728,.06255,.0969,.14186,.17536,.23535,.23876l10.32082,6.94836c.30542,.20953,.70673,.19689,1.00224-.02581l13.14074-9.98704,.05589-.04665s.29038-.26287,.67186-.58179c.37875-.31619,.85696-.69511,1.15333-.87952,.68349-.45156,3.58424-2.16976,5.42772-2.22154,.16288-.00752,.31978-.01248,.46916-.01248,.88875-.00513,1.54387,.14937,1.86929,.36541,.31294,.22458,.45395,.40319,.47822,1.04565,0,1.05077,.01743,2.60388,.01743,2.60388,.00427,.4172,.30389,.69511,.71442,.76604,.32474,0,.75869,.09434,.75869,.5917,0,.57-.38986,.65426-.57342,.67767-.31465,.03846-.60914,.07588-.73015,.09349l-.81116-.00256-.21792,.02666c-.00256,0-1.10821,.28799-2.29999,.57256-.5941,.14186-1.20922,.28628-1.70743,.38968-.24783,.05179-.46899,.09691-.63768,.12528-.0817,.01247-.15263,.02495-.20356,.03008-.04922,.00735-.06255,.00496-.06255,.00735-.76023,.00256-1.93697,.13195-1.95543,.13451-.24441,.02752-.46813,.15929-.60914,.35875-.00427,.00513-1.45636,2.06977-3.28138,4.50495-1.82109,2.43434-4.0293,5.24998-5.43952,6.66293-1.46644,1.46798-2.68489,2.57961-3.53194,3.31727-.2644,.23039-.49223,.42233-.68007,.57923-.09605,.0834-.3314,.18698-.57581,.08681-1.26186-.51906-3.95325-1.5965-7.19292-2.98261-4.52324-1.93288-10.11556-4.4424-14.35662-6.71317-.84466-.43224-2.3393-1.35449-3.57689-2.65806-.13434-.14015-.26287-.28782-.38968-.43549-.04016-.04769-.08101-.09776-.12015-.14357-.0952-.11691-.18698-.23535-.27551-.35465-.06837-.09264-.13434-.18783-.19946-.28133-.05589-.08169-.10921-.1627-.16271-.24696-.05999-.09434-.1193-.19279-.17775-.29124-.02171-.04187-.04427-.08443-.06597-.12357-.11503-.20869-.22031-.42404-.31363-.64349-.0135-.03076-.02598-.05999-.04016-.09007-.05093-.13024-.10101-.25876-.14442-.38815v-.00239l-.00239-.00752c-.07845-.23125-.13861-.4666-.18954-.70946-.02085-.1034-.0417-.20681-.05828-.3121-.01179-.07929-.02256-.15928-.03094-.23773-.02171-.20202-.0376-.39978-.0376-.60675,0-.13519,.00667-.27295,.0159-.40985,.00923-.11349,.02171-.23108,.0376-.34714l.00496-.05759c.03999-.27534,.09759-.55735,.17775-.84534v-.00256l.00085-.00325c.04751-.17279,.10426-.35055,.16852-.53171l.01008-.02752c.06085-.16442,.12853-.33619,.20356-.50574,.01094-.02495,.02085-.04922,.03179-.07332,.07178-.1569,.15177-.31893,.23535-.4825,.02-.03418,.03675-.07092,.05589-.10749,.10511-.19365,.21945-.39071,.34456-.59341h0c.78039-1.30937,3.0286-2.3017,5.08914-2.27914Zm26.9841-13.13151c0-.37806,.13177-.44062,.19518-.43224,1.3145,.20852,2.02636,.77612,2.48697,1.31843,.28132,.34216,.45309,.6869,.55171,.94054,.04922,.12767,.08084,.23125,.09845,.29721,.00837,.03418,.01333,.0559,.0159,.06923l.00068,.00171c.07025,.41378,.43156,.71681,.85047,.71681h16.80104c.42729,0,.7886-.31038,.85201-.73442,.0176-.08341,.15023-.62503,.6893-1.14325,.44985-.42233,1.19008-.8814,2.53124-1.04823,.18271-.04015,.21364,.13931,.21364,.29791,0,1.77922-.06255,5.48635-.06255,10.86826,0,4.38378,1.12991,7.91726,2.21402,11.4157,1.08565,3.50596,2.13301,6.98253,2.13301,11.41895,0,2.37263-.45138,4.64254-1.32681,6.69897-.77287-.4307-1.41961-.69441-1.77768-.79457-.12272-.03333-.24441-.04666-.35875-.04666-.68195,.03008-1.12,.33038-1.5531,.63084-.42404,.34388-.74775,.58418-.99147,1.11504-.06768,.1769-.09605,.36046-.09605,.52744,.01094,.47053,.17023,.79441,.29466,1.0448-.17861,.14682-.38729,.32046-.60333,.5141-.27962,.2504-.57171,.52403-.82449,.81117-.25381,.2938-.48164,.55735-.62435,.98464-.08341,.26047-.12596,.53411-.12511,.80791,.00239,.52743,.14852,1.01489,.39139,1.49892-2.60542,1.51208-5.87518,2.4034-9.82176,2.40681-5.74665-.00342-9.86431-1.97628-12.59655-4.84371-2.03217-2.13985-3.29317-4.80372-3.80301-7.56107,.84791-.71767,2.33588-2.0279,4.22534-3.92385,.32115-.32388,.67255-.70365,1.04309-1.12086,.60589,2.15899,1.81938,3.95648,3.40153,5.29509,2.20582,1.87613,5.09752,2.8876,8.09176,2.97767,.0535,.01008,.10682,.01675,.16271,.01675,.02256,0,.04512-.00342,.06768-.00667,.06922,.00325,.13844,.00991,.20852,.00991,6.47115-.02,11.31811-5.74665,11.33059-12.09081-.00325-2.84914-.66845-4.83858-1.28767-7.91059-.62503-3.08022-1.25434-7.35563-1.25434-14.89483,0-.22544-.09178-.44574-.25278-.60675-.15946-.16187-.38148-.2521-.60845-.2521h-16.58722c-.22783,0-.44985,.09023-.61016,.25039-.15861,.16271-.25278,.38302-.25278,.60845-.00085,5.39439-.34559,8.8578-.79287,11.44236l-3.89565,2.95921c.3097-1.11983,.5876-2.25658,.80535-3.41828,.01504-.05008,.02495-.09759,.03008-.14853,.27534-1.49634,.45053-3.03525,.45737-4.63159,0-5.65999-.02342-10.17812-.03675-12.33624Zm23.91876,47.67241c-.46574-.65768-.61751-1.10171-.61256-1.3921,0-.10016,.01419-.19023,.04598-.29705h.0041c.06597-.16032,.58162-.71442,1.04241-1.10496,.46472-.40729,.88123-.72109,.88294-.72433,.24287-.14699,.3972-.53753,.37875-.76793-.01419-.3437-.1034-.46385-.1569-.59751-.05914-.1234-.12101-.22697-.16681-.32372-.05845-.13023-.09605-.41736,.16356-.67425,.29295-.29722,.70519-.17707,.79287-.1369,.31534,.12682,.84363,.36712,1.34937,.66758,.75031,.43738,1.50558,1.05489,1.78434,1.57225,.28115,.48403,.51069,1.11829,.50061,1.549-.0041,.28696-.1193,.50403-.25945,.66093-.27637,.31705-2.80658,2.44014-3.06706,2.60046-.26953,.19365-1.35432,.65426-2.27162,.99472-.26868,.10015-.52744,.19365-.75937,.27705-.31551,.13348-.36559-.07674-.36559-.07674,0,0-.06341-.18698,.06102-.30713,.14511-.11691,.29124-.25364,.42968-.40387,.1528-.20031,.37567-.3873,.40985-.92806,.00256-.18031-.05589-.40729-.18613-.58743Zm2.52953,59.78322s.03008,.25039-.17109,.36712c-.20288,.11349-6.25666,3.51177-6.25666,3.51177l-.70092-60.50431c.68588-.22356,1.34527-.48403,1.97782-.77116l5.15084,57.39658Zm-27.731,27.97712s2.23487,2.89426,2.31999,3.02432c.08682,.13024,.01829,.28048-.04341,.33056-3.38068,2.76061-8.86036,4.69006-15.12779,5.38106,.98823-4.55315,4.79449-22.48257,7.61525-40.73552,2.90588-18.82073,4.19697-36.68981,4.44736-40.40531,0,0,2.26154-.15023,2.65703-.18681,.39396-.04016,.44489,.19347,.43566,.43395-.00837,.24355-2.48099,71.60365-2.48099,71.60365-.00667,.20031,.05589,.39396,.1769,.5541Zm-30.03595-71.02288s5.60308-19.35791,5.67811-19.61839c.07435-.26031,.33465-.33381,.33465-.33381,0,0,4.09938-1.14836,4.75278-1.36201,.65255-.21022,1.72504-.29038,1.72504-.29038l14.09034-.86124c.73698,1.64898,1.74503,3.21131,3.04603,4.58324,1.14171,1.20511,2.50611,2.25658,4.08519,3.11115,0,0-.03008,10.71564-.03008,10.9192,0,.20373-.0993,.4307-.55086,.4707-.45224,.03675-14.17306,.99472-17.59134,1.23844-.48642,.03008-1.0665,.11691-1.58967,.26047-.52163,.14682-12.46819,3.41828-12.46819,3.41828,0,0-.40883,.06341-.61324-.09349-.20373-.16356-.31141-.25039-.67767-.54077-.36729-.2938-.19108-.9014-.19108-.9014Zm5.29338-21.74148c-1.35945-1.86604-5.3168-7.41238-6.6554-17.51956,.09349,.10597,.18698,.21125,.28115,.31141,1.4338,1.50046,3.05697,2.49774,4.02674,2.99595,8.62826,4.62425,22.48496,10.07966,22.49915,10.08633,.00923,0,.01931,.00324,.02769,.00666,.12255,.57753,.28286,1.14496,.46642,1.7124l-13.00042,.79458s-1.52558,.06666-2.62644,.38045c-1.32937,.37396-4.36874,1.23843-4.57315,1.30527-.25466,.08341-.40148-.01008-.44574-.07349Zm28.7934,19.91885l.62674-.12682c.39891-.08341,.68605-.43737,.68759-.84125l.02923-11.17282c2.29675,.92806,4.97138,1.46217,8.01417,1.46217h.02837c1.95372,.00325,3.76968-.21706,5.44874-.60418l.80193,69.20674,.00256,.04342s.00325,.04683,.00325,.17364c.00513,.70776-.18356,3.1879-2.21146,4.64665-2.5162,1.83938-8.15517,4.77039-15.77948,4.97394l2.34836-67.7615Zm-.33721-31.51812c2.01217-2.46851,4.2303-5.49797,5.47541-7.22215v14.37166c-.86124-.3972-1.66146-.89798-2.36494-1.4955-1.62163-1.39039-2.76317-3.26721-3.11047-5.65401Zm7.1972,7.77711v-16.12832c.15348-.00923,.30201-.0142,.41977-.0142,.35465-.00751,.71425-.08938,1.26015-.19705,.161-.03504,.33123-.07332,.50984-.11349v16.85693c-.74946-.06666-1.48131-.20357-2.18975-.40387Zm3.91223,.43737v-17.29515c.79287-.1945,1.48302-.37054,1.74008-.43395h.31875v17.34505c-.65751,.20699-1.34527,.33722-2.05883,.38405Zm5.34534-21.20908c-.09776-.30713-.29124-.76621-.88209-.96567-.1528-.0441-.31551-.08512-.46984-.1193-.00427-.54248-.01008-1.29929-.01008-1.88946,.01008-.41378-.06341-.81116-.20202-1.17247v-6.93245h2.70318c.04495,7.10439,.66503,11.31965,1.28425,14.37662,.65101,3.18704,1.25605,5.01975,1.25348,7.56671,.00171,2.73821-1.05471,5.34944-2.78898,7.25547-.71442,.78621-1.54062,1.44714-2.45194,1.96125v-16.75335c.06187-.00752,.12613-.01591,.18031-.02103,.08341-.0058,.15775-.01571,.21279-.02084,.0535-.00496,.07349-.00239,.07349-.00496,.32132,0,.54915-.1569,.66349-.26697,.36627-.40814,.3596-.64691,.45651-.98225,.0658-.32045,.10426-.68108,.10597-1.0441-.00171-.32969-.02752-.65255-.12853-.9872Zm-3.28651-11.07934v5.29167c-.62093-.23109-1.31433-.30867-2.05883-.3179v-4.97377h2.05883Zm-3.78131,0v5.1399c-.75271,.16186-1.50131,.42387-2.18975,.72433v-5.86424h2.18975Zm-3.91154,0v6.72376c-.5782,.32132-1.02309,.60093-1.26596,.7469-.77783,.49497-1.82759,1.43379-2.0279,1.60983l-.00496,.00513c.30201-2.29588,.51821-5.18997,.54658-9.08562h2.75223Zm-68.17289,113.63623c.21706-.24714,23.43063-26.89899,23.43063-26.89899,.08512-.09691,.14613-.21364,.18031-.33721,0,0,6.8675-25.34675,6.91502-25.52364,.04751-.18031,.22697-.22697,.22697-.22697,0,0,12.17507-3.33146,12.64338-3.46836,.4707-.13349,1.14495-.19023,1.14495-.19023l6.75983-.47412c-.08016,.78791-.21962,2.05644-.44233,3.68542-1.15094,8.56571-4.65587,27.05247-13.22329,37.12034-12.75276,15.06848-30.39829,16.61081-37.00617,16.60739-.14682,0-.28628,0-.42233-.00325-.25107,0-.42387-.04016-.20698-.29038Zm-.41378,2.00277c.30953,.00667,.6558,.01008,1.04309,.01332,6.83742-.00324,25.0497-1.57223,38.3205-17.21481,10.9233-12.96555,13.66237-37.71136,14.08965-42.04096l3.42153-.24372c-.12186,1.77272-.42472,5.96867-.95712,11.64352-.71271,7.61116-1.83271,17.84926-3.45845,28.38117-1.62813,10.5319-3.58681,20.96707-5.13905,28.7717-1.14837,5.77177-2.07131,10.08787-2.4745,11.95066-.03743,.16681-.24783,.47736-.64999,.47736-.94652,0-1.90279,.08683-2.86931,.08341-3.14362,.00342-6.38501-.2938-9.58709-.91131-1.67581-.37054-3.34069-.7845-4.99223-1.25844-11.8705-3.74217-18.75971-9.02974-22.68954-13.30926-1.96962-2.14976-3.19558-4.05596-3.92573-5.41798-.11844-.22031-.22202-.42045-.31465-.60743-.10016-.20373,.01179-.32388,.18288-.31722Zm49.48581,22.85653c4.92284-.84791,9.27175-2.46031,12.45298-4.75364l2.70557,.77784c.09674,.02666,.20117,.03999,.30371,.03675,0,0,2.51705-.1369,2.72574-.15365,.71681-.04324,1.03813,.38063,1.0448,.53086,.0041,.15023,.02085,.33721,.02085,.33721,0,0,.03094,.44728-.26287,.73767-.26868,.26714-2.21078,.80449-2.91836,1.02822-5.13836,.97131-10.38099,1.46542-15.69864,1.46542-.12425,0-.24953-.00667-.37379-.00667Zm77.79347-51.30776c-4.24619,10.00122-10.29416,18.98429-18.01521,26.70876-7.71712,7.70789-16.69763,13.76987-26.7038,18.00615-3.9382,1.66898-7.96648,3.01766-12.07167,4.05254l-.09588-1.67256c0-1.00805-1.14085-1.51208-1.76503-1.51208l-3.61364,.05674s-1.11163-.27039-1.24596-.3138c-.13519-.04016-.10186-.18356-.0793-.2104,.25381-.30713,.26799-.751,.02-1.07488l-2.75565-3.59518,.08853-2.55705c8.10338-.19689,14.06949-3.27472,16.85351-5.30432,2.73651-2.02619,2.91255-5.12076,2.91768-6.03875,0-.13348-.00427-.22372-.00513-.26371l-.08341-7.18045c.02581-.01333,.05264-.01658,.07845-.02992l-.00085-.00342,7.67952-4.30959c.29534-.16681,.46489-.48728,.4372-.82791l-5.04231-56.18139c.21962-.07331,.93388-.32045,1.73837-.62075,.98071-.37721,2.01542-.77783,2.62798-1.17845,.55171-.38729,2.86418-2.33332,3.42256-2.91084,.48728-.52078,.67101-1.18512,.66588-1.77922-.00837-.92465-.36473-1.74589-.72433-2.3969-.3179-.54744-.75356-.99814-1.22682-1.38526,1.05916-2.35674,1.59565-4.97394,1.59395-7.67371,.00171-4.71262-1.12564-8.42043-2.21231-11.92897-1.09077-3.51416-2.13557-6.82647-2.13557-10.90568,0-7.5727,.0793-12.06842,.0793-12.07834,.00325-.23039-.08512-.45309-.24697-.61837-.16032-.16527-.38234-.25791-.61427-.25791-2.54201-.00923-4.12108,.83286-4.98642,1.76845-.40643,.4372-.65426,.87285-.80535,1.22511h-15.53661c-.1528-.38816-.40558-.88961-.82534-1.40047-.83953-1.03899-2.4169-2.03798-4.88045-2.02533-.22954,0-.44899,.09093-.61085,.25535-.16271,.16271-.2521,.38302-.25124,.61427,0,.01333,.04837,5.71144,.04666,13.70151,.00427,.62914-.02666,1.25007-.07913,1.86519-.31722-.50249-.6611-1.00327-1.02497-1.48046-.96139-1.23264-1.97115-2.3176-3.21883-2.72745-1.12496-.34285-2.79154-.86277-4.74509-1.4579-.71613-.22612-1.01232-.55496-1.2152-.91627-.11673-.21364-.18271-.45241-.2186-.67426l.95216,.01913h.04683c.85953-.03007,1.59053-.14357,2.21573-.40061,.6158-.24868,1.18085-.71186,1.38868-1.39945,.10768-.3514,.14186-.68861,.14186-.98737-.00085-.33875-.04256-.63341-.08597-.84944l.40729-.71613c.13434-.23449,.14938-.51155,.05093-.75031,.18681-.17348,.28696-.42729,.27107-.68673l-.05999-.88465c.0417-.00752,.08426-.01504,.12853-.02172,.26201-.04921,.53496-.11091,.81697-.23944,.141-.06768,.29466-.14854,.45395-.30713,.1569-.15194,.32798-.43891,.32559-.77202-.00342-.23364-.05179-.78365-.12528-1.64813-.18527-2.1214-.52488-5.71828-.62914-6.83571,.35123-.47412,.95626-1.44303,.9831-2.70557,.00325-.81287-.23467-1.77101-.97643-2.5203-.7228-.73203-1.84519-1.16017-3.35077-1.1776-.66674-.1769-4.14176-1.1-5.14828-1.25024-.7469-.10511-1.7476-.27944-2.92759-.27944-2.00875-.00752-4.55076,.53496-7.3088,2.66883-3.56527,2.80829-3.85736,7.83795-3.88146,10.07454,0,.43156,.01487,.76621,.02666,.96225-.1193,.35892-.29961,1.1-.29961,2.2817,0,.64845,.05418,1.42611,.20117,2.35007,.34798,2.23487,1.72914,3.58185,2.94844,4.27696,.61837,.35635,1.20255,.56999,1.6365,.69511v1.63821c-.67511,.34062-4.97309,2.22838-9.10323,5.0741-.08512,.08016-.42643,.2738-.74604,.63683-.00923,.00735-.01914,.01248-.02666,.02l-46.42901,46.9462c-.16356,.16356-.25449,.39395-.24868,.6276,.00667,.23381,.10853,.45737,.28132,.61427,.0082,.00666,3.19951,2.91084,6.74137,6.15223,.88294,.80791,1.78674,1.6324,2.66883,2.44356l-8.51067,11.67361c-.71767,.91456-1.17743,2.23658-1.17418,3.99905,.01094,3.56185,1.77426,8.973,7.1813,17.3953,6.16898,9.58709,10.89407,14.01018,12.63569,15.46227l-2.24735,2.58046c-.07503,.08016-.79526,.84449-1.53806,1.82605-.38883,.51069-.7845,1.08155-1.09488,1.65906-.0752,.1434-.14613,.28372-.21193,.42729-1.52148-1.3186-3.00279-2.69395-4.44069-4.12946-7.71199-7.72105-13.76577-16.70413-17.9918-26.70534-4.39232-10.34493-6.61387-21.35419-6.61387-32.714,0-11.33298,2.22154-22.33233,6.61387-32.68563,4.22602-10.0236,10.27981-19.00087,17.9918-26.72295,7.73045-7.70857,16.70174-13.76816,26.71286-18.00513,10.36509-4.37387,21.3559-6.58703,32.71486-6.58874,11.33811,.00171,22.339,2.21488,32.70067,6.58874,10.00617,4.23696,18.98668,10.29655,26.7038,18.00513,7.72361,7.72207,13.76902,16.69934,18.01692,26.71953,4.37045,10.35672,6.58772,21.35607,6.58772,32.68905,0,11.35981-2.21727,22.36907-6.58943,32.714Z"/>
        <g>
          <path class="cls-1" d="M17.79489,123.1124c.98737-.13007,1.83528-.12015,2.54115,.02683,.70861,.15006,1.30613,.44062,1.79511,.8679,.49001,.43395,.87799,1.00805,1.16512,1.72913,.28628,.71442,.49565,1.57891,.62845,2.5938,.11178,.86448,.12425,1.66573,.03504,2.39673-.09024,.73442-.30713,1.37859-.65511,1.94278-.34559,.55752-.82876,1.02155-1.44799,1.38543-.62093,.36046-2.09472,.67426-2.09472,.67426-.14186,.03008-.37225,.06683-.51326,.08682l-7.59847,.99472c-.14104,.01675-.26372,.14699-.27206,.2938l-.06426,1.11829c-.00918,.14357-.13102,.27705-.27457,.29705l-.33547,.04016c-.14188,.02001-.27206-.08015-.29293-.22372l-.66846-5.11735c-.01754-.14357,.08344-.2738,.22615-.29379l.33465-.04341c.14271-.01675,.29459,.08016,.3405,.21364l.34634,1.04821c.04422,.13673,.19862,.23023,.34132,.21364l8.50488-1.11162c1.0407-.1369,1.82092-.5541,2.34255-1.25519,.51992-.7011,.70006-1.66573,.53906-2.89426-.16613-1.26835-.59752-2.14977-1.29519-2.64371-.69596-.4941-2.8141-.47735-2.8141-.47735-.14357,0-.37635,.02-.51736,.03675l-7.71956,1.01146c-.14271,.01659-.26622,.14682-.2729,.29364l-.06592,1.11504c-.00836,.14682-.13019,.27705-.27374,.29704l-.33465,.04342c-.14271,.02-.27374-.08341-.29209-.22697l-.59919-4.58666c-.01919-.14357,.08094-.2738,.22282-.29379l.33549-.04341c.14186-.02001,.29459,.07674,.34048,.21364l.35051,1.06821c.04423,.13348,.1978,.23039,.33884,.21364l7.67355-1.0048Z"/>
          <path class="cls-1" d="M8.62083,111.21182c.01084-.14341,.12101-.32046,.24367-.39054l10.73387-6.39595-8.98216-.66093c-.14271-.00991-.29125,.09349-.32882,.23039l-.28958,1.0648c-.03671,.1369-.18527,.24047-.32797,.23039l-.33716-.02342c-.14188-.01333-.25119-.1369-.23952-.2803l.33383-4.41318c.01167-.14357,.13603-.25039,.2804-.24031l.33632,.02666c.14353,.01008,.27288,.1369,.28874,.27705l.12602,1.11504c.01586,.14357,.14605,.26696,.28876,.2803l12.72012,.96481c.14186,.01008,.25124,.1369,.24116,.28047l-.09605,1.25178c-.01162,.14357-.12015,.32046-.24441,.39379l-12.40051,7.27069,10.44935,.79098c.14186,.01351,.28953-.09006,.32798-.23021l.28953-1.06155c.03675-.14015,.18442-.24372,.32798-.23039l.3379,.02342c.14118,.01007,.25039,.13348,.24048,.27705l-.3355,4.41642c-.01094,.14015-.13776,.25039-.27962,.24031l-.33636-.02666c-.14425-.01008-.27449-.1369-.29038-.28047l-.12511-1.11487c-.01504-.14032-.14613-.26714-.28799-.27705l-11.43404-.8679c-.14353-.01009-.29125,.09332-.32797,.23364l-.29377,1.08155c-.03589,.1369-.1836,.24371-.32715,.23039l-.33631-.02342c-.14439-.01008-.25121-.1369-.24036-.28047l.2946-3.88232Z"/>
          <path class="cls-1" d="M13.02809,87.39065c.14015,.03504,.24612,.18031,.2386,.32217l-.05999,1.10154c-.00837,.14442,.09845,.29209,.23774,.32559l11.12617,2.77736c.1393,.03675,.30201-.04341,.36217-.17023l.46403-1.00156c.05999-.13007,.22287-.20852,.36302-.17348l.32884,.0817c.13844,.03846,.22526,.17861,.18852,.31551l-1.25007,5.01052c-.03504,.1369-.17775,.22373-.31465,.18698l-.32969-.08341c-.13844-.0335-.24612-.18031-.23774-.32388l.05999-1.09829c.00752-.1434-.10016-.28696-.2386-.32371l-11.12617-2.77736c-.13776-.03675-.30047,.03999-.36131,.17023l-.46574,1.00139c-.05999,.12699-.22287,.20698-.36217,.17364l-.32797-.08681c-.13853-.03008-.2245-.17023-.18944-.31038l1.25012-5.00727c.03504-.14186,.17775-.22458,.31636-.19023l.32798,.07999Z"/>
          <path class="cls-1" d="M30.46168,78.94679c.10169,.10102,.141,.29039,.08426,.42319l-.60333,1.41944c-.05674,.13109-.21877,.23039-.36234,.22287l-13.5053-.91302c-.14271-.00991-.33055,.07845-.4131,.19194l-.49651,.68109c-.08512,.11588-.26047,.1651-.3931,.1092l-.31209-.13433c-.13024-.05247-.19365-.20783-.1369-.34046l1.85271-4.35387c.05589-.13092,.20937-.1928,.34046-.13673l.31209,.13263c.13263,.05333,.2186,.21535,.19279,.35721l-.15946,.8679c-.02495,.14271,.06854,.26457,.2121,.27705l10.84724,.84037-7.96563-7.62277c-.10272-.09587-.25364-.07844-.3355,.0376l-.59666,.87714c-.08016,.11929-.25381,.17109-.38644,.1152l-.31209-.1328c-.13109-.05589-.19365-.21108-.1369-.34217l1.66915-3.9206c.05589-.13177,.21022-.19365,.34217-.13776l.31038,.13365c.13263,.05674,.21706,.21518,.18613,.3555l-.21108,1.02137c-.02923,.13777,.03076,.33637,.13434,.43482l9.84261,9.53632Z"/>
          <path class="cls-1" d="M57.59516,41.88475c.32542-.08597,.66332-.21364,1.01472-.38045,.3514-.16442,.63597-.3314,.85543-.49155,.77698-.57666,1.26186-1.19264,1.4538-1.851,.19023-.65853,.05418-1.30117-.40814-1.92535-.27449-.37225-.59341-.63084-.95216-.77356-.35892-.13947-.73937-.21364-1.14342-.22031-.40216-.00752-.82022,.02837-1.25092,.11007-.4307,.081-.86209,.15194-1.28852,.21621-.64845,.08597-1.23434,.16442-1.76093,.23193-.52659,.06854-1.00805,.0752-1.44371,.02255-.43651-.04836-.83714-.18099-1.20597-.39139-.36798-.20953-.71767-.54076-1.05061-.99146-.36473-.49309-.58333-1.00549-.6534-1.53891-.07349-.52899-.01419-1.06737,.17348-1.603,.18783-.53753,.49651-1.06754,.92977-1.59326,.43549-.52317,.97558-1.02395,1.62232-1.50303,.24031-.17946,.51326-.35634,.81697-.52743,.30303-.17519,.61341-.33961,.92977-.49907,.31619-.15434,.62914-.29961,.94122-.42643,.31141-.12853,.59837-.21945,.59837-.21945,.13776-.04085,.27705-.05333,.3138-.0241,.03589,.02906,.12357,.15673,.19365,.27859l1.08667,1.91373c.07007,.12511,.03247,.2979-.08187,.38302l-.71528,.5283c-.11349,.08341-.29944,.07845-.40883-.01265l-1.33279-1.11658c-.23449,.00427-.50984,.06854-.82534,.19194-.31551,.12186-.66007,.32046-1.03318,.59598-.66845,.49565-1.08496,1.04394-1.24682,1.64727-.16356,.60418-.04256,1.1817,.36388,1.72846,.25876,.35379,.53821,.5941,.84124,.72758,.30132,.13195,.62179,.20031,.9631,.20288s.69596-.03333,1.06223-.11024c.36644-.07589,.74536-.14938,1.13504-.2186,.53821-.07349,1.1-.161,1.68658-.26543,.58333-.10016,1.15333-.14015,1.70504-.11503,.55069,.02239,1.06992,.13588,1.55805,.33704,.48574,.1986,.90465,.55923,1.25519,1.08001,.44728,.67084,.69938,1.31091,.75852,1.92022,.06016,.60828-.02085,1.19093-.24526,1.74589-.22458,.55496-.58265,1.09231-1.07249,1.60813-.49155,.51582-1.0665,1.01643-1.72247,1.50302-.59341,.43651-1.21178,.81458-1.85938,1.13248-.64503,.31705-1.48627,.65836-1.48627,.65836-.13263,.05264-.26782,.07025-.29705,.03504-.03264-.02837-.11691-.16015-.18783-.28201l-1.09915-1.90194c-.07247-.12595-.03658-.29789,.07845-.3813l.71613-.53086c.11434-.08598,.29961-.07845,.40814,.01333l1.31023,1.0824Z"/>
          <path class="cls-1" d="M67.87411,20.74078c.06768,.12784,.03179,.30474-.0776,.39567l-.85713,.69424c-.10836,.09111-.14596,.26886-.0776,.39226l5.42875,10.10547c.06837,.12528,.23535,.19108,.3714,.14938l1.05317-.32952c.13776-.04102,.30371,.02495,.37225,.15262l.15929,.29706c.06854,.12613,.02,.28457-.10511,.35396l-4.54666,2.44271c-.12596,.06751-.28457,.02-.35294-.10597l-.15946-.29876c-.07007-.12443-.03247-.30304,.07845-.3931l.85389-.69682c.11349-.09024,.14767-.26458,.07999-.3931l-5.43029-10.09966c-.06597-.12767-.23449-.19604-.37054-.15194l-1.05232,.32645c-.13605,.04495-.30474-.02512-.37225-.14938l-.16032-.29807c-.06751-.12768-.02-.28696,.10528-.35379l4.54649-2.44528c.12613-.06579,.28543-.01657,.35311,.10854l.16015,.29705Z"/>
          <path class="cls-1" d="M73.52146,17.44111c.03094-.08426,.16613-.18954,.29961-.23878l10.61206-3.85974c.13605-.04922,.30132-.07178,.36969-.04666,.06751,.02256,.16698,.14938,.22116,.28286l.91456,2.27077c.05435,.13195-.01248,.27962-.14767,.32884l-.85372,.31209c-.13519,.04837-.31123-.00752-.39139-.12767l-.7469-1.10581c-.08016-.11931-.25791-.18356-.39481-.14186l-1.11077,.32884c-.13673,.04016-.35875,.11349-.49394,.16186l-1.0783,.39071,3.98333,10.9691c.05093,.1328,.20527,.22629,.34713,.20031l1.08821-.17348c.14271-.02256,.29722,.06837,.34644,.20356l.11673,.31961c.04922,.13519-.02171,.28457-.15604,.33209l-4.85037,1.76435c-.13519,.05008-.28543-.02171-.3338-.15691l-.1152-.31961c-.05008-.13279,.01094-.30302,.1328-.3748l.94806-.56744c.12255-.07349,.18356-.24372,.13348-.37806l-3.98999-10.96672-1.07573,.39551c-.13605,.04854-.35294,.13519-.48574,.1945l-1.06155,.46147c-.13177,.05589-.22783,.22031-.21279,.36388l.13861,1.32527c.01658,.1427-.08187,.29876-.21706,.34884l-.85457,.30884c-.13519,.04922-.28115-.02171-.32542-.15947l-.72946-2.24905c-.04341-.1352-.05503-.31466-.02666-.3972Z"/>
          <path class="cls-1" d="M99.50657,18.93661l-4.74099,.89627-.731,4.34293c-.02342,.13947,.07332,.25876,.21689,.26287l.98224,.01675c.14357,.00325,.28303,.12014,.30799,.26287l.06426,.33209c.02495,.13947-.06837,.27705-.20698,.30389l-4.14928,.78364c-.14032,.0241-.27705-.06855-.30303-.2087l-.06255-.33378c-.02752-.14032,.05845-.30047,.19108-.3555l.84791-.36148c.13348-.05505,.26201-.21604,.28953-.3555l2.61721-13.6381c.02752-.14015,.16527-.27791,.30457-.30544l1.81853-.34301c.141-.0241,.3138,.0535,.38387,.17946l6.74889,11.85974c.07007,.12424,.24629,.23039,.389,.23279l.90038,.03008c.14528,.00494,.28372,.12272,.30884,.26287l.06341,.33294c.02666,.14032-.06683,.27791-.20869,.30302l-4.74851,.89885c-.14015,.02324-.27876-.06683-.30542-.20612l-.06102-.33465c-.02752-.14272,.05845-.30218,.1904-.35808l.84944-.3613c.13195-.05435,.18459-.20373,.1152-.32884l-2.07216-3.81053Zm-3.44666-6.23991l-1.08565,6.03293,3.99649-.75356-2.91084-5.27937Z"/>
          <path class="cls-1" d="M112.63723,21.85993c.31294,.12101,.6611,.21877,1.04326,.29055,.38063,.07247,.70844,.11007,.98053,.10749,.96806-.00238,1.72247-.21364,2.26666-.63254,.54248-.41806,.81287-1.01472,.8103-1.79255-.00239-.46489-.10682-.85953-.31209-1.18426-.20612-.32952-.46984-.61341-.79202-.85696-.31961-.24543-.67853-.45908-1.07573-.65101-.39379-.18869-.78518-.38558-1.16666-.58914-.57325-.30971-1.09317-.59343-1.5572-.85218-.46318-.25535-.85799-.5324-1.17845-.83201-.32132-.29961-.56829-.64093-.74023-1.03147-.17194-.38798-.2603-.85867-.26287-1.41876-.00256-.61409,.12528-1.15658,.38216-1.62813,.2562-.47241,.61922-.86876,1.08907-1.19093,.46745-.32457,1.03078-.57,1.69171-.73442,.66007-.16681,1.39193-.25039,2.19659-.25535,.29944,0,.62247,.01759,.97131,.05674,.34884,.03846,.69596,.09007,1.04326,.14938,.34884,.061,.68588,.13024,1.01215,.20869,.3273,.0817,.61341,.17946,.61341,.17946,.13434,.04666,.25535,.12255,.26799,.16442,.00906,.04666,.00581,.19946-.01008,.34371l-.25535,2.18326c-.0159,.14271-.14682,.2603-.28953,.2603l-.89046,.00256c-.14271,.00239-.28799-.11264-.32217-.25039l-.41566-1.68914c-.19194-.1352-.45224-.24612-.77937-.33465-.32713-.08598-.72194-.13024-1.18512-.12767-.83286,.00256-1.49208,.20202-1.98038,.5917-.48899,.39054-.73185,.92635-.72929,1.60899,.00239,.43651,.08512,.79782,.25039,1.08495,.16425,.28287,.38302,.52831,.65751,.73187,.2738,.20356,.58008,.38302,.9214,.53735,.34132,.1569,.69015,.32217,1.04565,.49839,.47822,.25535,.98224,.5165,1.51635,.78193,.53154,.262,1.01318,.56658,1.44371,.91217,.4307,.34626,.78364,.74433,1.05745,1.19418,.27449,.44643,.39891,.98635,.37379,1.61309-.03675,.80535-.21022,1.46969-.52146,1.99628-.31055,.52744-.72023,.94721-1.22939,1.26442-.50984,.31705-1.11573,.53565-1.81767,.66332-.70092,.12528-1.46115,.18869-2.27829,.19125-.73596,.00496-1.4579-.05674-2.16719-.18459-.70861-.12511-1.58899-.34542-1.58899-.34542-.1369-.0376-.25705-.10101-.26201-.14613-.00667-.04256,.00239-.19775,.01743-.34132l.23791-2.18394c.01572-.141,.14596-.25876,.28782-.25876l.89046-.00496c.14357,0,.2897,.11349,.32388,.25039l.41549,1.64983Z"/>
          <path class="cls-1" d="M149.69177,27.66092c-1.55891,.83611-3.40239,.9079-5.52719,.22031-1.02566-.3338-1.89014-.77784-2.5979-1.3386-.7069-.55752-1.24426-1.22017-1.61155-1.98466-.36798-.76433-.55821-1.62471-.57068-2.58201-.01094-.95796,.1651-2.00122,.53154-3.12874,.38131-1.18085,.87371-2.16719,1.4755-2.96348,.59991-.7927,1.28681-1.39449,2.05798-1.80502,.76946-.41225,1.61565-.63512,2.53688-.67272,.9214-.03658,1.88706,.10614,2.89922,.43481,1.01147,.32645,1.87356,.77116,2.58627,1.33364,.71357,.55923,1.2569,1.22511,1.62984,2.00123,.37225,.77116,.5659,1.64231,.58333,2.60798,.0159,.96379-.16186,2.01781-.53069,3.15952-.7469,2.31092-1.90193,3.88232-3.46255,4.71774Zm1.28767-10.30408c-.37806-1.19845-1.20836-2.00381-2.49193-2.421-1.2969-.41908-2.44852-.26799-3.45503,.45224-1.00463,.71938-1.83767,2.09216-2.49278,4.1151-.66588,2.05046-.81184,3.67363-.43976,4.86883,.37225,1.19674,1.20597,2.00363,2.50116,2.42339,1.29604,.41977,2.44766,.27037,3.45503-.44899,1.00651-.72263,1.83852-2.09388,2.49449-4.11835,.66332-2.04721,.80689-3.6721,.42882-4.87123Z"/>
          <path class="cls-1" d="M158.09989,31.86866c.21604,.2579,.47395,.51155,.77356,.75852,.29961,.24799,.56829,.43566,.8086,.56504,.84961,.46147,1.61497,.64093,2.29093,.53496,.67682-.10426,1.2017-.50078,1.57309-1.18256,.22116-.409,.32046-.80278,.29705-1.19008-.02342-.38387-.11844-.76023-.28115-1.13077-.16527-.36798-.37481-.72946-.63102-1.08496-.25791-.35721-.50488-.71442-.74194-1.07813-.35294-.54761-.67084-1.04822-.95473-1.4955-.28286-.44899-.4948-.8814-.63255-1.29946-.13844-.4172-.18937-.83457-.15348-1.25931,.03589-.42232,.18766-.87883,.45309-1.36952,.29295-.53735,.66605-.95644,1.11829-1.24255,.4507-.29209,.95968-.46745,1.52643-.52334,.56744-.05674,1.17828,0,1.83767,.17194,.65921,.17194,1.34099,.44899,2.04704,.83201,.26458,.14271,.53992,.31464,.82449,.51667,.28799,.20031,.56761,.41464,.8438,.6317,.27535,.22202,.53821,.44557,.78689,.67186,.248,.22783,.45156,.45137,.45156,.45137,.0952,.10597,.16613,.22784,.1528,.27467-.01008,.0441-.08768,.1769-.17109,.29363l-1.2728,1.79101c-.08426,.11759-.2562,.1569-.38131,.09178l-.7804-.42814c-.12596-.06598-.19929-.23535-.16271-.3755l.44746-1.67993c-.10272-.21038-.27637-.43394-.52078-.6669-.24543-.23364-.57171-.46232-.97814-.68349-.73186-.39379-1.40457-.54077-2.02209-.43139-.61666,.10768-1.0865,.46147-1.41209,1.05984-.20852,.38302-.30867,.74023-.30201,1.06907,.00752,.33123,.08084,.65016,.2227,.96054,.14357,.30799,.32645,.6134,.55,.91559,.22526,.29876,.45156,.61085,.67767,.93712,.29466,.45395,.61256,.9255,.95216,1.41209,.34046,.48984,.61683,.9872,.8279,1.49789,.21022,.51086,.32884,1.02907,.35465,1.55395,.02427,.52573-.12511,1.05898-.44814,1.5965-.42147,.68692-.89217,1.18581-1.41875,1.49961-.52573,.3097-1.08992,.48164-1.68744,.51411-.59837,.03333-1.23588-.06512-1.91185-.29295-.67443-.22612-1.37124-.53496-2.08977-.92465-.64674-.3514-1.24921-.75185-1.81015-1.20426-.56248-.45395-1.2258-1.06821-1.2258-1.06821-.10528-.10016-.17775-.21279-.16032-.25535,.0159-.0417,.0952-.17365,.17775-.28953l1.2593-1.80263c.08272-.11434,.25295-.15434,.37977-.08768l.78108,.42488c.12613,.06837,.19946,.23775,.16271,.37551l-.42797,1.64488Z"/>
          <path class="cls-1" d="M172.99796,41.26809c-.09007,.11348-.06922,.27705,.04427,.36643l1.76178,1.38185c.11263,.08939,.30201,.22868,.42062,.30713l.93541,.64606c.11861,.07998,.30628,.07332,.41823-.01504l1.14666-.9255c.11178-.0911,.29534-.0911,.40729-.00342l.71596,.56333c.11348,.08597,.13109,.24783,.03845,.35805l-1.52387,1.80931c-.09349,.10768-.20869,.23689-.25876,.28286-.05179,.04666-.18613,.01162-.2979-.07589l-7.63354-5.98371c-.11349-.08939-.1328-.25295-.04341-.36644l.20783-.2644c.08836-.11366,.26697-.1528,.39294-.08597l.97985,.50232c.12768,.06512,.30457,.02752,.3931-.08512l7.07516-9.02393c.08682-.11349,.08341-.29466-.01077-.40216l-.72365-.83288c-.09349-.10768-.0993-.28969-.01077-.40318l.20852-.26201c.08853-.11263,.25295-.13519,.36559-.04753l4.04589,3.17286c.11263,.08853,.13262,.25295,.04597,.36559l-.21125,.26543c-.08751,.11263-.26372,.15177-.39139,.0858l-.98053-.50317c-.12767-.06683-.30542-.02666-.3931,.08597l-7.12456,9.08734Z"/>
          <path class="cls-1" d="M189.9318,57.33385c-1.76759-.07503-3.38991-.95216-4.86712-2.62969-.71186-.80774-1.23092-1.62898-1.55395-2.47193-.32372-.84039-.449-1.68231-.37636-2.52697,.07264-.84621,.34713-1.68402,.82449-2.51449,.47822-.82859,1.1617-1.63821,2.05131-2.421,.93148-.82279,1.85767-1.42286,2.77906-1.7975,.9214-.37806,1.81938-.54505,2.69053-.50574,.87218,.03914,1.71427,.27791,2.52782,.7151,.81201,.43651,1.56985,1.05317,2.27162,1.85186,.70434,.79543,1.2193,1.61735,1.54729,2.46116,.32883,.84791,.4548,1.69991,.38216,2.55363-.07247,.85543-.34884,1.70248-.82688,2.54286-.47736,.83868-1.16769,1.65325-2.06721,2.45023-1.82109,1.60318-3.61449,2.36836-5.38277,2.29247Zm6.35579-8.21106c.28714-1.22169-.01675-2.33999-.90961-3.3506-.89969-1.0207-1.9679-1.47892-3.20139-1.37381-1.23263,.10853-2.64883,.86551-4.24363,2.27162-1.61651,1.42713-2.56867,2.7483-2.85666,3.96589-.29124,1.21758,.0135,2.33828,.91644,3.36154,.90038,1.02137,1.96774,1.47875,3.20122,1.37278,1.23434-.10853,2.64883-.86465,4.24363-2.27162,1.61651-1.42713,2.56628-2.74984,2.84999-3.97581Z"/>
          <path class="cls-1" d="M202.15029,66.33112c.10853-.0911,.13776-.26714,.06512-.3931l-1.55395-2.63977-5.10999,3.08039,1.67086,2.81325c.07264,.12186,.19946,.31874,.27876,.4372l.64093,.93986c.0817,.121,.25791,.17929,.39379,.13588l1.39619-.46318c.13451-.04256,.30713,.02101,.37977,.14442l.47565,.79953c.07178,.12187,.03009,.28048-.09674,.34799l-2.07473,1.13829c-.12511,.06768-.2803,.14442-.34456,.16938-.06426,.02427-.17621-.05743-.24868-.17929l-5.37115-9.04239c-.07264-.12101-.03179-.28372,.09264-.3555l.28953-.17433c.12357-.07435,.30132-.04769,.3972,.0617l.73185,.82534c.09434,.10682,.2738,.13348,.39652,.06102l9.86004-5.85603c.12272-.07435,.18288-.24287,.13519-.37806l-.37464-1.03643c-.04751-.13518,.01419-.30473,.13605-.37805l.29124-.17279c.12426-.07264,.28372-.03333,.35636,.08922l5.12161,8.62091c.07247,.12272,.12682,.28457,.1193,.36473-.00667,.07418-.11178,.201-.23278,.2762l-2.05969,1.321c-.12015,.07845-.27876,.0417-.3514-.08426l-.46642-.78194c-.07178-.12185-.04769-.3037,.05674-.39976l1.11573-1.05403c.10426-.0993,.1369-.28372,.07178-.41054l-.53086-1.03147c-.06495-.12699-.17929-.3314-.25278-.45413l-1.50558-2.55105-4.51812,2.6972,1.5572,2.62627c.07264,.12272,.24201,.18441,.3755,.13263l1.03078-.38883c.13434-.04837,.30371,.01248,.37635,.1369l.39139,.65682c.07264,.12596,.03162,.28457-.09007,.35875l-3.33317,1.97867c-.12443,.07349-.28389,.03264-.35807-.09007l-.39054-.65853c-.07349-.12255-.04341-.30201,.06512-.39293l.99472-.84705Z"/>
          <path class="cls-1" d="M33.18229,60.22144c-.13109-.0569-.30389-.00426-.38234,.11589l-1.68316,2.5579,5.01975,3.2272,1.78588-2.74146c.0776-.1193,.1986-.32132,.27039-.44574l.56077-.9872c.07178-.12596,.04683-.31209-.05418-.41226l-1.02822-1.05145c-.10169-.10016-.11844-.28218-.0417-.40148l.50915-.78193c.07845-.11776,.23689-.14939,.3555-.06854l1.93526,1.36287c.11691,.08187,.25278,.18698,.30457,.23364,.05008,.04598,.02666,.18356-.05179,.30389l-5.74152,8.81097c-.07845,.11691-.24116,.15194-.35977,.07349l-.28457-.18442c-.1193-.07845-.17348-.2504-.1193-.38216l.4172-1.02326c.0535-.13177,0-.30371-.12101-.38302l-9.6064-6.26161c-.12015-.07674-.29961-.05503-.39806,.04512l-.76518,.79355c-.10101,.10272-.28047,.12271-.40148,.04341l-.28372-.18442c-.11776-.07845-.1528-.23945-.0752-.36131l5.47558-8.39719c.0776-.1193,.20014-.24031,.27278-.26782,.07093-.02666,.22954,.01248,.35225,.08597l2.09541,1.2651c.12186,.07436,.15861,.2328,.08016,.35312l-.49651,.76194c-.07845,.1193-.25295,.17604-.38644,.12682l-1.4379-.53496c-.13348-.05093-.31294,.00238-.39891,.11844l-.69015,.92806c-.08597,.11605-.21945,.30713-.2979,.42729l-1.62574,2.47689,4.41728,2.86503,1.66983-2.5579c.07777-.11844,.05606-.29706-.04751-.39396l-.80278-.75527c-.10357-.09759-.12443-.27705-.04751-.39551l.41891-.64264c.07845-.12014,.24116-.15518,.36046-.07588l3.24891,2.11558c.12015,.0793,.15519,.24116,.07674,.36046l-.41977,.64503c-.07845,.11947-.24953,.16955-.38131,.11195l-1.19674-.51822Z"/>
          <path class="cls-1" d="M215.8976,77.59983c.04512,.13347,.01505,.34046-.06922,.4565l-7.3206,10.13813,8.51734-2.9669c.13434-.04752,.23039-.20202,.20869-.34388l-.1569-1.09147c-.02085-.14357,.07418-.2955,.20869-.34216l.32046-.10939c.13519-.05008,.28543,.02512,.33038,.16099l1.44628,4.17955c.04837,.13519-.02666,.28543-.16015,.33465l-.31978,.10682c-.13434,.04665-.30457-.01419-.37721-.13861l-.5565-.97643c-.07178-.12187-.24133-.18698-.37652-.1393l-12.05577,4.17099c-.13605,.04666-.28457-.02666-.33123-.16015l-.41054-1.19008c-.04683-.1369-.01675-.34132,.06837-.45822l8.49478-11.60764-9.91012,3.43076c-.13519,.04837-.22697,.20202-.20868,.34388l.15775,1.09163c.02085,.14425-.07435,.29619-.20954,.34285l-.31961,.10853c-.13519,.05093-.28543-.0241-.33123-.15775l-1.44628-4.18432c-.04769-.13263,.02495-.28543,.16015-.33209l.32046-.10682c.13434-.05008,.30389,.01419,.37396,.13844l.55991,.97387c.07178,.12443,.24116,.18783,.37635,.14117l10.83664-3.74968c.1352-.04512,.22851-.19775,.20937-.34132l-.16271-1.10906c-.02171-.14186,.07349-.29722,.20783-.34388l.32046-.11349c.13519-.04428,.28457,.02751,.32969,.16271l1.27502,3.68115Z"/>
          <path class="cls-1" d="M208.37173,99.5317c-.07503,.32372-.12425,.68093-.14425,1.07147-.01931,.38729-.01008,.71767,.02837,.98805,.13844,.95474,.45138,1.6724,.94037,2.15319,.49002,.48402,1.12,.66759,1.88946,.55751,.45908-.06682,.83457-.22372,1.13077-.47735,.29466-.24714,.54077-.54744,.73784-.89798,.19689-.35055,.36131-.73784,.4948-1.15504,.1328-.4172,.27295-.83116,.42062-1.23844,.22868-.61085,.43908-1.16512,.63016-1.65906,.19108-.49736,.41139-.9214,.66178-1.28527,.25278-.35721,.55906-.65084,.91969-.87457,.3596-.22031,.81697-.37379,1.37022-.45395,.60675-.08682,1.1617-.03675,1.66488,.15348,.50249,.18698,.94721,.49411,1.3304,.91131,.38387,.42061,.70434,.94481,.95968,1.57566,.25705,.63101,.44318,1.34527,.55667,2.14309,.04341,.29705,.06922,.6175,.0776,.96481,.00923,.35037,.00923,.70092-.00342,1.05488-.01077,.35379-.03503,.69767-.06837,1.03147-.03503,.33704-.09264,.63425-.09264,.63425-.02512,.14015-.08341,.2704-.12596,.28697-.04341,.01675-.19535,.03675-.33892,.03675l-2.19898,.05008c-.14357,.00342-.27705-.11007-.2979-.25364l-.12596-.87799c-.01931-.14357,.07093-.30047,.20527-.35721l1.61394-.64418c.10768-.20698,.18202-.47736,.22373-.81458,.0417-.33721,.02837-.73442-.0376-1.19503-.11845-.82124-.40473-1.44884-.85868-1.87937-.45583-.4307-1.0207-.59427-1.69496-.49736-.43156,.06341-.77698,.19347-1.0383,.3972-.2603,.20356-.47224,.45395-.6358,.751-.16356,.29721-.29876,.63102-.40558,.98823-.10682,.35704-.22287,.72757-.34644,1.10154-.18937,.51069-.37806,1.04822-.56419,1.60899-.18937,.56419-.42301,1.08154-.70673,1.55891-.28303,.47412-.62845,.87798-1.03489,1.21178-.40728,.3338-.92225,.53411-1.54728,.59426-.80193,.07675-1.48542-.00342-2.04961-.24047-.56419-.23689-1.03642-.58418-1.42115-1.04481-.38387-.4606-.6869-1.03146-.90721-1.70914-.22202-.67425-.39053-1.41875-.50659-2.22649-.10426-.72775-.14442-1.45209-.11673-2.17317,.02666-.72109,.12511-1.61907,.12511-1.61907,.01504-.14357,.0634-.27363,.10768-.28372,.04341-.01333,.19518-.02342,.3396-.03008l2.19573-.06341c.14357-.00667,.27705,.10682,.29705,.24697l.12682,.88139c.02085,.14357-.07178,.30372-.2027,.35721l-1.57737,.64093Z"/>
          <path class="cls-1" d="M222.13836,118.84963c-.14442,0-.28457-.11349-.31037-.25381l-.21535-1.08479c-.02752-.1369-.16767-.25382-.30885-.25382l-11.46732,.05009c-.14528,0-.28389,.11691-.31055,.25705l-.2027,1.08496c-.02598,.14015-.16442,.25705-.30884,.25705l-.33721,.00325c-.14425,0-.26201-.11673-.26287-.2603l-.02256-5.16076c-.00068-.14357,.11776-.26371,.25962-.26371h.33807c.14425,0,.28286,.11349,.31123,.25364l.21364,1.08496c.02667,.13689,.16682,.25364,.31039,.25039l11.46748-.04684c.14357,0,.28287-.11673,.30799-.25705l.20185-1.08479c.02752-.14357,.16698-.25705,.31055-.25705l.33704-.00342c.14528,0,.26133,.11691,.26218,.26047l.0241,5.16075c0,.14357-.11673,.2603-.2603,.2603l-.33721,.00342Z"/>
          <path class="cls-1" d="M209.01608,127.58232c-.16938,.29037-.32046,.61751-.45395,.98464-.1328,.36388-.22048,.68109-.26304,.95148-.15006,.95473-.06085,1.73239,.26543,2.33674,.32474,.60076,.87218,.96464,1.64078,1.08479,.45976,.07349,.86534,.0335,1.22085-.12015,.35396-.14682,.67682-.36712,.96976-.64093,.29209-.2803,.56334-.59752,.81287-.95798,.24867-.36387,.50402-.71442,.76603-1.06154,.39891-.51411,.76194-.98139,1.08992-1.40201,.32798-.41737,.66434-.75783,1.01147-1.02823,.34644-.2738,.72365-.4606,1.13504-.56744,.40968-.11023,.89046-.12014,1.44286-.03349,.60759,.09349,1.12341,.30713,1.54643,.63426,.42558,.33055,.76023,.75116,1.00395,1.26528,.24201,.51394,.39567,1.11163,.45412,1.78913,.05914,.67767,.02581,1.41551-.09947,2.20667-.04495,.29705-.11673,.61409-.20937,.95131-.09349,.34046-.1986,.67426-.31294,1.0048-.11434,.33721-.23877,.65425-.36969,.96806-.13109,.31038-.2738,.5741-.2738,.5741-.06597,.12682-.15929,.23364-.20527,.24048-.04666,.00325-.19689-.02683-.3355-.06359l-2.11558-.60075c-.13759-.04017-.23193-.18698-.21022-.32713l.13844-.88123c.02256-.1369,.1569-.26372,.30132-.27722l1.7317-.14015c.16356-.16681,.31466-.4073,.4531-.71442,.13861-.31038,.24286-.69425,.3155-1.15162,.13024-.82125,.04-1.50216-.26868-2.0496-.30713-.54419-.79783-.87132-1.47379-.97473-.42985-.07007-.79868-.0434-1.10838,.07349-.30867,.11674-.58504,.29364-.82859,.5307-.24372,.23706-.46984,.51411-.67767,.82449-.20698,.31055-.42729,.63102-.65853,.95473-.32799,.4307-.66674,.88789-1.01148,1.37193-.34542,.4842-.72263,.91149-1.13248,1.28186-.40883,.36729-.85696,.65101-1.34611,.85132-.48489,.20031-1.03728,.23705-1.6524,.11349-.78945-.16699-1.41944-.44404-1.8886-.83116-.46984-.39396-.82022-.8679-1.05232-1.41876-.23022-.5541-.35208-1.18512-.36473-1.89938-.01162-.711,.04512-1.47225,.17194-2.28,.11434-.72774,.29124-1.43208,.5283-2.10976s.59581-1.51225,.59581-1.51225c.05606-.13348,.13947-.23689,.18613-.23689,.04427,0,.19535,.03333,.3338,.07007l2.11814,.58418c.13776,.03676,.23193,.18357,.21022,.32714l-.13759,.87799c-.02256,.14339-.1569,.26697-.29961,.2803l-1.6941,.14699Z"/>
        </g>
        <g>
          <path class="cls-1" d="M54.26439,201.42922c.12938,.05674,.30132,.01333,.38148-.10682l5.90355-8.4823-10.99183,6.22572c-.12511,.07007-.3179,.05333-.42968-.03675l-.43908-.35721c-.11092-.09007-.17279-.28047-.13605-.4172l3.18054-11.8705-6.67386,7.27052c-.10186,.10016-.11691,.27705-.03264,.39379l.6693,.90806c.08597,.11674,.0752,.29706-.02324,.40388l-.22783,.24372c-.09862,.1034-.26458,.11349-.36815,.00991l-3.25386-3.03099c-.10511-.09674-.11092-.26031-.01419-.36712l.23125-.24714c.09674-.1034,.2762-.12682,.39806-.05333l.93798,.5941c.12186,.07349,.30389,.0535,.40387-.04667l7.54843-8.37547c.0952-.10682,.09605-.28372,.00427-.39396l-.71442-.84791c-.09178-.11006-.09349-.29038-.0041-.40386l.21279-.2603c.08922-.11024,.25535-.12682,.36712-.03675l3.40324,2.76402c.11109,.09349,.17279,.2803,.13605,.4172l-2.70557,10.4485,9.31431-5.0741c.12528-.07007,.32046-.04991,.42985,.04016l3.26138,2.65053c.11092,.09008,.12767,.25364,.03846,.36388l-.21364,.26372c-.08939,.11007-.26799,.14682-.39225,.07998l-.97729-.52743c-.12596-.07007-.29961-.02991-.38558,.08358l-6.4368,9.14989c-.08016,.11673-.06597,.29705,.03179,.40729l.75681,.81116c.09691,.1034,.10768,.28372,.02256,.40045l-.1986,.27039c-.08512,.11691-.24783,.14032-.36302,.05691l-4.18518-3.06791c-.11434-.08341-.14032-.24698-.05521-.36046l.1986-.2738c.08443-.11673,.26047-.16015,.389-.10016l1.00139,.48078Z"/>
          <path class="cls-1" d="M78.8868,200.69822c1.01062,.51394,1.8927,1.09487,2.64797,1.74247,.75271,.64093,1.321,1.36526,1.70419,2.16651,.38302,.79783,.55154,1.68573,.50642,2.66387-.04666,.97797-.37123,2.0496-.97131,3.22789-.56333,1.10171-1.2234,1.97953-1.97953,2.63054-.75783,.65426-1.57891,1.08821-2.46612,1.30852-.8879,.21706-1.8334,.23706-2.83495,.06341-1.00053-.1769-2.85324-.97472-2.85324-.97472-.13195-.05675-.34217-.15348-.47241-.22031l-4.96301-2.5403c-.12767-.0634-.17775-.22372-.11349-.35054l.1528-.29705c.06495-.12682,.23108-.20373,.36798-.16032l1.06565,.31054c.13776,.04342,.30389-.03007,.36883-.15689l5.20673-10.18478c.06512-.12683,.02598-.30371-.08751-.39396l-.87474-.68092c-.11349-.08682-.15263-.26373-.08751-.39054l.15348-.30047c.06683-.12681,.22373-.18031,.34969-.11348l5.18007,2.65054Zm2.33076,6.03532c.14118-.79116,.12357-1.50558-.05418-2.14651-.17946-.64093-.51736-1.21503-1.01147-1.71905-.49651-.50745-1.72589-1.24186-1.72589-1.24186-.1234-.07674-.32713-.18682-.45566-.25039l-1.301-.67426-5.52719,10.81237,1.24015,.64093c.59752,.30371,1.17504,.55069,1.73256,.73767,.55821,.18356,1.09488,.27039,1.60813,.25705,.82039-.06666,1.62146-.39055,2.40852-.96464,.78603-.57752,1.50798-1.509,2.16394-2.79411,.47155-.97815,.77937-1.86604,.92208-2.6572Z"/>
          <path class="cls-1" d="M103.34308,210.76608c-.03179-.48077-.01675-.56418-.03179-.90464-.02-.41737-.15348-.57427-.57256-.84466-.1651-.10341-.34969-.19023-.54231-.27363-.30799-.14015-.65853-.24697-1.04822-.31722-.71357-.13007-1.38458-.1234-2.00636,.02017-.62503,.14015-1.18751,.42062-1.68812,.84449-.49992,.42062-.92806,.98139-1.28698,1.68248-.35636,.70434-.62418,1.54558-.80107,2.5203-.37567,2.07627-.22868,3.69192,.44386,4.85037,.67272,1.1617,1.83767,1.8927,3.49434,2.18975,.48488,.09024,1.00976,.12357,1.5772,.10357,.48574-.02,1.04326-.08682,1.67906-.16698,.33226-.03999,.36388,.20031,.36388,.20031l.03504,.2603s.0335,.30388-.21774,.39738c-.55838,.21022-1.19589,.36046-1.9127,.4572-.82791,.11366-1.73256,.08016-2.71566-.09674-.9414-.17366-1.80263-.45737-2.57619-.86124-.77527-.40729-1.41466-.94465-1.91868-1.61565-.50488-.67101-.84961-1.48559-1.03728-2.45023-.18613-.95814-.16442-2.07969,.07007-3.36821,.23535-1.29519,.62931-2.38015,1.18341-3.24805,.55496-.86465,1.22426-1.54216,2.00705-2.02961,.78364-.48745,1.66402-.79441,2.64045-.9214,.97558-.12682,2.0079-.09007,3.09953,.10682,.73937,.1369,1.42115,.33054,2.04294,.5876,.43139,.18031,.83782,.36388,1.22169,.55086,.53,.26371,.38986,.711,.38986,.711l-.56675,1.87937s-.13605,.41054-.49975,.35055c-.32303-.05674-.51753-.09349-.51753-.09349,0,0-.27705-.04016-.30867-.52078Z"/>
          <path class="cls-1" d="M125.13618,211.25336c-.14425-.4572-.14852-.54402-.24355-.87115-.11947-.39721-.28628-.52078-.75783-.68109-.18271-.06341-.38302-.10682-.5917-.1434-.33294-.06357-.69853-.08015-1.09317-.05691-.72536,.04016-1.37381,.20698-1.94535,.49411-.57256,.28714-1.05164,.69442-1.43961,1.21845-.38815,.52744-.6693,1.17504-.85047,1.94278-.181,.76775-.24201,1.64573-.18271,2.63721,.12425,2.1031,.6517,3.64184,1.57976,4.61007,.92721,.96464,2.23163,1.39858,3.91325,1.29844,.49223-.03008,1.01062-.12015,1.55634-.27705,.4666-.13024,.99233-.33038,1.59224-.56077,.31141-.11691,.40233,.11349,.40233,.11349l.09434,.24372s.1034,.28372-.11691,.43719c-.49394,.33722-1.07744,.63427-1.75085,.89799-.77698,.30389-1.66488,.48745-2.66216,.54744-.95644,.05674-1.85852-.01659-2.70728-.22697-.84791-.21022-1.59822-.58418-2.24581-1.11487-.64845-.53411-1.17589-1.24511-1.58557-2.12976-.40968-.89474-.65426-1.98961-.73185-3.29488-.0776-1.31518,.04922-2.46014,.38302-3.43487,.33123-.97147,.82278-1.78929,1.46884-2.44697,.64588-.65751,1.42953-1.16495,2.34751-1.51874,.91713-.35396,1.92945-.56761,3.03612-.63102,.751-.04666,1.45961-.01658,2.12378,.08682,.46249,.07349,.90226,.15365,1.31706,.24372,.57735,.13024,.54829,.60093,.54829,.60093l-.10768,1.95936s-.03264,.43395-.40062,.45737c-.32884,.02342-.52488,.02666-.52488,.02666,0,0-.27876,.03008-.42489-.42729Z"/>
          <path class="cls-1" d="M146.3921,206.76687c-.23877-.42063-.26047-.50061-.42147-.79783-.20117-.37054-.39054-.45053-.88209-.51069-.1945-.02666-.39823-.02342-.61016-.01675-.3379,.01008-.69938,.06683-1.08155,.17365-.69853,.19365-1.29861,.49069-1.79682,.89132-.49975,.40062-.88448,.89456-1.15162,1.49208-.26868,.59769-.40883,1.29194-.42472,2.07644-.0159,.78774,.10853,1.66231,.37464,2.62046,.56333,2.02961,1.40047,3.42153,2.51039,4.1727,1.11163,.751,2.47689,.90123,4.10006,.45069,.47395-.13023,.96054-.33054,1.46371-.59426,.42814-.23039,.9014-.53411,1.43876-.88123,.28047-.18356,.41737,.02342,.41737,.02342l.14271,.22031s.161,.25364-.02256,.45053c-.41054,.4307-.91969,.84466-1.52302,1.24186-.69613,.46728-1.52473,.83116-2.48697,1.09829-.92465,.25364-1.82177,.37054-2.6948,.34046-.87457-.02666-1.68487-.22697-2.43091-.61427-.74536-.38712-1.41124-.97131-1.99799-1.75255-.58829-.7845-1.05557-1.80588-1.40372-3.06432-.35465-1.26853-.46899-2.4169-.34884-3.4417,.12186-1.02155,.42985-1.91954,.92311-2.6972,.49326-.78125,1.15162-1.44218,1.97526-1.98295,.82381-.53411,1.7693-.95473,2.83837-1.25178,.72433-.20032,1.42286-.32046,2.09302-.35721,.46813-.02666,.91542-.03999,1.34031-.03675,.59085,.00342,.66178,.46745,.66178,.46745l.30628,1.93936s.05674,.4307-.29705,.53411c-.31551,.09024-.50574,.1369-.50574,.1369,0,0-.26714,.08682-.50574-.33055Z"/>
          <path class="cls-1" d="M164.08189,203.2985l-6.31255-2.86077c-.13024-.05998-.34969-.07349-.48574-.03332l-.94806,.2938c-.13759,.04324-.30713-.02342-.37892-.14699l-.1651-.2938c-.07093-.12682-.02752-.28372,.09674-.35704l4.54324-2.58388c.12357-.07332,.28372-.02666,.35636,.09349l.16527,.29722c.07093,.1234,.0417,.30371-.06255,.40045l-.56419,.51753c-.10597,.09674-.08512,.22697,.04341,.28696l4.49812,2.13985,.5541-5.0206c.0159-.14357-.08341-.22697-.21945-.18356l-.78603,.24696c-.13776,.04342-.30713-.01999-.37806-.14681l-.16527-.29055c-.07264-.12682-.02752-.28696,.09588-.35704l3.59774-2.04977c.12443-.07007,.28286-.02666,.35465,.09691l.16613,.2938c.07178,.1234,.04085,.30371-.06511,.40045l-.82125,.72109c-.10921,.09349-.20852,.28714-.22356,.4307l-.69767,6.38586,6.99347,3.25473c.13024,.05999,.34798,.07332,.48574,.03008l.96635-.30047c.1352-.04341,.30628,.02324,.37635,.14681l.16613,.29381c.07178,.12357,.02752,.28372-.09776,.35379l-4.55897,2.60046c-.12528,.06683-.28389,.02666-.35482-.10016l-.16681-.29038c-.07178-.12682-.04256-.30713,.06512-.40062l.61256-.55086c.10682-.09674,.08836-.22697-.04102-.28696l-5.25254-2.51705-.63836,5.87518c-.01675,.14357,.08341,.22372,.2186,.18356l.75031-.22697c.13673-.04341,.30713,.02342,.37875,.14699l.16698,.29363c.07007,.12357,.02666,.28047-.09759,.35396l-3.61534,2.05969c-.1234,.07007-.28372,.02666-.35465-.09692l-.16613-.29038c-.07161-.12682-.04085-.30371,.06512-.40062l.8221-.72433c.10768-.09349,.20954-.28714,.22612-.42729l.85218-7.26061Z"/>
          <path class="cls-1" d="M179.72532,184.10416c.09349,.11007,.10016,.29038,.01334,.40045l-.68093,.87799c-.08682,.11349-.08016,.29705,.01419,.40387l7.565,8.57579c.09434,.10682,.27295,.1369,.39738,.06341l.95387-.56402c.12255-.07349,.30201-.04684,.3955,.06341l.22373,.25038c.09417,.10683,.0834,.27364-.02257,.36713l-3.88984,3.43162c-.10853,.09349-.27295,.08682-.36883-.02342l-.22202-.25022c-.0952-.10683-.10016-.29055-.01248-.40062l.68007-.87799c.08768-.11349,.08101-.2938-.01333-.40387l-7.56518-8.57579c-.09417-.10683-.27278-.1369-.39635-.06341l-.95473,.56419c-.1251,.07332-.30286,.04341-.3972-.06341l-.22373-.25039c-.09349-.11024-.08341-.2738,.02342-.3673l3.8907-3.43161c.10768-.09674,.27277-.08341,.36797,.02342l.22202,.25039Z"/>
        </g>
        <path class="cls-1" d="M50.7227,49.70031c.14015,.02495,.33619-.0376,.43481-.14271l2.16309-2.27077c.09759-.10682,.09434-.26953-.01008-.36883l-.24372-.23297c-.10511-.101-.28543-.11262-.40302-.03247l-.82364,.5724c-.11691,.08272-.32884,.13024-.4707,.10768l-6.45611-1.04975c-.14186-.02343-.20783-.14767-.14767-.27791,0,0,.79116-1.7042,.75937-2.59038-.03247-.88636-.42882-1.69171-1.18922-2.41604-.54402-.51582-1.0906-.81543-1.64231-.9014-.55239-.08084-1.08992-.0241-1.61565,.17194-.52573,.19365-1.03147,.4883-1.51891,.88209-.48728,.39225-1.17743,1.07249-1.17743,1.07249-.10101,.10016-.26714,.26697-.36559,.37054l-3.79806,3.98982c-.09759,.10613-.09434,.27124,.00923,.36815l.24458,.23363c.10426,.09846,.28457,.11264,.40131,.02924l.91217-.65511c.11605-.08342,.29637-.07093,.39977,.02666l8.30694,7.90649c.10272,.0993,.12443,.2779,.04854,.39806l-.60931,.9431c-.0793,.12101-.05674,.29961,.04683,.3996l.24526,.23467c.10443,.09759,.26868,.09264,.36815-.01008l3.55843-3.7396c.09845-.10272,.09434-.26868-.00837-.36799l-.24612-.23534c-.10443-.09691-.28303-.11024-.40062-.02598l-.89627,.64024c-.11776,.08254-.2979,.07247-.40148-.02837l-3.82728-3.64201,.56675-.59666c.0993-.10273,.29534-.16698,.43651-.13947l7.34982,1.37706Zm-8.82618-1.45123c-.09845,.10597-.17279,.16938-.17279,.16938l-4.12929-3.90574,.73937-.76603c.0993-.10597,.26372-.2721,.36644-.3714,0,0,.45053-.44062,.76775-.67511,.31636-.23364,.64093-.38558,.97148-.45737,.33123-.06837,.67169-.04581,1.02224,.06922,.34969,.11691,.71271,.3555,1.08821,.71186,.81953,.78124,1.20836,1.54062,1.16341,2.27914-.04427,.73869-.9831,2.02209-.9831,2.02209-.08426,.11605-.23535,.29637-.33294,.39823l-.50078,.52573Z"/>
      </g>
      <g>
        <path class="cls-1" d="M285.97922,57.23093v-1.22363h22.77832v1.22363c-6.59473,.81592-6.73145,1.63184-6.73145,8.77148v19.6499c0,10.6748,3.60352,16.6582,12.85059,16.6582,9.99512,0,13.39551-7.00342,13.59863-17.20215v-19.17432c0-7.00293-.13574-7.88721-6.73047-8.70312v-1.22363h16.6582v1.22363c-6.5957,.81592-6.73242,1.7002-6.73242,8.70312v19.03809c0,14.75488-6.86719,21.21387-19.03711,21.21387-13.53125,0-19.92188-7.00293-19.92188-19.58203v-20.60156c0-7.00342-.13672-7.95557-6.73242-8.77148Z"/>
        <path class="cls-1" d="M376.34836,57.23093v-1.22363h16.6582v1.22363c-6.5957,.81592-6.73145,1.7002-6.73145,8.70312v39.36816h-5.71191l-28.96484-37.46436v27.5376c0,7.00293,.13672,7.88672,6.73145,8.70312v1.22363h-16.6582v-1.22363c6.5957-.81641,6.73145-1.7002,6.73145-8.70312v-31.68506l-1.15625-1.49561c-2.37891-3.12793-3.67188-4.41992-5.5752-5.16797v-1.01953h12.64746l28.76074,36.98828v-27.06152c0-7.00293-.13574-7.88721-6.73145-8.70312Z"/>
        <path class="cls-1" d="M413.20578,95.37546c0,7.00293,.13574,7.88672,6.73145,8.70312v1.22363h-22.77832v-1.22363c6.5957-.81641,6.73242-1.7002,6.73242-8.70312v-29.44141c0-7.00293-.13672-7.88721-6.73242-8.70312v-1.22363h22.77832v1.22363c-6.5957,.81592-6.73145,1.7002-6.73145,8.70312v29.44141Z"/>
        <path class="cls-1" d="M430.41086,63.8945c-1.9043-4.96338-2.7207-6.11963-6.93555-6.66357v-1.22363h21.00977v1.22363c-4.2832,.54395-5.57617,1.76807-4.35156,5.16748l11.9668,32.70459,8.29492-24.00146c4.41992-12.78271,2.51562-13.32666-2.71973-13.87061v-1.22363h15.70605v1.22363c-4.55469,.54395-5.23438,1.42773-8.77051,11.55908l-12.85059,36.51221h-5.50781l-15.8418-41.40771Z"/>
        <path class="cls-1" d="M502.14719,105.30222h-25.22461v-1.22363c6.59473-.81641,6.73047-1.7002,6.73047-8.70312v-29.44141c0-7.00293-.13574-7.88721-6.73047-8.70312v-1.22363h24.54492c4.69141,0,10.74316,0,16.04688-.2041l1.63086,16.25049h-1.35938c-3.39941-11.49072-8.02344-13.59863-21.21387-13.59863h-3.60352v19.92188h7.95508c3.87598,0,6.32324-1.90381,7.00293-7.61523h1.22461v18.22217h-1.22461c-.67969-5.71143-3.12695-7.61523-7.00293-7.61523h-7.95508v18.62988c0,2.37988,.47559,2.92383,3.46777,2.92383h2.58398c12.375,0,16.72656-2.7876,20.39746-13.80273h1.29199l-2.71973,16.25049c-5.43945-.06787-11.01465-.06787-15.84277-.06787Z"/>
        <path class="cls-1" d="M527.03781,104.07858c6.59473-.81641,6.73047-1.7002,6.73047-8.70312v-29.44141c0-7.00293-.13574-7.88721-6.73047-8.70312v-1.22363h8.70312c3.33105,0,10.19824-.06836,12.30664-.06836,12.57812,0,22.30078,3.3999,22.30078,12.98682,0,6.59521-4.96289,10.47119-12.30664,12.23877l10.53906,16.31836c3.12793,4.82764,4.14844,6.05176,8.90723,6.5957v1.22363h-15.23047c-1.29199-2.51562-3.39941-6.25537-5.64355-9.92676l-2.92383-4.55566c-2.85547-4.48779-4.35156-6.79932-5.71094-8.63525h-4.89551v13.19092c0,7.00293,.13574,7.88672,7.41113,8.70312v1.22363h-23.45703v-1.22363Zm20.60156-45.69141h-4.55566v21.34961h4.55566c7.81934,0,12.375-2.71973,12.375-10.6748s-4.55566-10.6748-12.375-10.6748Z"/>
        <path class="cls-1" d="M582.7966,102.51462v-16.59033h1.36035c1.90332,12.64648,6.93457,17.74609,15.02539,17.74609,5.98438,0,10.94727-2.92383,10.94727-9.04297,0-4.62354-3.67188-7.00342-9.11133-9.58691l-6.05078-2.85596c-7.20703-3.3999-11.76367-7.88721-11.76367-14.48242,0-7.81934,7.41211-13.25879,16.93066-13.25879,4.89551,0,11.28711,1.35986,14.61816,3.3999v13.93848h-1.35938c-1.9043-9.72314-6.5957-14.82275-13.32617-14.82275-5.50781,0-9.38281,2.58398-9.38281,7.34326,0,4.69141,3.19531,6.86719,6.79883,8.56738l7.20703,3.39941c7.54688,3.53564,13.19141,7.27539,13.19141,14.68652,0,8.90723-8.5,15.23047-18.69922,15.23047-6.66309,0-12.44238-1.56348-16.38574-3.67139Z"/>
        <path class="cls-1" d="M640.39035,95.37546c0,7.00293,.13574,7.88672,6.73145,8.70312v1.22363h-22.77734v-1.22363c6.59473-.81641,6.73047-1.7002,6.73047-8.70312v-29.44141c0-7.00293-.13574-7.88721-6.73047-8.70312v-1.22363h22.77734v1.22363c-6.5957,.81592-6.73145,1.7002-6.73145,8.70312v29.44141Z"/>
        <path class="cls-1" d="M664.80246,104.07858c7.20801-.81641,7.47949-1.9043,7.47949-8.70312V58.25095h-1.69922c-9.51953,0-13.53125,4.82764-16.93066,15.70654h-1.36035l2.04004-18.1543c5.23535,.2041,11.55859,.2041,16.25098,.2041h12.64648c4.69141,0,11.01465,0,16.31836-.2041l2.03906,18.1543h-1.42773c-3.33203-10.87891-7.34277-15.70654-16.8623-15.70654h-1.7002v37.12451c0,6.79883,.27246,7.88672,7.48047,8.70312v1.22363h-24.27441v-1.22363Z"/>
        <path class="cls-1" d="M740.28,104.07858v1.22363h-24.27344v-1.22363c7.20703-.81641,7.47852-1.9043,7.47852-8.70312v-9.45117l-12.44238-22.37012c-2.65137-4.89551-3.60352-5.7793-6.73145-6.32324v-1.22363h21.00977v1.22363c-4.2832,.54395-5.84766,1.7002-4.21484,4.89551l10.4707,19.71826,8.36328-14.82275c4.41895-7.68311,3.26367-9.31494-1.63281-9.79102v-1.22363h15.16309v1.22363c-3.67188,.6123-5.30371,1.76807-9.31543,8.49902l-11.35449,19.71826v9.92725c0,6.79883,.27246,7.88672,7.47949,8.70312Z"/>
        <path class="cls-1" d="M314.12961,125.64694c13.32617,0,25.9043,8.97559,25.9043,25.76953s-12.57812,25.76953-25.9043,25.76953c-13.32715,0-25.90625-8.97559-25.90625-25.76953s12.5791-25.76953,25.90625-25.76953Zm0,2.51562c-9.38379,0-15.50293,8.90723-15.50293,23.25391s6.11914,23.25391,15.50293,23.25391c9.38281,0,15.50195-8.90723,15.50195-23.25391s-6.11914-23.25391-15.50195-23.25391Z"/>
        <path class="cls-1" d="M346.56711,175.07858c6.5957-.81641,6.73242-1.7002,6.73242-8.70312v-29.44141c0-7.00293-.13672-7.8877-6.73242-8.70312v-1.22363h25.90625c4.69141,0,10.74219,0,16.0459-.2041l1.63184,16.25h-1.35938c-3.40039-11.49023-8.02344-13.59863-21.21484-13.59863h-4.96289v19.92188h7.95508c3.87598,0,6.32324-1.90332,7.00391-7.61523h1.22363v18.22266h-1.22363c-.68066-5.71191-3.12793-7.61523-7.00391-7.61523h-7.95508v14.07422c0,6.7998,.27148,7.81934,7.47949,8.63574v1.22363h-23.52637v-1.22363Z"/>
        <path class="cls-1" d="M438.84055,125.64694c13.32617,0,25.9043,8.97559,25.9043,25.76953s-12.57812,25.76953-25.9043,25.76953c-13.32715,0-25.90625-8.97559-25.90625-25.76953s12.5791-25.76953,25.90625-25.76953Zm0,2.51562c-9.38379,0-15.50293,8.90723-15.50293,23.25391s6.11914,23.25391,15.50293,23.25391c9.38281,0,15.50195-8.90723,15.50195-23.25391s-6.11914-23.25391-15.50195-23.25391Z"/>
        <path class="cls-1" d="M473.79367,173.51413v-16.58984h1.36035c1.90332,12.64648,6.93457,17.74609,15.02637,17.74609,5.9834,0,10.94727-2.92383,10.94727-9.04297,0-4.62402-3.67188-7.00391-9.11133-9.58691l-6.05176-2.85645c-7.20703-3.39941-11.7627-7.88672-11.7627-14.48242,0-7.81934,7.41113-13.25879,16.93066-13.25879,4.89551,0,11.28613,1.36035,14.61816,3.40039v13.93848h-1.35938c-1.9043-9.72363-6.5957-14.82324-13.32715-14.82324-5.50684,0-9.38281,2.58398-9.38281,7.34375,0,4.69141,3.19531,6.86719,6.7998,8.56738l7.20703,3.39941c7.54688,3.53516,13.19043,7.27539,13.19043,14.68652,0,8.90723-8.49902,15.23047-18.69824,15.23047-6.66309,0-12.44336-1.56348-16.38672-3.67188Z"/>
        <path class="cls-1" d="M515.34152,175.07858c6.59473-.81641,6.73145-1.7002,6.73145-8.70312v-29.44141c0-7.00293-.13672-7.8877-6.73145-8.70312v-1.22363h22.77832v1.22363c-6.5957,.81543-6.73242,1.7002-6.73242,8.70312v34.2002c0,2.24414,.68066,2.78809,2.78809,2.78809h2.1084c12.30664,0,15.57031-2.99219,19.24219-14.61816h1.35938l-2.17578,17.06543c-3.26367-.06738-11.21875-.06738-13.93848-.06738h-25.42969v-1.22363Z"/>
        <path class="cls-1" d="M587.8259,125.64694c13.32715,0,25.90527,8.97559,25.90527,25.76953s-12.57812,25.76953-25.90527,25.76953-25.90527-8.97559-25.90527-25.76953,12.57812-25.76953,25.90527-25.76953Zm0,2.51562c-9.38379,0-15.50293,8.90723-15.50293,23.25391s6.11914,23.25391,15.50293,23.25391c9.38281,0,15.50293-8.90723,15.50293-23.25391s-6.12012-23.25391-15.50293-23.25391Z"/>
      </g>
    </g>
  </g>
</svg>