<svg xmlns="http://www.w3.org/2000/svg" width="909.9437" height="231.62292" viewBox="0 0 909.9437 231.62292">
  <defs>
    <style>
      .cls-1 {
        fill: #fff;
      }
    </style>
  </defs>
  <g id="Segl">
    <g>
      <path class="cls-1" d="M0,115.81522a115.33742,115.33742,0,0,1,26.44417-73.665h0A115.56316,115.56316,0,0,1,115.801,0h0A115.81945,115.81945,0,0,1,231.61624,115.81522h0A115.814,115.814,0,0,1,115.801,231.62292h0A115.81043,115.81043,0,0,1,0,115.81522Zm1.72,0A113.71514,113.71514,0,0,0,35.1367,196.4821h0A113.703,113.703,0,0,0,115.801,229.90044h0a113.74026,113.74026,0,0,0,80.67679-33.41834h0a113.70733,113.70733,0,0,0,33.41595-80.66688h0a113.73507,113.73507,0,0,0-33.41595-80.67355h0A113.7405,113.7405,0,0,0,115.801,1.72076h0A113.84338,113.84338,0,0,0,27.77269,43.24505h-.00086A113.63838,113.63838,0,0,0,1.72,115.81522Z"/>
      <g>
        <path class="cls-1" d="M25.44432,162.79321a2.74082,2.74082,0,1,1,2.709,2.77735A2.7368,2.7368,0,0,1,25.44432,162.79321Z"/>
        <path class="cls-1" d="M199.74433,164.429a2.74,2.74,0,1,1,2.708,2.77393A2.73571,2.73571,0,0,1,199.74433,164.429Z"/>
      </g>
      <path class="cls-1" d="M195.02248,82.53874A85.75085,85.75085,0,1,0,82.6264,194.91311a84.55461,84.55461,0,0,0,9.77322,3.44837c.02922.0099.055.02.08511.02991a47.55293,47.55293,0,0,0,5.04659,1.26527,86.11656,86.11656,0,0,0,18.48334,1.99286,87.26989,87.26989,0,0,0,11.35486-.74433h.02751a20.17265,20.17265,0,0,0,4.72681-.76791,85.4154,85.4154,0,0,0,44.512-23.60086l-.6076-.60743.6076.60743a85.88391,85.88391,0,0,0,18.38661-93.99768ZM62.81181,180.94959a.781.781,0,0,1-.23706-.74775,3.86584,3.86584,0,0,1,.17946-.36387,14.09951,14.09951,0,0,1,1.4755-2.09968,30.34428,30.34428,0,0,0,7.57936,9.64383A84.00891,84.00891,0,0,1,62.81181,180.94959Zm-.71272-50.84372a5.85237,5.85237,0,0,1,2.07883,4.21953,3.89739,3.89739,0,0,1-.11348.9513c-.02667.10683-.05333.187-.07093.23706a.21036.21036,0,0,1-.01163.03008,2.98487,2.98487,0,0,1-2.73565,1.422A5.21394,5.21394,0,0,1,60.218,136.859c-3.33488-.64759-6.62873-1.93954-9.35191-2.27658-.045-.00666-.09759-.00342-.146-.01008l6.54447-8.973C59.40019,127.56557,61.25119,129.288,62.09909,130.10587Zm-13.6974-14.94833L91.02513,72.05845l-25.55287,59.9902a8.75468,8.75468,0,0,0-2.17386-3.17782C60.909,126.5541,51.0606,117.5811,48.40169,115.15754Zm11.48509,23.39387a7.164,7.164,0,0,0,1.35945.13691,4.91015,4.91015,0,0,0,3.29728-1.165,4.09033,4.09033,0,0,0,.99386-1.23519l.00257-.00667.00256-.00667c.005-.01008.01077-.02341.02085-.04666l.04837-.11365L91.82056,74.81922a14.28244,14.28244,0,0,0,.28867,1.58472,42.37291,42.37291,0,0,0,3.64868,15.4098,33.988,33.988,0,0,0,2.703,4.93377c.38387.57753.71357,1.03831.95968,1.36869.08187.11349.15605.21364.21621.2938l-6.11138,21.11389a.86754.86754,0,0,0,.28953.91473l1.45636,1.155a.4889.4889,0,0,1,.09759.48727c-.08512.31722-6.799,25.09978-6.799,25.09978l-21.3183,24.47542c-1.57565-1.30869-6.204-5.59145-12.31881-15.09531-5.33013-8.2719-6.92-13.4894-6.909-16.46382a4.624,4.624,0,0,1,.80774-2.9375l.01914-.02.02085-.03008c.02513-.03008.05264-.06683.07845-.09691a2.10324,2.10324,0,0,1,1.53806-.72758.89187.89187,0,0,1,.16442.00991C53.02509,136.56865,56.37415,137.85375,59.88678,138.55141Zm45.20715-90.21807a.85924.85924,0,0,0-1.06326-.54249c.3755-.3355.74775-.65921,1.10735-.96549l3.6979-.48334a.86273.86273,0,0,0-.22526-1.71068l-.56333.075a27.16649,27.16649,0,0,1,3.31556-1.63394c.65939-.27124,1.22357-.47822,1.61992-.616.39635-.13434.61427-.19945.61513-.20116a.86054.86054,0,1,0-.49-1.64984,29.06056,29.06056,0,0,0-3.32564,1.27518.861.861,0,0,0-1.41039-.988l-1.97867,2.81325c-.1769.11588-.3555.23449-.529.35379-.25466.18031-.53411.38968-.83047.625l.20116-.39378a.86013.86013,0,1,0-1.53053-.78536l-2.16993,4.21783c-.53821.4982-1.039.9713-1.467,1.37773.06751-2.254.67426-6.21734,3.20208-8.10594a9.87961,9.87961,0,0,1,6.25734-2.31247,18.06993,18.06993,0,0,1,2.68643.26543c.37379.04921,1.6982.368,2.84828.66007,1.16256.2979,2.20565.575,2.20736.57752l.22373.02666a3.02184,3.02184,0,0,1,2.239.671,1.79691,1.79691,0,0,1,.47566,1.30613,2.7136,2.7136,0,0,1-.39464,1.29176,3.546,3.546,0,0,1-.2145.33551l-6.42928.706a.876.876,0,0,0-.59341.33208l-4.05,5.337-1.98123.01333-.17946.02342a2.03419,2.03419,0,0,0-.84449.43395,2.2736,2.2736,0,0,0-.79373,1.7975,4.72822,4.72822,0,0,0,1.15675,3.35163c.06341.06922.126.13092.18852.18937L103.434,58.64579a5.52265,5.52265,0,0,1-1.70077-.77869,4.0866,4.0866,0,0,1-1.76759-2.84076,13.27248,13.27248,0,0,1-.18032-2.07712,7.16538,7.16538,0,0,1,.10512-1.29519c.01008-.00923.0217-.0142.03179-.02342.00085-.00256.388-.38062.99386-.96053l3.64116-1.24443A.8626.8626,0,0,0,105.09393,48.33334Zm13.16825,6.58037a.45221.45221,0,0,1-.21449.39549.85831.85831,0,0,0-.42729.611,1.027,1.027,0,0,0,.20852.71425.27494.27494,0,0,1-.01744.26543c-.0576.1034-.16937.29961-.16937.29961a.85608.85608,0,0,0-.07093.69272l.00991.03418a2.7356,2.7356,0,0,1,.08939.68007.99.99,0,0,1-.46984.79457,4.66916,4.66916,0,0,1-1.57737.27039l-1.81682-.03674a.85721.85721,0,0,0-.86209.70433,3.557,3.557,0,0,0-.04922.62675,4.011,4.011,0,0,0,.45394,1.89783,3.244,3.244,0,0,0,.59769.80107c.0041.00257.005.00751.00906.01248h-.00154l3.06432,3.43332-7.939.53992L103.67431,63.421c.26543-.13262.41977-.21107.41977-.21107a.85427.85427,0,0,0,.47907-.77031V59.94183l3.47076-3.4793a.86035.86035,0,0,0-.363-1.43363v-.00256c-.15759-.10853-1.19743-.43976-1.23178-2.56628.01179-.34883.09691-.39465.17194-.47565a.51282.51282,0,0,1,.08426-.055l2.25675-.01914a.86451.86451,0,0,0,.67921-.33892s3.61279-4.776,3.86232-5.08487a.94168.94168,0,0,1,.62589-.337l4.89464-.535a.288.288,0,0,1,.28782.28951c.0417.45311.09349.99985.14852,1.59567.01094.25124-.15433.34473-.24868.34713-.62247.01914-1.27006.03674-1.96038.06426a3.55774,3.55774,0,0,0-2.032.797.86691.86691,0,0,0-.04017,1.27519,3.22081,3.22081,0,0,0,1.09744.39721,3.735,3.735,0,0,0,1.58489.29961.935.935,0,0,0,.60914-.91542.74294.74294,0,0,1,.76364-.76689.34014.34014,0,0,1,.3297.32371c.08751.858.24372,1.94364.297,2.55961.02512.30115.05093.58163.06836.81783.00752.30628-.26116.33123-.39891.34542-.28526.03674-.51069.04426-.51069.04683a.86035.86035,0,0,0-.81868.918Zm-9.98292,14.2956a.85847.85847,0,0,0,.53171.18117h.05674l10.02361-.68178a.86169.86169,0,0,0,.58418-1.43209L117.672,65.25624c1.04821.32114,1.952.60161,2.64968.8144a6.11132,6.11132,0,0,1,2.35434,2.12565,19.66805,19.66805,0,0,1,1.98791,3.238c-.35482,1.77751-.86466,3.53006-1.40458,5.29441l-4.44223,3.37487L109.14887,73.589a48.38947,48.38947,0,0,0-4.90285-6.17223,6.15608,6.15608,0,0,0-4.39471-1.5789c-.29962.00256-.60008.02-.90141.05008.424-.23125.84791-.45823,1.26186-.67683.63016-.33379,1.2352-.64759,1.77256-.92635Zm-8.42795-1.64812a4.47083,4.47083,0,0,1,3.17627,1.07231,36.96792,36.96792,0,0,1,3.24224,3.87565c.918,1.236,1.53959,2.17488,1.54216,2.17728a.831.831,0,0,0,.23535.23875l10.32082,6.94836a.856.856,0,0,0,1.00224-.02581l13.14074-9.987.05589-.04665s.29038-.26286.67186-.58179a12.72818,12.72818,0,0,1,1.15333-.87952c.68349-.45156,3.58424-2.16976,5.42772-2.22155.16288-.00752.31978-.01247.46916-.01247a3.635,3.635,0,0,1,1.86929.36541c.313.22458.45395.40319.47822,1.04565,0,1.05077.01743,2.60388.01743,2.60388a.78568.78568,0,0,0,.71442.766c.32474,0,.75869.09434.75869.5917a.6017.6017,0,0,1-.57341.67768c-.31466.03846-.60914.07588-.73015.09349l-.81116-.00256-.21791.02666c-.00257,0-1.10821.288-2.3.57256-.59409.14186-1.20922.28628-1.70743.38969-.24783.05178-.469.0969-.63768.12528-.0817.01246-.15263.025-.20356.03008-.04922.00735-.06255.005-.06255.00735-.76023.00256-1.937.13194-1.95543.13451a.8679.8679,0,0,0-.60914.35874c-.00427.00513-1.45636,2.06978-3.28138,4.50495a74.69718,74.69718,0,0,1-5.43952,6.66293c-1.46644,1.468-2.68489,2.57961-3.53194,3.31727-.26441.2304-.49223.42233-.68007.57923a.58188.58188,0,0,1-.57581.08682c-1.26186-.51906-3.95324-1.5965-7.19292-2.98262-4.52325-1.93288-10.11556-4.4424-14.35662-6.71317a14.04581,14.04581,0,0,1-3.5769-2.65805c-.13434-.14015-.26286-.28782-.38968-.43549-.04017-.04769-.081-.09777-.12015-.14357q-.1428-.17537-.27552-.35465c-.06836-.09263-.13434-.18783-.19945-.28133-.05589-.08169-.10922-.1627-.16271-.247-.06-.09435-.1193-.19279-.17776-.29124-.0217-.04187-.04426-.08443-.066-.12357a7.057,7.057,0,0,1-.31363-.64349c-.0135-.03077-.026-.06-.04016-.09008-.05093-.13023-.101-.25876-.14442-.38814v-.00239l-.0024-.00752a6.08106,6.08106,0,0,1-.18954-.70947c-.02085-.1034-.0417-.20681-.05828-.3121-.01179-.07929-.02256-.15928-.03094-.23773a5.61241,5.61241,0,0,1-.0376-.60675c0-.13519.00667-.27295.0159-.40985.00923-.11349.0217-.23107.0376-.34714l.00495-.05758a6.78228,6.78228,0,0,1,.17776-.84534v-.00257l.00085-.00325c.04751-.17279.10426-.35054.16852-.53171l.01009-.02752c.06084-.16442.12852-.33619.20355-.50573.01094-.025.02086-.04923.03179-.07332.07179-.1569.15178-.31893.23535-.48251.02-.03418.03675-.07091.05589-.10749.10511-.19365.21946-.39071.34456-.59341h0C95.54256,68.531,97.79076,67.53862,99.85131,67.56119Zm26.9841-13.13151c0-.37807.13178-.44062.19518-.43225a3.84124,3.84124,0,0,1,2.487,1.31844,3.48794,3.48794,0,0,1,.55171.94054,2.99681,2.99681,0,0,1,.09844.29721c.00838.03418.01334.0559.0159.06923l.00068.00171a.86357.86357,0,0,0,.85047.71681h16.801a.85959.85959,0,0,0,.852-.73442,2.38133,2.38133,0,0,1,.68929-1.14324,4.28126,4.28126,0,0,1,2.53124-1.04823c.18271-.04015.21365.13931.21365.29791,0,1.77922-.06256,5.48635-.06256,10.86827,0,4.38378,1.12991,7.91726,2.214,11.4157a36.48778,36.48778,0,0,1,2.133,11.41895,17.06277,17.06277,0,0,1-1.3268,6.699,9.191,9.191,0,0,0-1.77768-.79457,1.36964,1.36964,0,0,0-.35875-.04666,2.77765,2.77765,0,0,0-1.5531.63084,2.91361,2.91361,0,0,0-.99147,1.11505,1.489,1.489,0,0,0-.09606.52744,2.32089,2.32089,0,0,0,.29466,1.0448c-.17861.14681-.38729.32046-.60333.5141a9.91634,9.91634,0,0,0-.82449.81117,2.76911,2.76911,0,0,0-.62435.98463,2.628,2.628,0,0,0-.12511.80791,3.329,3.329,0,0,0,.3914,1.49892,19.34553,19.34553,0,0,1-9.82176,2.40681c-5.74665-.00341-9.86431-1.97628-12.59655-4.8437a14.88722,14.88722,0,0,1-3.803-7.56108c.84791-.71767,2.33589-2.02789,4.22534-3.92385.32115-.32388.67255-.70365,1.04309-1.12085A10.67214,10.67214,0,0,0,131.26,92.46133,13.08226,13.08226,0,0,0,139.3518,95.439a.87014.87014,0,0,0,.16271.01675.47726.47726,0,0,0,.06768-.00667c.06922.00325.13844.00992.20852.00992,6.47115-.02,11.31811-5.74665,11.33058-12.09082-.00324-2.84914-.66844-4.83858-1.28766-7.91059a71.27961,71.27961,0,0,1-1.25434-14.89483.86191.86191,0,0,0-.86124-.85884H131.13083a.86689.86689,0,0,0-.61017.25039.88049.88049,0,0,0-.25278.60845,66.4373,66.4373,0,0,1-.79287,11.44237l-3.89565,2.9592c.3097-1.11983.58761-2.25658.80535-3.41828a.77633.77633,0,0,0,.03008-.14854,26.1117,26.1117,0,0,0,.45737-4.63159C126.87216,61.10593,126.84874,56.5878,126.83541,54.42968Zm23.91876,47.67241a2.6029,2.6029,0,0,1-.61256-1.3921.9958.9958,0,0,1,.046-.297h.0041a5.701,5.701,0,0,1,1.04241-1.105c.46471-.40728.88123-.72108.88294-.72433a.95078.95078,0,0,0,.37875-.76793,1.33488,1.33488,0,0,0-.1569-.5975c-.05914-.1234-.121-.227-.16682-.32372a.6052.6052,0,0,1,.16357-.67425.74494.74494,0,0,1,.79287-.1369,10.461,10.461,0,0,1,1.34937.66758,5.09659,5.09659,0,0,1,1.78434,1.57225,3.42308,3.42308,0,0,1,.50061,1.549.99238.99238,0,0,1-.25945.66093c-.27637.317-2.80658,2.44014-3.067,2.60046a15.74456,15.74456,0,0,1-2.27162.99472c-.26868.10014-.52745.19364-.75938.27705-.3155.13348-.36558-.07674-.36558-.07674a.316.316,0,0,1,.061-.30713,4.0215,4.0215,0,0,0,.42968-.40387,1.39121,1.39121,0,0,0,.40985-.92807A1.02081,1.02081,0,0,0,150.75417,102.10209Zm2.52953,59.78322a.39129.39129,0,0,1-.17109.36712c-.20287.11349-6.25665,3.51178-6.25665,3.51178L146.155,105.2599a19.12524,19.12524,0,0,0,1.97782-.77116Zm-27.731,27.97712s2.23487,2.89426,2.32,3.02432a.26119.26119,0,0,1-.04341.33055c-3.38069,2.76061-8.86037,4.69006-15.12779,5.38106.98823-4.55315,4.79449-22.48256,7.61525-40.73551,2.90589-18.82073,4.197-36.68981,4.44736-40.40532,0,0,2.26154-.15023,2.657-.18681.394-.04016.44489.19348.43566.434-.00837.24355-2.481,71.60364-2.481,71.60364A.86774.86774,0,0,0,125.5527,189.86243ZM95.51675,118.83955s5.60308-19.35792,5.67811-19.61839a.51789.51789,0,0,1,.33465-.33381s4.09938-1.14836,4.75278-1.362a9.45443,9.45443,0,0,1,1.725-.29038l14.09034-.86124a16.03035,16.03035,0,0,0,7.13122,7.69439s-.03008,10.71563-.03008,10.91919c0,.20373-.0993.4307-.55085.4707-.45224.03674-14.17306.99472-17.59135,1.23844a8.17055,8.17055,0,0,0-1.58967.26048c-.52163.14681-12.46819,3.41828-12.46819,3.41828a.982.982,0,0,1-.61324-.09349c-.20373-.16357-.31141-.25039-.67768-.54077C95.34054,119.44715,95.51675,118.83955,95.51675,118.83955Zm5.29338-21.74149c-1.35945-1.866-5.31679-7.41237-6.65539-17.51956.09349.106.187.21125.28115.31141a15.69768,15.69768,0,0,0,4.02674,2.99595c8.62826,4.62426,22.485,10.07967,22.49914,10.08633a.07733.07733,0,0,1,.02769.00666,17.07646,17.07646,0,0,0,.46643,1.7124l-13.00042.79458a13.82616,13.82616,0,0,0-2.62644.38045c-1.32937.374-4.36874,1.23844-4.57315,1.30528A.38436.38436,0,0,1,100.81013,97.09806Zm28.79341,19.91886.62674-.12682a.86654.86654,0,0,0,.68759-.84125l.02922-11.17282a21.27046,21.27046,0,0,0,8.01417,1.46217h.02837a24.0063,24.0063,0,0,0,5.44875-.60418l.80193,69.20674.00256.04342s.00325.04683.00325.17364a5.84862,5.84862,0,0,1-2.21146,4.64665,28.93852,28.93852,0,0,1-15.77948,4.97394Zm-.33722-31.51812c2.01218-2.46851,4.2303-5.498,5.47541-7.22215V92.64831a10.33709,10.33709,0,0,1-2.36494-1.4955A8.985,8.985,0,0,1,129.26632,85.4988Zm7.1972,7.77711V77.14759c.15348-.00923.302-.01419.41977-.01419a7.71223,7.71223,0,0,0,1.26015-.19706c.161-.035.33123-.07332.50983-.11349V93.67978A11.92734,11.92734,0,0,1,136.46352,93.27591Zm3.91223.43737V76.41813c.79287-.1945,1.483-.37054,1.74007-.434h.31876v17.345A8.74806,8.74806,0,0,1,140.37575,93.71328Zm5.34534-21.20909a1.36343,1.36343,0,0,0-.88209-.96566c-.1528-.0441-.31551-.08512-.46984-.1193-.00428-.54248-.01009-1.29929-.01009-1.88946a3.06362,3.06362,0,0,0-.202-1.17247V61.42485h2.70318a71.507,71.507,0,0,0,1.28425,14.37662c.651,3.187,1.25605,5.01975,1.25349,7.56671a10.853,10.853,0,0,1-2.789,7.25547,9.85824,9.85824,0,0,1-2.45194,1.96125V75.83155c.06187-.00752.12614-.0159.18032-.021.0834-.0058.15775-.01571.21278-.02084.0535-.005.0735-.00239.0735-.005a.962.962,0,0,0,.66349-.267,1.844,1.844,0,0,0,.45651-.98225,5.40331,5.40331,0,0,0,.106-1.04411A3.39469,3.39469,0,0,0,145.72109,72.50419Zm-3.28651-11.07934v5.29168a6.11379,6.11379,0,0,0-2.05883-.3179V61.42485Zm-3.78131,0v5.13991a11.71033,11.71033,0,0,0-2.18975.72433V61.42485Zm-3.91154,0v6.72377c-.5782.32132-1.02309.60093-1.266.74689a19.74424,19.74424,0,0,0-2.0279,1.60983l-.005.00513a73.60141,73.60141,0,0,0,.54658-9.08562ZM66.56884,175.06109c.21706-.24715,23.43063-26.899,23.43063-26.899a.85872.85872,0,0,0,.18031-.33722s6.86751-25.34674,6.915-25.52364a.337.337,0,0,1,.227-.227s12.17507-3.33146,12.64337-3.46836a7.43194,7.43194,0,0,1,1.145-.19023l6.75983-.47412c-.08016.78792-.21963,2.05644-.44233,3.68543-1.15094,8.5657-4.65587,27.05246-13.22329,37.12034C91.45156,173.81581,73.806,175.35814,67.19815,175.35472c-.14682,0-.28628,0-.42233-.00325C66.52475,175.35147,66.352,175.3113,66.56884,175.06109Zm-.41378,2.00277c.30952.00666.6558.01008,1.04309.01332,6.83742-.00324,25.0497-1.57223,38.3205-17.21481,10.9233-12.96555,13.66237-37.71136,14.08965-42.041l3.42154-.24372c-.12187,1.77272-.42473,5.96866-.95712,11.64352-.71272,7.61116-1.83272,17.84926-3.45845,28.38116-1.62813,10.53191-3.58681,20.96707-5.13905,28.7717-1.14837,5.77177-2.07131,10.08787-2.4745,11.95066a.66809.66809,0,0,1-.65.47736c-.94653,0-1.90279.08683-2.86931.08341a50.57369,50.57369,0,0,1-9.58709-.91131c-1.67582-.37055-3.34069-.7845-4.99223-1.25845-11.87051-3.74216-18.75972-9.02973-22.68955-13.30926a27.01837,27.01837,0,0,1-3.92573-5.418c-.11844-.2203-.222-.42044-.31465-.60742C65.872,177.17735,65.984,177.05719,66.15506,177.06386Zm49.48581,22.85653a30.29542,30.29542,0,0,0,12.453-4.75365l2.70557.77784a1.03257,1.03257,0,0,0,.30372.03675s2.51705-.13691,2.72574-.15366c.71681-.04324,1.03813.38063,1.0448.53086.0041.15024.02085.33722.02085.33722a1.03839,1.03839,0,0,1-.26287.73766,16.95935,16.95935,0,0,1-2.91836,1.02822,84.415,84.415,0,0,1-15.69864,1.46542C115.89041,199.92705,115.76513,199.92039,115.64087,199.92039Zm77.79348-51.30776a84.37619,84.37619,0,0,1-44.719,44.71491,82.73172,82.73172,0,0,1-12.07167,4.05254l-.09588-1.67256c0-1.008-1.14085-1.51208-1.765-1.51208l-3.61364.05675s-1.11162-.27039-1.246-.3138a.141.141,0,0,1-.07931-.2104.8615.8615,0,0,0,.02-1.07488l-2.75565-3.59518.08853-2.557a30.63483,30.63483,0,0,0,16.85351-5.30433,7.545,7.545,0,0,0,2.91768-6.03874c0-.13348-.00428-.22372-.00513-.26372l-.08341-7.18044c.02581-.01334.05265-.01658.07845-.02992l-.00085-.00342,7.67952-4.30959a.86534.86534,0,0,0,.43719-.82791l-5.04231-56.18139c.21963-.07331.93388-.32045,1.73837-.62075a15.99261,15.99261,0,0,0,2.628-1.17845c.55171-.38729,2.86418-2.33332,3.42256-2.91084a2.55841,2.55841,0,0,0,.66588-1.77922,5.09815,5.09815,0,0,0-.72434-2.3969A5.16888,5.16888,0,0,0,156.535,96.09a18.67739,18.67739,0,0,0,1.594-7.6737,38.146,38.146,0,0,0-2.21232-11.929c-1.09077-3.51416-2.13557-6.82647-2.13557-10.90568,0-7.5727.0793-12.06843.0793-12.07834a.866.866,0,0,0-.247-.61837.85518.85518,0,0,0-.61426-.25791,6.51363,6.51363,0,0,0-4.98642,1.76845,4.27937,4.27937,0,0,0-.80535,1.22512H131.67074a5.2195,5.2195,0,0,0-.82534-1.40047,6.01084,6.01084,0,0,0-4.88046-2.02534.86484.86484,0,0,0-.86209.86961c0,.01334.04837,5.71144.04666,13.70151.00428.62914-.02666,1.25007-.07913,1.86519-.31722-.50249-.6611-1.00327-1.025-1.48046a7.43043,7.43043,0,0,0-3.21883-2.72745c-1.125-.34285-2.79154-.86277-4.74509-1.4579a1.88545,1.88545,0,0,1-1.2152-.91627,2.12233,2.12233,0,0,1-.2186-.67426l.95216.01914h.04683a6.40068,6.40068,0,0,0,2.21574-.40062,2.276,2.276,0,0,0,1.38867-1.39944,3.357,3.357,0,0,0,.14186-.98737,4.40508,4.40508,0,0,0-.086-.84945l.40729-.71613a.85419.85419,0,0,0,.05093-.75031.8667.8667,0,0,0,.27107-.68673l-.06-.88465c.04171-.00753.08426-.015.12853-.02172a3.43582,3.43582,0,0,0,.817-.23944,1.53921,1.53921,0,0,0,.454-.30713,1.10943,1.10943,0,0,0,.32559-.772c-.00342-.23364-.05179-.78366-.12528-1.64813-.18527-2.1214-.52488-5.71828-.62914-6.83571a4.79468,4.79468,0,0,0,.9831-2.70557,3.517,3.517,0,0,0-.97643-2.52031,4.6317,4.6317,0,0,0-3.35077-1.17759c-.66674-.1769-4.14177-1.1-5.14828-1.25024a19.57494,19.57494,0,0,0-2.92759-.27945,11.6227,11.6227,0,0,0-7.3088,2.66883c-3.56527,2.80829-3.85737,7.838-3.88147,10.07454,0,.43155.01487.7662.02667.96224a7.34741,7.34741,0,0,0-.29962,2.28171,14.97986,14.97986,0,0,0,.20117,2.35007,5.88776,5.88776,0,0,0,2.94844,4.27695,7.42484,7.42484,0,0,0,1.6365.69511v1.63822a65.01241,65.01241,0,0,0-9.10323,5.0741,4.72167,4.72167,0,0,0-.746.63682.31855.31855,0,0,0-.02666.02l-46.429,46.9462a.86028.86028,0,0,0,.03264,1.24186c.0082.00666,3.19951,2.91084,6.74137,6.15223.88294.80791,1.78674,1.6324,2.66882,2.44356L47.477,136.098a6.32576,6.32576,0,0,0-1.17418,3.99905c.01094,3.56185,1.77426,8.973,7.1813,17.3953,6.169,9.58709,10.89407,14.01018,12.63569,15.46227L63.8725,175.535a23.81635,23.81635,0,0,0-1.53806,1.826,12.89511,12.89511,0,0,0-1.09487,1.65906c-.07521.1434-.14614.28372-.21194.42729q-2.28222-1.9779-4.44069-4.12946a83.98257,83.98257,0,1,1,136.84741-26.70534Z"/>
      <g>
        <path class="cls-1" d="M17.79489,123.1124a7.68937,7.68937,0,0,1,2.54115.02683,3.90089,3.90089,0,0,1,1.79511.86791,4.46171,4.46171,0,0,1,1.16512,1.72913,10.78192,10.78192,0,0,1,.62845,2.5938,9.64263,9.64263,0,0,1,.035,2.39673,4.74436,4.74436,0,0,1-.65511,1.94278,4.12744,4.12744,0,0,1-1.448,1.38543,9.98773,9.98773,0,0,1-2.09472.67426c-.14186.03008-.37225.06682-.51326.08682l-7.59847.99472a.32255.32255,0,0,0-.27206.2938l-.06426,1.1183a.333.333,0,0,1-.27458.297l-.33547.04016a.26074.26074,0,0,1-.29293-.22372L9.74245,132.219a.26437.26437,0,0,1,.22616-.29379l.33465-.04341a.33489.33489,0,0,1,.34049.21364l.34634,1.04821a.33078.33078,0,0,0,.34132.21364l8.50488-1.11162a3.30182,3.30182,0,0,0,2.34255-1.25519,3.88024,3.88024,0,0,0,.53906-2.89426,3.64015,3.64015,0,0,0-1.29519-2.64371,7.10115,7.10115,0,0,0-2.8141-.47736c-.14357,0-.37635.02-.51736.03675l-7.71956,1.01146a.31978.31978,0,0,0-.2729.29364l-.06592,1.115a.32818.32818,0,0,1-.27374.297l-.33465.04342a.26053.26053,0,0,1-.29209-.227l-.59919-4.58666a.26131.26131,0,0,1,.22282-.29379l.33549-.04341a.32731.32731,0,0,1,.34048.21364l.35051,1.06821a.33279.33279,0,0,0,.33883.21365Z"/>
        <path class="cls-1" d="M8.62083,111.21182a.55332.55332,0,0,1,.24367-.39054l10.73387-6.39595-8.98215-.66093a.33144.33144,0,0,0-.32883.23039l-.28958,1.0648a.32949.32949,0,0,1-.328.23039l-.33717-.02341a.26291.26291,0,0,1-.23951-.2803l.33383-4.41318a.262.262,0,0,1,.2804-.2403l.33632.02666a.327.327,0,0,1,.28874.27705l.126,1.115a.331.331,0,0,0,.28876.2803l12.72012.96481a.26344.26344,0,0,1,.24116.28047l-.09606,1.25178a.56431.56431,0,0,1-.2444.39379l-12.40051,7.27069,10.44935.791a.32374.32374,0,0,0,.328-.23021l.28953-1.06155a.32144.32144,0,0,1,.328-.23039l.33789.02341a.26033.26033,0,0,1,.24048.27705l-.3355,4.41643a.26475.26475,0,0,1-.27962.2403l-.33636-.02666a.3281.3281,0,0,1-.29038-.28047l-.12511-1.11488a.32675.32675,0,0,0-.288-.27705l-11.434-.8679a.32757.32757,0,0,0-.328.23364L9.23,115.16763a.32342.32342,0,0,1-.32714.23039l-.33631-.02342a.26052.26052,0,0,1-.24036-.28047Z"/>
        <path class="cls-1" d="M13.02809,87.39065a.32814.32814,0,0,1,.2386.32217l-.06,1.10155a.328.328,0,0,0,.23775.32559l11.12617,2.77735a.32787.32787,0,0,0,.36217-.17023l.464-1.00156a.32842.32842,0,0,1,.363-.17347l.32884.08169a.26181.26181,0,0,1,.18852.31551l-1.25007,5.01052a.25956.25956,0,0,1-.31465.187l-.3297-.0834a.32766.32766,0,0,1-.23774-.32389l.06-1.09829a.33208.33208,0,0,0-.23859-.32371L12.84025,91.5601a.32374.32374,0,0,0-.36131.17023l-.46574,1.00139a.33417.33417,0,0,1-.36217.17364l-.328-.08682a.253.253,0,0,1-.18945-.31038l1.25012-5.00727a.26057.26057,0,0,1,.31636-.19023Z"/>
        <path class="cls-1" d="M30.46168,78.94679a.41441.41441,0,0,1,.08426.4232l-.60333,1.41944a.39947.39947,0,0,1-.36234.22287l-13.50529-.913a.52961.52961,0,0,0-.4131.19194l-.49651.68109a.34472.34472,0,0,1-.3931.1092l-.31209-.13433a.2588.2588,0,0,1-.1369-.34046L16.176,76.25286a.26042.26042,0,0,1,.34046-.13674l.31209.13263a.33667.33667,0,0,1,.19279.35721l-.15946.86791a.23048.23048,0,0,0,.2121.277l10.84724.84037-7.96563-7.62277a.21835.21835,0,0,0-.3355.0376l-.59666.87714a.33069.33069,0,0,1-.38644.1152l-.31209-.1328a.26171.26171,0,0,1-.1369-.34217l1.66915-3.9206a.26194.26194,0,0,1,.34217-.13776l.31038.13366a.32665.32665,0,0,1,.18612.3555l-.21108,1.02137a.52451.52451,0,0,0,.13434.43482Z"/>
        <path class="cls-1" d="M57.59516,41.88475a5.885,5.885,0,0,0,1.01472-.38046,5.20118,5.20118,0,0,0,.85543-.49155,3.68175,3.68175,0,0,0,1.45379-1.851,2.11869,2.11869,0,0,0-.40814-1.92535,2.20757,2.20757,0,0,0-.95216-.77356,3.27867,3.27867,0,0,0-1.14342-.2203,6.09957,6.09957,0,0,0-1.25092.11006c-.4307.081-.86209.15195-1.28852.21621-.64845.086-1.23435.16442-1.76093.23193a5.812,5.812,0,0,1-1.44371.02255,3.09422,3.09422,0,0,1-1.206-.39139,3.50693,3.50693,0,0,1-1.05061-.99146,3.29655,3.29655,0,0,1-.65341-1.53892,3.39444,3.39444,0,0,1,.17348-1.603,5.23474,5.23474,0,0,1,.92977-1.59326,9.28433,9.28433,0,0,1,1.62232-1.503,7.60373,7.60373,0,0,1,.817-.52743c.303-.17519.61341-.33961.92977-.49907.31619-.15434.62914-.29961.94123-.42643.3114-.12853.59837-.21946.59837-.21946a.51067.51067,0,0,1,.3138-.0241,1.47715,1.47715,0,0,1,.19364.27859l1.08667,1.91373a.30636.30636,0,0,1-.08186.383l-.71528.5283a.35225.35225,0,0,1-.40883-.01265l-1.33279-1.11659a2.44759,2.44759,0,0,0-.82534.19194,4.53706,4.53706,0,0,0-1.03318.596,3.10372,3.10372,0,0,0-1.24682,1.64727,1.93156,1.93156,0,0,0,.36388,1.72846,2.13372,2.13372,0,0,0,.84124.72758,2.41973,2.41973,0,0,0,.9631.20287,4.98242,4.98242,0,0,0,1.06223-.11024q.54966-.11382,1.135-.2186.8073-.11024,1.68658-.26543a7.94347,7.94347,0,0,1,1.705-.115,4.54134,4.54134,0,0,1,1.55805.337,2.80569,2.80569,0,0,1,1.25519,1.08,4.24065,4.24065,0,0,1,.75852,1.92022,3.63649,3.63649,0,0,1-.24526,1.74589,5.1734,5.1734,0,0,1-1.07249,1.60813,13.39557,13.39557,0,0,1-1.72247,1.503,12.22531,12.22531,0,0,1-1.85938,1.13248c-.645.317-1.48627.65836-1.48627.65836-.13263.05264-.26782.07024-.297.035a1.82922,1.82922,0,0,1-.18784-.282l-1.09915-1.90195a.29883.29883,0,0,1,.07845-.3813l.71613-.53086a.34586.34586,0,0,1,.40814.01334Z"/>
        <path class="cls-1" d="M67.87411,20.74078a.33354.33354,0,0,1-.07759.39567l-.85714.69424a.33036.33036,0,0,0-.07759.39226l5.42875,10.10547a.33025.33025,0,0,0,.37139.14938l1.05318-.32952a.3301.3301,0,0,1,.37225.15261l.15929.29706a.26306.26306,0,0,1-.10511.354l-4.54666,2.4427a.26208.26208,0,0,1-.35294-.106l-.15946-.29875a.32527.32527,0,0,1,.07845-.39311L70.01481,33.9a.32443.32443,0,0,0,.08-.39311L64.66452,23.40721a.323.323,0,0,0-.37055-.15194l-1.05231.32645a.328.328,0,0,1-.37226-.14938l-.16031-.29808a.26258.26258,0,0,1,.10528-.35379l4.54649-2.44528a.26528.26528,0,0,1,.35311.10854Z"/>
        <path class="cls-1" d="M73.52146,17.44111a.54649.54649,0,0,1,.29961-.23878l10.61207-3.85974a.70478.70478,0,0,1,.36968-.04666.54589.54589,0,0,1,.22117.28286l.91456,2.27077a.24823.24823,0,0,1-.14767.32884l-.85372.31209a.35193.35193,0,0,1-.39139-.12768l-.7469-1.10581a.37566.37566,0,0,0-.39481-.14186l-1.11077.32884c-.13673.04016-.35875.11348-.49394.16185l-1.0783.39071,3.98333,10.96911a.32691.32691,0,0,0,.34712.20031l1.08821-.17348a.32788.32788,0,0,1,.34645.20356l.11673.31961a.25873.25873,0,0,1-.156.33208l-4.85038,1.76435a.26.26,0,0,1-.33379-.15691l-.1152-.31961a.32308.32308,0,0,1,.1328-.3748l.94806-.56744a.32707.32707,0,0,0,.13349-.37806l-3.99-10.96672-1.07573.39551c-.136.04854-.35294.13519-.48574.1945L75.74881,17.9a.37844.37844,0,0,0-.21278.36388l.13861,1.32527a.34982.34982,0,0,1-.21706.34884l-.85457.30884a.24953.24953,0,0,1-.32542-.15948l-.72947-2.24905A.77981.77981,0,0,1,73.52146,17.44111Z"/>
        <path class="cls-1" d="M99.50657,18.93661l-4.741.89627-.731,4.34293a.22041.22041,0,0,0,.21689.26287l.98225.01675a.33282.33282,0,0,1,.308.26286l.06427.33209a.26416.26416,0,0,1-.207.30389l-4.14928.78364a.263.263,0,0,1-.303-.2087l-.06256-.33378a.33329.33329,0,0,1,.19108-.35551l.84791-.36148a.54261.54261,0,0,0,.28953-.3555l2.61721-13.6381a.42056.42056,0,0,1,.30457-.30543l1.81852-.343a.39175.39175,0,0,1,.38388.17946l6.74889,11.85974a.50947.50947,0,0,0,.389.23278l.90037.03008a.33708.33708,0,0,1,.30884.26287l.06341.33294a.25931.25931,0,0,1-.20868.303l-4.74851.89885a.2655.2655,0,0,1-.30543-.20612l-.061-.33465a.336.336,0,0,1,.1904-.35808l.84944-.3613a.22964.22964,0,0,0,.1152-.32884ZM96.05992,12.6967l-1.08565,6.03293,3.99649-.75356Z"/>
        <path class="cls-1" d="M112.63723,21.85993a5.92852,5.92852,0,0,0,1.04326.29055,5.13817,5.13817,0,0,0,.98053.10749,3.64988,3.64988,0,0,0,2.26667-.63254,2.11853,2.11853,0,0,0,.8103-1.79255,2.194,2.194,0,0,0-.31209-1.18426,3.188,3.188,0,0,0-.792-.857,6.14547,6.14547,0,0,0-1.07573-.651c-.39379-.18869-.78518-.38558-1.16666-.58914q-.85988-.46456-1.5572-.85218a5.86348,5.86348,0,0,1-1.17845-.832,3.11375,3.11375,0,0,1-.74023-1.03146,3.52633,3.52633,0,0,1-.26287-1.41876,3.31879,3.31879,0,0,1,.38217-1.62813A3.399,3.399,0,0,1,112.124,9.598a5.09383,5.09383,0,0,1,1.69171-.73442,9.20224,9.20224,0,0,1,2.19659-.25535,8.70921,8.70921,0,0,1,.9713.05675c.34884.03845.696.09007,1.04326.14938q.52326.0915,1.01216.20868c.3273.0817.61341.17946.61341.17946a.53037.53037,0,0,1,.268.16442,1.70763,1.70763,0,0,1-.01008.34371l-.25535,2.18326a.30045.30045,0,0,1-.28953.2603l-.89046.00256a.34632.34632,0,0,1-.32217-.25038l-.41566-1.68915a2.48869,2.48869,0,0,0-.77937-.33465,4.60607,4.60607,0,0,0-1.18512-.12767,3.10261,3.10261,0,0,0-1.98039.5917,1.93588,1.93588,0,0,0-.72929,1.609,2.1741,2.1741,0,0,0,.25039,1.085,2.41475,2.41475,0,0,0,.65751.73187,4.96632,4.96632,0,0,0,.9214.53735c.34131.1569.69015.32217,1.04565.49839.47822.25534.98225.5165,1.51635.78193a7.82119,7.82119,0,0,1,1.44371.91217,4.5902,4.5902,0,0,1,1.05745,1.19418,2.804,2.804,0,0,1,.37379,1.61308,4.26411,4.26411,0,0,1-.52146,1.99628,3.642,3.642,0,0,1-1.22939,1.26442,5.15517,5.15517,0,0,1-1.81767.66332,13.20861,13.20861,0,0,1-2.27828.19126,11.743,11.743,0,0,1-2.1672-.18459c-.70861-.12511-1.589-.34542-1.589-.34542-.1369-.0376-.25705-.101-.262-.14613a2.24255,2.24255,0,0,1,.01744-.34132l.23791-2.18394a.2994.2994,0,0,1,.28782-.25876l.89046-.005a.35168.35168,0,0,1,.32388.25039Z"/>
        <path class="cls-1" d="M149.69177,27.66092a6.86283,6.86283,0,0,1-5.5272.22031,8.24392,8.24392,0,0,1-2.59789-1.3386,5.60073,5.60073,0,0,1-1.61155-1.98465,6.06243,6.06243,0,0,1-.57069-2.582,9.80537,9.80537,0,0,1,.53155-3.12874,9.945,9.945,0,0,1,1.4755-2.96348,6.30879,6.30879,0,0,1,2.058-1.805,5.79943,5.79943,0,0,1,2.53688-.67272,8.29235,8.29235,0,0,1,2.89921.4348,8.19267,8.19267,0,0,1,2.58628,1.33365,5.6104,5.6104,0,0,1,1.62984,2.00123,6.19134,6.19134,0,0,1,.58333,2.608,9.81265,9.81265,0,0,1-.53069,3.15952A7.69566,7.69566,0,0,1,149.69177,27.66092Zm1.28766-10.30407a3.59929,3.59929,0,0,0-2.49192-2.421,3.68313,3.68313,0,0,0-3.455.45224,7.94183,7.94183,0,0,0-2.49278,4.1151,8.33772,8.33772,0,0,0-.43976,4.86883,3.59138,3.59138,0,0,0,2.50116,2.42339,3.68374,3.68374,0,0,0,3.455-.449,7.95493,7.95493,0,0,0,2.49449-4.11835A8.29445,8.29445,0,0,0,150.97943,17.35685Z"/>
        <path class="cls-1" d="M158.09989,31.86866a5.90475,5.90475,0,0,0,.77356.75852,5.1006,5.1006,0,0,0,.80859.565,3.661,3.661,0,0,0,2.29094.535,2.11934,2.11934,0,0,0,1.57309-1.18255,2.19979,2.19979,0,0,0,.29705-1.19008,3.29532,3.29532,0,0,0-.28115-1.13077,6.20057,6.20057,0,0,0-.631-1.085c-.25791-.35721-.50488-.71442-.74194-1.07813-.35293-.54761-.67084-1.04821-.95472-1.4955a5.96275,5.96275,0,0,1-.63256-1.29946,3.11625,3.11625,0,0,1-.15348-1.2593,3.55024,3.55024,0,0,1,.4531-1.36953,3.30118,3.30118,0,0,1,1.11829-1.24254,3.37268,3.37268,0,0,1,1.52643-.52334,5.21237,5.21237,0,0,1,1.83767.17194,9.16574,9.16574,0,0,1,2.047.832,7.95734,7.95734,0,0,1,.82449.51667c.288.20031.5676.41464.8438.6317q.413.333.78689.67186c.248.22783.45155.45138.45155.45138.0952.106.16613.22784.1528.27467a1.37355,1.37355,0,0,1-.17108.29363l-1.2728,1.791a.309.309,0,0,1-.38131.09178l-.7804-.42814a.346.346,0,0,1-.16271-.3755l.44746-1.67993a2.43815,2.43815,0,0,0-.52078-.66689,4.6239,4.6239,0,0,0-.97814-.68349,3.11328,3.11328,0,0,0-2.02208-.43139,1.93727,1.93727,0,0,0-1.41209,1.05984,2.16314,2.16314,0,0,0-.302,1.06907,2.41563,2.41563,0,0,0,.2227.96054,5.32482,5.32482,0,0,0,.55.91558q.33791.44814.67768.93713.442.68092.95216,1.41209a7.93685,7.93685,0,0,1,.8279,1.49789,4.66328,4.66328,0,0,1,.35465,1.554,2.8235,2.8235,0,0,1-.44814,1.5965,4.30935,4.30935,0,0,1-1.41875,1.49961,3.67883,3.67883,0,0,1-1.68744.51411,5.097,5.097,0,0,1-1.91184-.29294,13.22162,13.22162,0,0,1-2.08977-.92465,11.995,11.995,0,0,1-1.81015-1.20426c-.56248-.45395-1.2258-1.06821-1.2258-1.06821-.10528-.10016-.17775-.21279-.16032-.25535a2.04215,2.04215,0,0,1,.17775-.28953l1.2593-1.80263a.30676.30676,0,0,1,.37977-.08768l.78108.42488a.34854.34854,0,0,1,.16271.37551Z"/>
        <path class="cls-1" d="M172.998,41.26809a.26.26,0,0,0,.04428.36643l1.76177,1.38185c.11264.08939.302.22868.42062.30713l.93542.64606a.37812.37812,0,0,0,.41822-.015l1.14667-.9255a.34284.34284,0,0,1,.40729-.00342l.716.56333a.24721.24721,0,0,1,.03845.35806l-1.52387,1.8093c-.09349.10768-.20869.23689-.25876.28287-.05179.04666-.18613.01162-.29791-.07589l-7.63354-5.98371a.26047.26047,0,0,1-.04341-.36644l.20783-.2644a.3271.3271,0,0,1,.39294-.086l.97985.50232a.33041.33041,0,0,0,.3931-.08512L178.178,30.656a.33185.33185,0,0,0-.01077-.40216l-.72365-.83287a.33188.33188,0,0,1-.01076-.40318l.20851-.262a.2624.2624,0,0,1,.36559-.04752l4.04588,3.17286a.26307.26307,0,0,1,.046.36558l-.21125.26543a.32665.32665,0,0,1-.39139.0858l-.98053-.50317a.328.328,0,0,0-.39311.086Z"/>
        <path class="cls-1" d="M189.9318,57.33385a6.85225,6.85225,0,0,1-4.86712-2.62969,8.21621,8.21621,0,0,1-1.554-2.47193,5.61318,5.61318,0,0,1-.37636-2.527,6.06024,6.06024,0,0,1,.82449-2.51449,11.07463,11.07463,0,0,1,4.83038-4.21851,6.29938,6.29938,0,0,1,2.69053-.50573,5.8392,5.8392,0,0,1,2.52782.7151,9.00455,9.00455,0,0,1,3.81891,4.313,5.65825,5.65825,0,0,1,.38216,2.55363,6.17271,6.17271,0,0,1-.82688,2.54286,9.83488,9.83488,0,0,1-2.06721,2.45023A7.71521,7.71521,0,0,1,189.9318,57.33385Zm6.35579-8.21106a3.58729,3.58729,0,0,0-.90961-3.3506,3.68486,3.68486,0,0,0-3.20139-1.37381A7.95948,7.95948,0,0,0,187.933,46.67a8.34459,8.34459,0,0,0-2.85666,3.96589,3.5865,3.5865,0,0,0,.91644,3.36154,3.68047,3.68047,0,0,0,3.20122,1.37279,7.94772,7.94772,0,0,0,4.24363-2.27162A8.2742,8.2742,0,0,0,196.28759,49.12279Z"/>
        <path class="cls-1" d="M202.15029,66.33112a.32152.32152,0,0,0,.06511-.39311l-1.55395-2.63977-5.11,3.08039,1.67086,2.81325c.07264.12186.19945.31874.27876.4372l.64093.93985a.36663.36663,0,0,0,.39379.13588l1.39619-.46318a.34388.34388,0,0,1,.37977.14442l.47566.79953a.2498.2498,0,0,1-.09674.348L198.616,72.67186c-.12511.06768-.2803.14442-.34456.16938-.06427.02427-.17621-.05743-.24868-.17929l-5.37115-9.04239a.25957.25957,0,0,1,.09263-.3555l.28953-.17433a.32471.32471,0,0,1,.39721.0617l.73185.82534a.3296.3296,0,0,0,.39652.061l9.86-5.856a.33092.33092,0,0,0,.1352-.37807l-.37465-1.03643a.33224.33224,0,0,1,.13605-.37805l.29124-.1728a.26067.26067,0,0,1,.35635.08922l5.12162,8.62091a.78112.78112,0,0,1,.1193.36473.50631.50631,0,0,1-.23278.2762l-2.0597,1.321a.24676.24676,0,0,1-.3514-.08426l-.46642-.78195a.33852.33852,0,0,1,.05674-.39975l1.11573-1.054a.36962.36962,0,0,0,.07179-.41054l-.53086-1.03147c-.06495-.127-.17929-.3314-.25279-.45413l-1.50557-2.551-4.51813,2.6972,1.5572,2.62626a.32071.32071,0,0,0,.3755.13263l1.03078-.38883a.32579.32579,0,0,1,.37636.13691l.39139.65682a.26449.26449,0,0,1-.09007.35875L201.839,68.3197a.26232.26232,0,0,1-.35806-.09007l-.39054-.65853a.32084.32084,0,0,1,.06512-.39293Z"/>
        <path class="cls-1" d="M33.18229,60.22144a.32264.32264,0,0,0-.38233.11589l-1.68317,2.5579,5.01975,3.2272L37.92243,63.381c.07759-.1193.1986-.32132.27038-.44575l.56077-.9872a.36264.36264,0,0,0-.05418-.41225l-1.02822-1.05146a.33628.33628,0,0,1-.0417-.40148l.50915-.78193a.25362.25362,0,0,1,.3555-.06853l1.93527,1.36287c.1169.08186.25278.187.30456.23363.05008.046.02667.18357-.05178.30389l-5.74152,8.811a.26277.26277,0,0,1-.35978.07349l-.28457-.18441a.32842.32842,0,0,1-.1193-.38217l.4172-1.02326a.32933.32933,0,0,0-.121-.383L24.8668,61.78275a.33358.33358,0,0,0-.39806.04512l-.76518.79355a.3312.3312,0,0,1-.40148.04342l-.28371-.18442a.26441.26441,0,0,1-.07521-.36131l5.47558-8.39719a.7836.7836,0,0,1,.27278-.26782.52006.52006,0,0,1,.35225.086l2.09541,1.26509a.2512.2512,0,0,1,.08016.35312l-.4965.76194a.34428.34428,0,0,1-.38644.12682l-1.4379-.535a.365.365,0,0,0-.39892.11844l-.69015.92806c-.086.11605-.21945.30714-.2979.42729l-1.62574,2.47689,4.41728,2.865,1.66983-2.5579a.32166.32166,0,0,0-.04751-.394l-.80279-.75527a.32519.32519,0,0,1-.04751-.3955l.41891-.64264a.26034.26034,0,0,1,.36046-.07588l3.24891,2.11558a.26147.26147,0,0,1,.07674.36046l-.41977.645a.31935.31935,0,0,1-.38131.112Z"/>
        <path class="cls-1" d="M215.8976,77.59983a.56887.56887,0,0,1-.06922.4565l-7.3206,10.13813,8.51734-2.9669a.33.33,0,0,0,.20869-.34388l-.1569-1.09147a.32674.32674,0,0,1,.20868-.34216l.32047-.10938a.25657.25657,0,0,1,.33037.161l1.44628,4.17954a.26579.26579,0,0,1-.16015.33465l-.31978.10683a.33011.33011,0,0,1-.37721-.13862l-.55649-.97643a.33072.33072,0,0,0-.37653-.13929l-12.05577,4.171a.26208.26208,0,0,1-.33123-.16015L204.795,89.6891a.56113.56113,0,0,1,.06837-.45822l8.49478-11.60763L203.448,81.054a.33379.33379,0,0,0-.20868.34388l.15774,1.09162a.32692.32692,0,0,1-.20954.34286l-.31961.10853a.25723.25723,0,0,1-.33123-.15775l-1.44627-4.18433a.2621.2621,0,0,1,.16014-.33208l.32047-.10682a.3201.3201,0,0,1,.374.13844l.55991.97387a.32938.32938,0,0,0,.37636.14116l10.83664-3.74968a.32629.32629,0,0,0,.20937-.34131l-.16271-1.10906a.32868.32868,0,0,1,.20783-.34388l.32046-.11349a.262.262,0,0,1,.3297.16271Z"/>
        <path class="cls-1" d="M208.37173,99.5317a6.14288,6.14288,0,0,0-.14425,1.07147,5.30194,5.30194,0,0,0,.02837.98805,3.66732,3.66732,0,0,0,.94037,2.15318,2.11273,2.11273,0,0,0,1.88946.55752,2.1723,2.1723,0,0,0,1.13077-.47736,3.2183,3.2183,0,0,0,.73783-.898,6.23849,6.23849,0,0,0,.4948-1.155c.1328-.4172.27295-.83115.42062-1.23844q.343-.91627.63016-1.65907a6.127,6.127,0,0,1,.66178-1.28527,3.17076,3.17076,0,0,1,.91969-.87457,3.599,3.599,0,0,1,1.37022-.454,3.31479,3.31479,0,0,1,1.66488.15348,3.41582,3.41582,0,0,1,1.33039.91132,5.20787,5.20787,0,0,1,.95968,1.57566,9.05115,9.05115,0,0,1,.55667,2.14309,8.015,8.015,0,0,1,.0776.96481c.00923.35037.00923.70092-.00342,1.05488-.01077.35379-.035.69767-.06837,1.03147-.035.337-.09263.63425-.09263.63425a.48068.48068,0,0,1-.126.287,1.35175,1.35175,0,0,1-.33892.03674l-2.199.05008a.30239.30239,0,0,1-.2979-.25364l-.126-.878a.35368.35368,0,0,1,.20527-.35721l1.61394-.64418a2.42068,2.42068,0,0,0,.22373-.81458,4.5841,4.5841,0,0,0-.0376-1.195,3.114,3.114,0,0,0-.85867-1.87937,1.93725,1.93725,0,0,0-1.695-.49736,2.17163,2.17163,0,0,0-1.0383.3972,2.42933,2.42933,0,0,0-.63581.751,5.06445,5.06445,0,0,0-.40557.98823c-.10683.357-.22288.72757-.34645,1.10154q-.28405.766-.56419,1.609a8.03959,8.03959,0,0,1-.70673,1.5589,4.61055,4.61055,0,0,1-1.03488,1.21179,2.80228,2.80228,0,0,1-1.54728.59425,4.22532,4.22532,0,0,1-2.04961-.24046,3.6728,3.6728,0,0,1-1.42115-1.04481,5.10427,5.10427,0,0,1-.90721-1.70914,13.08175,13.08175,0,0,1-.50659-2.22649,12.03918,12.03918,0,0,1-.11674-2.17318c.02666-.72108.12512-1.61907.12512-1.61907.015-.14356.0634-.27363.10767-.28371a2.37324,2.37324,0,0,1,.3396-.03008l2.19574-.06341a.2952.2952,0,0,1,.29705.247l.12681.88139a.35171.35171,0,0,1-.2027.35721Z"/>
        <path class="cls-1" d="M222.13836,118.84963a.32612.32612,0,0,1-.31038-.25381l-.21535-1.08479a.33275.33275,0,0,0-.30884-.25382l-11.46732.05009a.32949.32949,0,0,0-.31055.25705l-.20271,1.085a.32771.32771,0,0,1-.30884.257l-.33721.00325a.26287.26287,0,0,1-.26287-.2603l-.02256-5.16077a.26358.26358,0,0,1,.25962-.26371h.33807a.32958.32958,0,0,1,.31123.25364l.21364,1.085a.32472.32472,0,0,0,.31039.25039l11.46748-.04684a.32656.32656,0,0,0,.308-.257l.20185-1.0848a.32808.32808,0,0,1,.31055-.25705l.337-.00342a.26177.26177,0,0,1,.26219.26047l.0241,5.16076a.26055.26055,0,0,1-.26031.2603Z"/>
        <path class="cls-1" d="M209.01608,127.58232a6.05724,6.05724,0,0,0-.45395.98464,5.20591,5.20591,0,0,0-.263.95148,3.66106,3.66106,0,0,0,.26543,2.33673,2.11552,2.11552,0,0,0,1.64078,1.0848,2.16241,2.16241,0,0,0,1.22085-.12016,3.2525,3.2525,0,0,0,.96976-.64092,6.25335,6.25335,0,0,0,.81287-.958c.24868-.36386.504-.71442.766-1.06154q.59838-.77116,1.08992-1.402a5.95,5.95,0,0,1,1.01147-1.02822,3.0422,3.0422,0,0,1,1.135-.56744,3.4893,3.4893,0,0,1,1.44287-.03349,3.30309,3.30309,0,0,1,1.54642.63426,3.43692,3.43692,0,0,1,1.004,1.26528,5.23585,5.23585,0,0,1,.45412,1.78913,9.09767,9.09767,0,0,1-.09947,2.20667,8.331,8.331,0,0,1-.20937.95131c-.09349.34046-.1986.67426-.31294,1.00481-.11434.33721-.23877.65425-.36969.96805-.13109.31038-.2738.57411-.2738.57411-.066.12681-.1593.23364-.20527.24047a1.67564,1.67564,0,0,1-.33551-.06359L217.737,136.098a.30329.30329,0,0,1-.21023-.32713l.13844-.88124a.35488.35488,0,0,1,.30132-.27722l1.73171-.14015a2.47251,2.47251,0,0,0,.4531-.71442,4.62986,4.62986,0,0,0,.3155-1.15162,3.09654,3.09654,0,0,0-.26868-2.0496,1.92815,1.92815,0,0,0-1.47379-.97473,2.14016,2.14016,0,0,0-1.10838.07349,2.39081,2.39081,0,0,0-.82859.5307,5.12135,5.12135,0,0,0-.67768.82449c-.207.31055-.42728.631-.65852.95472-.328.43071-.66675.88789-1.01148,1.37193a7.90735,7.90735,0,0,1-1.13248,1.28186,4.62807,4.62807,0,0,1-1.34611.85132,2.81008,2.81008,0,0,1-1.65241.11349,4.3331,4.3331,0,0,1-1.8886-.83116,3.71,3.71,0,0,1-1.05232-1.41876,5.14845,5.14845,0,0,1-.36473-1.89937,13.334,13.334,0,0,1,.17194-2.28,12.04145,12.04145,0,0,1,.5283-2.10976c.23706-.67767.5958-1.51224.5958-1.51224.05606-.13349.13948-.23689.18613-.23689a2.22576,2.22576,0,0,1,.3338.07007l2.11814.58418a.29863.29863,0,0,1,.21022.32714l-.13759.878a.3501.3501,0,0,1-.29961.2803Z"/>
      </g>
      <g>
        <path class="cls-1" d="M54.26439,201.42922a.31933.31933,0,0,0,.38148-.10683l5.90354-8.4823-10.99183,6.22572a.41588.41588,0,0,1-.42968-.03674l-.43908-.35721a.44352.44352,0,0,1-.136-.4172l3.18054-11.87051-6.67386,7.27052a.31357.31357,0,0,0-.03264.39379l.6693.90806a.33.33,0,0,1-.02325.40387l-.22783.24373a.25719.25719,0,0,1-.36815.00991L41.823,192.583a.26054.26054,0,0,1-.01419-.36712l.23125-.24715a.33442.33442,0,0,1,.39806-.05332l.938.5941a.34763.34763,0,0,0,.40387-.04667l7.54842-8.37547a.31174.31174,0,0,0,.00428-.394l-.71443-.84791a.33407.33407,0,0,1-.0041-.40387l.21279-.2603a.2629.2629,0,0,1,.36712-.03674l3.40325,2.764a.44565.44565,0,0,1,.136.4172l-2.70558,10.4485,9.31431-5.0741a.41622.41622,0,0,1,.42985.04016l3.26139,2.65053a.2596.2596,0,0,1,.03845.36389l-.21364.26372a.33008.33008,0,0,1-.39225.08l-.97728-.52744a.31142.31142,0,0,0-.38559.08358l-6.4368,9.14989a.34606.34606,0,0,0,.03179.40729l.75681.81116a.328.328,0,0,1,.02256.40044l-.1986.2704a.26018.26018,0,0,1-.363.05691l-4.18518-3.06791a.25757.25757,0,0,1-.0552-.36046l.1986-.2738a.32945.32945,0,0,1,.389-.10016Z"/>
        <path class="cls-1" d="M78.8868,200.69822a13.32251,13.32251,0,0,1,2.648,1.74247,6.56956,6.56956,0,0,1,1.70419,2.1665,5.47648,5.47648,0,0,1,.50642,2.66387,8.06127,8.06127,0,0,1-.97131,3.22789,8.55342,8.55342,0,0,1-1.97953,2.63054,5.93162,5.93162,0,0,1-2.46612,1.30852,6.88607,6.88607,0,0,1-2.83495.06341,18.24241,18.24241,0,0,1-2.85324-.97473c-.132-.05675-.34217-.15348-.47241-.2203l-4.963-2.54031a.26176.26176,0,0,1-.11348-.35054l.15279-.297a.32525.32525,0,0,1,.368-.16031l1.06565.31054a.324.324,0,0,0,.36884-.15689l5.20673-10.18478a.332.332,0,0,0-.08751-.394l-.87474-.68092a.326.326,0,0,1-.08751-.39054l.15348-.30047a.26051.26051,0,0,1,.34969-.11348Zm2.33076,6.03532a4.81274,4.81274,0,0,0-.05418-2.14651,3.95615,3.95615,0,0,0-1.01147-1.71906,11.63487,11.63487,0,0,0-1.7259-1.24186c-.1234-.07674-.32713-.18682-.45565-.25039l-1.301-.67426-5.5272,10.81238,1.24016.64093a12.88779,12.88779,0,0,0,1.73255.73766,3.97,3.97,0,0,0,4.01666-.70758,7.788,7.788,0,0,0,2.16394-2.79411A10.5613,10.5613,0,0,0,81.21756,206.73354Z"/>
        <path class="cls-1" d="M103.34308,210.76608c-.03179-.48077-.01675-.56418-.03179-.90464-.02-.41737-.15348-.57427-.57256-.84466a4.06843,4.06843,0,0,0-.54231-.27363,4.42441,4.42441,0,0,0-1.04822-.31722,4.93406,4.93406,0,0,0-2.00636.02017,3.89631,3.89631,0,0,0-1.68812.84449,5.33709,5.33709,0,0,0-1.287,1.68247,9.23385,9.23385,0,0,0-.80108,2.52031,7.12012,7.12012,0,0,0,.44387,4.85037,4.73259,4.73259,0,0,0,3.49434,2.18975,7.22857,7.22857,0,0,0,1.57719.10358c.48574-.02,1.04326-.08683,1.67907-.167.33225-.04.36387.20031.36387.20031l.035.26031a.38667.38667,0,0,1-.21775.39737,8.76373,8.76373,0,0,1-1.9127.4572,8.67652,8.67652,0,0,1-2.71565-.09674,9.10317,9.10317,0,0,1-2.57619-.86124,5.64115,5.64115,0,0,1-1.91868-1.61565,5.87039,5.87039,0,0,1-1.03728-2.45022,9.17218,9.17218,0,0,1,.07007-3.36821,8.98445,8.98445,0,0,1,1.18341-3.24805,6.432,6.432,0,0,1,2.007-2.02961,6.52919,6.52919,0,0,1,2.64045-.9214,10.08483,10.08483,0,0,1,3.09953.10682,10.19879,10.19879,0,0,1,2.04294.58761q.64707.27047,1.22169.55085a.60877.60877,0,0,1,.38986.711l-.56675,1.87937s-.136.41053-.49976.35054c-.323-.05674-.51753-.09349-.51753-.09349S103.3747,211.2467,103.34308,210.76608Z"/>
        <path class="cls-1" d="M125.13618,211.25336c-.14425-.45719-.14852-.544-.24355-.87115-.11947-.39721-.28628-.52077-.75783-.68109a3.842,3.842,0,0,0-.59171-.1434,4.45253,4.45253,0,0,0-1.09317-.05691,4.8904,4.8904,0,0,0-1.94534.49411,4.00766,4.00766,0,0,0-1.43961,1.21845,5.284,5.284,0,0,0-.85047,1.94278,9.14469,9.14469,0,0,0-.18271,2.63721,7.1243,7.1243,0,0,0,1.57976,4.61007,4.75417,4.75417,0,0,0,3.91325,1.29843,7.22576,7.22576,0,0,0,1.55635-.27705c.46659-.13024.99233-.33038,1.59223-.56077.31141-.11691.40234.11349.40234.11349l.09434.24372a.38878.38878,0,0,1-.1169.43719,8.67054,8.67054,0,0,1-4.413,1.44543,8.987,8.987,0,0,1-2.70728-.227,5.64148,5.64148,0,0,1-2.24581-1.11488,5.92876,5.92876,0,0,1-1.58557-2.12976,9.21906,9.21906,0,0,1-.73186-3.29488,8.96423,8.96423,0,0,1,.383-3.43487,6.36912,6.36912,0,0,1,1.46884-2.447,6.54287,6.54287,0,0,1,2.3475-1.51875,9.974,9.974,0,0,1,3.03612-.631,9.8331,9.8331,0,0,1,2.12378.08682c.4625.0735.90226.15365,1.31707.24373a.612.612,0,0,1,.54829.60093l-.10768,1.95936s-.03264.434-.40062.45737c-.32884.02341-.52488.02666-.52488.02666S125.28231,211.71073,125.13618,211.25336Z"/>
        <path class="cls-1" d="M146.3921,206.76687c-.23877-.42063-.26048-.50061-.42148-.79783-.20116-.37054-.39054-.45053-.88209-.51069a3.67852,3.67852,0,0,0-.61016-.01675,4.52808,4.52808,0,0,0-1.08154.17365,4.93279,4.93279,0,0,0-1.79683.89131,3.94672,3.94672,0,0,0-1.15162,1.49208,5.29455,5.29455,0,0,0-.42472,2.07644,9.174,9.174,0,0,0,.37465,2.62046,7.119,7.119,0,0,0,2.51038,4.1727,4.75134,4.75134,0,0,0,4.10007.45069,7.39309,7.39309,0,0,0,1.4637-.59426c.42814-.23039.90141-.53411,1.43876-.88123.28047-.18357.41737.02341.41737.02341l.14272.22031a.38553.38553,0,0,1-.02256.45053,8.7168,8.7168,0,0,1-1.523,1.24186,8.51627,8.51627,0,0,1-2.487,1.0983,8.98934,8.98934,0,0,1-2.69481.34046,5.56925,5.56925,0,0,1-2.43091-.61427,5.93928,5.93928,0,0,1-1.998-1.75255,9.13923,9.13923,0,0,1-1.40372-3.06432,8.95744,8.95744,0,0,1-.34883-3.4417,6.37016,6.37016,0,0,1,.92311-2.6972,6.54086,6.54086,0,0,1,1.97525-1.98295,10.20494,10.20494,0,0,1,2.83837-1.25177,9.89851,9.89851,0,0,1,2.093-.35721c.46813-.02666.91542-.04,1.34031-.03675a.60818.60818,0,0,1,.66178.46745l.30628,1.93937s.05674.4307-.297.5341c-.31551.09024-.50574.1369-.50574.1369S146.63069,207.18424,146.3921,206.76687Z"/>
        <path class="cls-1" d="M164.08189,203.2985l-6.31255-2.86076a.80644.80644,0,0,0-.48574-.03333l-.94806.29381a.34067.34067,0,0,1-.37891-.147l-.16511-.2938a.26333.26333,0,0,1,.09674-.357l4.54324-2.58388a.26365.26365,0,0,1,.35636.09349l.16527.29722a.34223.34223,0,0,1-.06255.40045l-.56419.51753a.16279.16279,0,0,0,.04341.287l4.49812,2.13985.55411-5.02061a.15843.15843,0,0,0-.21946-.18356l-.786.247a.33408.33408,0,0,1-.37806-.14681l-.16528-.29056a.26152.26152,0,0,1,.09588-.357l3.59774-2.04977a.26214.26214,0,0,1,.35465.09691l.16613.2938a.339.339,0,0,1-.06511.40045l-.82125.72109a.75591.75591,0,0,0-.22356.4307l-.69767,6.38586,6.99347,3.25473a.78221.78221,0,0,0,.48574.03008l.96634-.30047a.33714.33714,0,0,1,.37636.14681l.16613.29381a.25822.25822,0,0,1-.09777.35379l-4.559,2.60046a.263.263,0,0,1-.35482-.10015l-.16681-.29039a.33511.33511,0,0,1,.06512-.40062l.61256-.55086a.162.162,0,0,0-.041-.287l-5.25254-2.51706-.63836,5.87518a.15862.15862,0,0,0,.2186.18356l.75031-.227a.34056.34056,0,0,1,.37874.147l.167.29363a.26159.26159,0,0,1-.0976.354l-3.61534,2.05968a.26218.26218,0,0,1-.35465-.09691l-.16613-.29038a.33871.33871,0,0,1,.06512-.40062l.8221-.72433a.78036.78036,0,0,0,.22612-.42729Z"/>
        <path class="cls-1" d="M179.72532,184.10416a.33071.33071,0,0,1,.01333.40045l-.68092.878a.33428.33428,0,0,0,.01418.40388l7.565,8.57579a.32953.32953,0,0,0,.39737.0634l.95387-.564a.32236.32236,0,0,1,.3955.06341l.22373.25038a.26245.26245,0,0,1-.02256.36713l-3.88984,3.43162a.26132.26132,0,0,1-.36883-.02342l-.222-.25022a.32709.32709,0,0,1-.01248-.40062l.68007-.878a.33313.33313,0,0,0-.01333-.40387l-7.56518-8.57579a.3282.3282,0,0,0-.39635-.06341l-.95472.56419a.3294.3294,0,0,1-.39721-.06341l-.22372-.25039a.26234.26234,0,0,1,.02341-.3673l3.8907-3.43161a.26044.26044,0,0,1,.368.02342Z"/>
      </g>
      <path class="cls-1" d="M50.7227,49.70031a.53692.53692,0,0,0,.43481-.14271l2.16309-2.27077a.26238.26238,0,0,0-.01009-.36883l-.24372-.233a.33415.33415,0,0,0-.403-.03247l-.82364.5724a.73861.73861,0,0,1-.4707.10768l-6.45611-1.04976a.18731.18731,0,0,1-.14767-.27791A8.26482,8.26482,0,0,0,45.525,43.4146a3.46408,3.46408,0,0,0-1.18922-2.416,3.127,3.127,0,0,0-1.64231-.90141,3.21585,3.21585,0,0,0-1.61566.17194,5.37988,5.37988,0,0,0-1.51891.88209c-.48728.39225-1.17743,1.07249-1.17743,1.07249-.101.10015-.26714.267-.36558.37054L34.21786,46.584a.26228.26228,0,0,0,.00923.36815l.24458.23363a.33023.33023,0,0,0,.4013.02924l.91217-.65512a.32893.32893,0,0,1,.39977.02666l8.30694,7.9065a.33179.33179,0,0,1,.04854.398l-.6093.94311a.32762.32762,0,0,0,.04683.3996l.24526.23466a.26321.26321,0,0,0,.36815-.01008l3.55843-3.7396a.26219.26219,0,0,0-.00837-.368l-.24612-.23534a.32982.32982,0,0,0-.40062-.026l-.89628.64024a.32807.32807,0,0,1-.40148-.02837l-3.82728-3.642.56675-.59666a.53733.53733,0,0,1,.43652-.13947Zm-8.82618-1.45123a2.30909,2.30909,0,0,1-.17279.16937l-4.12929-3.90574.73938-.766c.0993-.106.26372-.27209.36644-.37139a9.57744,9.57744,0,0,1,.76774-.67511,2.54523,2.54523,0,0,1,.97148-.45737,1.95935,1.95935,0,0,1,1.02224.06922,3.03822,3.03822,0,0,1,1.08821.71186A3.00677,3.00677,0,0,1,43.71334,45.303a5.70017,5.70017,0,0,1-.9831,2.02209,4.65176,4.65176,0,0,1-.33294.39823Z"/>
    </g>
  </g>
  <g id="Outline">
    <g>
      <path class="cls-1" d="M285.98764,57.22677V56.00313h22.77783v1.22364c-6.59521.81591-6.73144,1.63183-6.73144,8.77148v19.6499c0,10.67481,3.60351,16.65821,12.85058,16.65821,9.99512,0,13.395-7.00342,13.59864-17.20215V65.92989c0-7.00293-.13574-7.88721-6.731-8.70312V56.00313h16.6582v1.22364c-6.59521.81591-6.73144,1.70019-6.73144,8.70312V84.968c0,14.75488-6.86719,21.21386-19.03809,21.21386-13.53076,0-19.92187-7.00293-19.92187-19.582V65.99825C292.71909,58.99483,292.58286,58.04268,285.98764,57.22677Z"/>
      <path class="cls-1" d="M376.35629,57.22677V56.00313H393.0145v1.22364c-6.59522.81591-6.73145,1.70019-6.73145,8.70312v39.36817h-5.71142L351.60678,67.8337V95.3713c0,7.00293.13574,7.88672,6.731,8.70312v1.22364h-16.6582v-1.22364c6.5957-.8164,6.73144-1.70019,6.73144-8.70312V63.68624l-1.15576-1.49561c-2.37988-3.12793-3.67187-4.41992-5.57568-5.168V56.00313h12.647l28.76123,36.98828V65.92989C383.08774,58.927,382.95151,58.04268,376.35629,57.22677Z"/>
      <path class="cls-1" d="M413.21372,95.3713c0,7.00293.13574,7.88672,6.73144,8.70312v1.22364H397.16733v-1.22364c6.59521-.8164,6.73144-1.70019,6.73144-8.70312V65.92989c0-7.00293-.13623-7.88721-6.73144-8.70312V56.00313h22.77783v1.22364c-6.5957.81591-6.73144,1.70019-6.73144,8.70312Z"/>
      <path class="cls-1" d="M430.41831,63.89034c-1.90381-4.96338-2.71973-6.11963-6.93506-6.66357V56.00313H444.493v1.22364c-4.28369.54394-5.57568,1.76806-4.35156,5.16748l11.96631,32.70459,8.29492-24.00147c4.41992-12.78271,2.51563-13.32666-2.71875-13.8706V56.00313H473.39v1.22364c-4.55567.54394-5.23536,1.42773-8.77051,11.55908l-12.85156,36.51221h-5.50733Z"/>
      <path class="cls-1" d="M502.15561,105.29806H476.93v-1.22364c6.59571-.8164,6.73145-1.70019,6.73145-8.70312V65.92989c0-7.00293-.13574-7.88721-6.73145-8.70312V56.00313H501.475c4.6914,0,10.74414,0,16.04687-.2041l1.63184,16.25049h-1.36035c-3.39844-11.49072-8.02246-13.59863-21.21289-13.59863H492.9769V78.37276H500.932c3.875,0,6.32226-1.90381,7.00293-7.61523h1.22363V88.9797h-1.22363c-.68067-5.71143-3.12793-7.61524-7.00293-7.61524H492.9769V99.99434c0,2.37989.47559,2.92383,3.4668,2.92383h2.584c12.375,0,16.72656-2.7876,20.39844-13.80273h1.291l-2.71875,16.25049C512.55893,105.29806,506.98276,105.29806,502.15561,105.29806Z"/>
      <path class="cls-1" d="M527.04526,104.07442c6.5957-.8164,6.73144-1.70019,6.73144-8.70312V65.92989c0-7.00293-.13574-7.88721-6.73144-8.70312V56.00313h8.70312c3.332,0,10.19922-.06836,12.30664-.06836,12.57813,0,22.30176,3.39991,22.30176,12.98682,0,6.59522-4.96386,10.47119-12.30664,12.23877L568.5892,97.47872c3.12793,4.82764,4.14747,6.05176,8.90723,6.5957v1.22364H562.266c-1.292-2.51563-3.40039-6.25538-5.64355-9.92676l-2.92383-4.55567c-2.85645-4.48779-4.35156-6.79931-5.71191-8.63525h-4.89454V95.3713c0,7.00293.13477,7.88672,7.41016,8.70312v1.22364h-23.457ZM547.64682,58.383h-4.55469V79.73263h4.55469c7.82031,0,12.375-2.71973,12.375-10.67481S555.46713,58.383,547.64682,58.383Z"/>
      <path class="cls-1" d="M582.805,102.51046V85.92013h1.35938c1.9043,12.64648,6.93555,17.74609,15.02637,17.74609,5.9834,0,10.94629-2.92383,10.94629-9.043,0-4.62353-3.6709-7.00342-9.11036-9.58691l-6.05175-2.856c-7.207-3.3999-11.7627-7.88721-11.7627-14.48242,0-7.81934,7.41113-13.25879,16.93067-13.25879,4.89453,0,11.2871,1.35986,14.61816,3.3999V71.77755h-1.36035c-1.90332-9.72315-6.59473-14.82276-13.32617-14.82276-5.50782,0-9.38282,2.584-9.38282,7.34327,0,4.6914,3.19532,6.86718,6.79883,8.56738l7.207,3.39941c7.54785,3.53565,13.19141,7.27539,13.19141,14.68653,0,8.90722-8.5,15.23046-18.69824,15.23046A35.614,35.614,0,0,1,582.805,102.51046Z"/>
      <path class="cls-1" d="M640.39877,95.3713c0,7.00293.13477,7.88672,6.73047,8.70312v1.22364H624.3519v-1.22364c6.5957-.8164,6.73145-1.70019,6.73145-8.70312V65.92989c0-7.00293-.13575-7.88721-6.73145-8.70312V56.00313h22.77734v1.22364c-6.5957.81591-6.73047,1.70019-6.73047,8.70312Z"/>
      <path class="cls-1" d="M664.81088,104.07442c7.207-.8164,7.47852-1.90429,7.47852-8.70312V58.24679h-1.69922c-9.51953,0-13.53125,4.82763-16.92969,15.70654h-1.36132l2.041-18.1543c5.23438.2041,11.55859.2041,16.25.2041h12.64649c4.6914,0,11.01562,0,16.31835-.2041l2.04,18.1543h-1.42871c-3.33105-10.87891-7.34179-15.70654-16.86133-15.70654h-1.70019V95.3713c0,6.79883.27246,7.88672,7.47949,8.70312v1.22364H664.81088Z"/>
      <path class="cls-1" d="M731.99252,105.29806H706.76694v-1.22364c6.59473-.8164,6.73144-1.70019,6.73144-8.70312V65.92989c0-7.00293-.13671-7.88721-6.73144-8.70312V56.00313h24.5459c4.6914,0,10.74218,0,16.0459-.2041l1.63183,16.25049H747.6312c-3.40039-11.49072-8.02344-13.59863-21.21485-13.59863h-3.60351V78.37276h7.95508c3.87695,0,6.32421-1.90381,7.0039-7.61523h1.22461V88.9797h-1.22461c-.67969-5.71143-3.127-7.61524-7.0039-7.61524h-7.95508V99.99434c0,2.37989.47656,2.92383,3.46875,2.92383h2.583c12.375,0,16.72656-2.7876,20.39746-13.80273h1.293l-2.7207,16.25049C742.39487,105.29806,736.82065,105.29806,731.99252,105.29806Z"/>
      <path class="cls-1" d="M768.98471,104.07442c7.207-.8164,7.47949-1.90429,7.47949-8.70312V58.24679H774.764c-9.51856,0-13.53027,4.82763-16.92969,15.70654H756.475L758.514,55.799c5.23535.2041,11.55859.2041,16.25.2041h12.64648c4.69141,0,11.01563,0,16.31836-.2041l2.041,18.1543h-1.42774c-3.332-10.87891-7.34375-15.70654-16.86328-15.70654h-1.69922V95.3713c0,6.79883.27149,7.88672,7.47852,8.70312v1.22364H768.98471Z"/>
      <path class="cls-1" d="M836.16733,105.29806H810.94174v-1.22364c6.59571-.8164,6.73145-1.70019,6.73145-8.70312V65.92989c0-7.00293-.13574-7.88721-6.73145-8.70312V56.00313h24.54493c4.6914,0,10.74414,0,16.04687-.2041l1.63184,16.25049H851.805c-3.39843-11.49072-8.02246-13.59863-21.21289-13.59863h-3.60351V78.37276h7.95508c3.875,0,6.32226-1.90381,7.00293-7.61523h1.22363V88.9797h-1.22363c-.68067-5.71143-3.12793-7.61524-7.00293-7.61524h-7.95508V99.99434c0,2.37989.47558,2.92383,3.4668,2.92383h2.584c12.375,0,16.72656-2.7876,20.39844-13.80273h1.291l-2.71875,16.25049C846.57065,105.29806,840.99448,105.29806,836.16733,105.29806Z"/>
      <path class="cls-1" d="M873.16049,104.07442c7.207-.8164,7.47852-1.90429,7.47852-8.70312V58.24679h-1.69922c-9.51953,0-13.53125,4.82763-16.93164,15.70654h-1.35938l2.04-18.1543c5.23536.2041,11.55957.2041,16.251.2041h12.64648c4.69141,0,11.01465,0,16.31836-.2041l2.03907,18.1543H908.516c-3.332-10.87891-7.34375-15.70654-16.86133-15.70654h-1.70117V95.3713c0,6.79883.27246,7.88672,7.48047,8.70312v1.22364H873.16049Z"/>
      <path class="cls-1" d="M303.326,166.37081c0,7.00293.13574,7.88672,6.73145,8.70312v1.22364H287.27963v-1.22364c6.59522-.8164,6.73145-1.70019,6.73145-8.70312V136.9294c0-7.00293-.13623-7.88672-6.73145-8.70312v-1.22363h22.77784v1.22363c-6.59571.8164-6.73145,1.70019-6.73145,8.70312Z"/>
      <path class="cls-1" d="M360.1727,125.64327c13.32666,0,25.90527,8.97461,25.90527,25.76855,0,16.79493-12.57861,25.76954-25.90527,25.76954s-25.90527-8.97461-25.90527-25.76954C334.26743,134.61788,346.846,125.64327,360.1727,125.64327Zm0,2.51563c-9.3833,0-15.50244,8.90722-15.50244,23.25292,0,14.34668,6.11914,23.25391,15.50244,23.25391,9.38281,0,15.50244-8.90723,15.50244-23.25391C375.67514,137.06612,369.55551,128.1589,360.1727,128.1589Z"/>
      <path class="cls-1" d="M395.1268,173.51046V156.91964h1.35987c1.9038,12.64648,6.935,17.74609,15.02636,17.74609,5.9834,0,10.94678-2.92383,10.94678-9.043,0-4.623-3.67139-7.00293-9.11084-9.58691l-6.05127-2.85547c-7.20752-3.40039-11.76318-7.8877-11.76318-14.48242,0-7.81934,7.41162-13.25879,16.93017-13.25879,4.89551,0,11.28711,1.35937,14.61866,3.39941v13.93848h-1.35987c-1.90381-9.72266-6.59521-14.82227-13.32666-14.82227-5.50732,0-9.38281,2.584-9.38281,7.34278,0,4.6914,3.1958,6.86718,6.79932,8.56738l7.207,3.39941c7.54736,3.53614,13.19091,7.27539,13.19091,14.68653,0,8.90722-8.49951,15.23047-18.69824,15.23047A35.62119,35.62119,0,0,1,395.1268,173.51046Z"/>
      <path class="cls-1" d="M436.67465,175.07393c6.59522-.8164,6.73145-1.70019,6.73145-8.70312V136.9294c0-7.00293-.13623-7.88672-6.73145-8.70312v-1.22363h22.77784v1.22363c-6.59473.8164-6.73145,1.70019-6.73145,8.70312v34.20117c0,2.24317.67969,2.78711,2.78711,2.78711h2.1084c12.30664,0,15.57031-2.99121,19.24219-14.61816h1.36035l-2.17578,17.06641c-3.26368-.06836-11.21875-.06836-13.93946-.06836h-25.4292Z"/>
      <path class="cls-1" d="M509.15854,125.64327c13.32617,0,25.90527,8.97461,25.90527,25.76855,0,16.79493-12.5791,25.76954-25.90527,25.76954s-25.90625-8.97461-25.90625-25.76954C483.25229,134.61788,495.83237,125.64327,509.15854,125.64327Zm0,2.51563c-9.38281,0-15.502,8.90722-15.502,23.25292,0,14.34668,6.11914,23.25391,15.502,23.25391s15.50195-8.90723,15.50195-23.25391C524.66049,137.06612,518.54135,128.1589,509.15854,128.1589Z"/>
    </g>
  </g>
</svg>
