<?xml version="1.0" encoding="UTF-8"?>
<svg xmlns="http://www.w3.org/2000/svg" width="467.49121" height="122.74268" viewBox="0 0 467.49121 122.74268">
  <defs>
    <style>
      .cls-1 {
        fill: #fff;
      }
    </style>
  </defs>
  <g id="Segl"/>
  <g id="Outline">
    <g>
      <path class="cls-1" d="M0,2.7876V1.56396H22.77832v1.22363c-6.59473,.81592-6.73145,1.63184-6.73145,8.77148V31.20898c0,10.6748,3.60352,16.6582,12.85059,16.6582,9.99512,0,13.39551-7.00342,13.59863-17.20215V11.49072c0-7.00293-.13574-7.88721-6.73047-8.70312V1.56396h16.6582v1.22363c-6.5957,.81592-6.73242,1.7002-6.73242,8.70312V30.52881c0,14.75488-6.86719,21.21387-19.03711,21.21387-13.53125,0-19.92188-7.00293-19.92188-19.58203V11.55908c0-7.00342-.13672-7.95557-6.73242-8.77148Z"/>
      <path class="cls-1" d="M90.36914,2.7876V1.56396h16.6582v1.22363c-6.5957,.81592-6.73145,1.7002-6.73145,8.70312V50.85889h-5.71191L65.61914,13.39453v27.5376c0,7.00293,.13672,7.88672,6.73145,8.70312v1.22363h-16.6582v-1.22363c6.5957-.81641,6.73145-1.7002,6.73145-8.70312V9.24707l-1.15625-1.49561c-2.37891-3.12793-3.67188-4.41992-5.5752-5.16797V1.56396h12.64746l28.76074,36.98828V11.49072c0-7.00293-.13574-7.88721-6.73145-8.70312Z"/>
      <path class="cls-1" d="M127.22656,40.93213c0,7.00293,.13574,7.88672,6.73145,8.70312v1.22363h-22.77832v-1.22363c6.5957-.81641,6.73242-1.7002,6.73242-8.70312V11.49072c0-7.00293-.13672-7.88721-6.73242-8.70312V1.56396h22.77832v1.22363c-6.5957,.81592-6.73145,1.7002-6.73145,8.70312v29.44141Z"/>
      <path class="cls-1" d="M144.43164,9.45117c-1.9043-4.96338-2.7207-6.11963-6.93555-6.66357V1.56396h21.00977v1.22363c-4.2832,.54395-5.57617,1.76807-4.35156,5.16748l11.9668,32.70459,8.29492-24.00146c4.41992-12.78271,2.51562-13.32666-2.71973-13.87061V1.56396h15.70605v1.22363c-4.55469,.54395-5.23438,1.42773-8.77051,11.55908l-12.85059,36.51221h-5.50781l-15.8418-41.40771Z"/>
      <path class="cls-1" d="M216.16797,50.85889h-25.22461v-1.22363c6.59473-.81641,6.73047-1.7002,6.73047-8.70312V11.49072c0-7.00293-.13574-7.88721-6.73047-8.70312V1.56396h24.54492c4.69141,0,10.74316,0,16.04688-.2041l1.63086,16.25049h-1.35938c-3.39941-11.49072-8.02344-13.59863-21.21387-13.59863h-3.60352V23.93359h7.95508c3.87598,0,6.32324-1.90381,7.00293-7.61523h1.22461v18.22217h-1.22461c-.67969-5.71143-3.12695-7.61523-7.00293-7.61523h-7.95508v18.62988c0,2.37988,.47559,2.92383,3.46777,2.92383h2.58398c12.375,0,16.72656-2.7876,20.39746-13.80273h1.29199l-2.71973,16.25049c-5.43945-.06787-11.01465-.06787-15.84277-.06787Z"/>
      <path class="cls-1" d="M241.05859,49.63525c6.59473-.81641,6.73047-1.7002,6.73047-8.70312V11.49072c0-7.00293-.13574-7.88721-6.73047-8.70312V1.56396h8.70312c3.33105,0,10.19824-.06836,12.30664-.06836,12.57812,0,22.30078,3.3999,22.30078,12.98682,0,6.59521-4.96289,10.47119-12.30664,12.23877l10.53906,16.31836c3.12793,4.82764,4.14844,6.05176,8.90723,6.5957v1.22363h-15.23047c-1.29199-2.51562-3.39941-6.25537-5.64355-9.92676l-2.92383-4.55566c-2.85547-4.48779-4.35156-6.79932-5.71094-8.63525h-4.89551v13.19092c0,7.00293,.13574,7.88672,7.41113,8.70312v1.22363h-23.45703v-1.22363ZM261.66016,3.94385h-4.55566V25.29346h4.55566c7.81934,0,12.375-2.71973,12.375-10.6748s-4.55566-10.6748-12.375-10.6748Z"/>
      <path class="cls-1" d="M296.81738,48.07129V31.48096h1.36035c1.90332,12.64648,6.93457,17.74609,15.02539,17.74609,5.98438,0,10.94727-2.92383,10.94727-9.04297,0-4.62354-3.67188-7.00342-9.11133-9.58691l-6.05078-2.85596c-7.20703-3.3999-11.76367-7.88721-11.76367-14.48242,0-7.81934,7.41211-13.25879,16.93066-13.25879,4.89551,0,11.28711,1.35986,14.61816,3.3999v13.93848h-1.35938c-1.9043-9.72314-6.5957-14.82275-13.32617-14.82275-5.50781,0-9.38281,2.58398-9.38281,7.34326,0,4.69141,3.19531,6.86719,6.79883,8.56738l7.20703,3.39941c7.54688,3.53564,13.19141,7.27539,13.19141,14.68652,0,8.90723-8.5,15.23047-18.69922,15.23047-6.66309,0-12.44238-1.56348-16.38574-3.67139Z"/>
      <path class="cls-1" d="M354.41113,40.93213c0,7.00293,.13574,7.88672,6.73145,8.70312v1.22363h-22.77734v-1.22363c6.59473-.81641,6.73047-1.7002,6.73047-8.70312V11.49072c0-7.00293-.13574-7.88721-6.73047-8.70312V1.56396h22.77734v1.22363c-6.5957,.81592-6.73145,1.7002-6.73145,8.70312v29.44141Z"/>
      <path class="cls-1" d="M378.82324,49.63525c7.20801-.81641,7.47949-1.9043,7.47949-8.70312V3.80762h-1.69922c-9.51953,0-13.53125,4.82764-16.93066,15.70654h-1.36035l2.04004-18.1543c5.23535,.2041,11.55859,.2041,16.25098,.2041h12.64648c4.69141,0,11.01465,0,16.31836-.2041l2.03906,18.1543h-1.42773c-3.33203-10.87891-7.34277-15.70654-16.8623-15.70654h-1.7002V40.93213c0,6.79883,.27246,7.88672,7.48047,8.70312v1.22363h-24.27441v-1.22363Z"/>
      <path class="cls-1" d="M454.30078,49.63525v1.22363h-24.27344v-1.22363c7.20703-.81641,7.47852-1.9043,7.47852-8.70312v-9.45117l-12.44238-22.37012c-2.65137-4.89551-3.60352-5.7793-6.73145-6.32324V1.56396h21.00977v1.22363c-4.2832,.54395-5.84766,1.7002-4.21484,4.89551l10.4707,19.71826,8.36328-14.82275c4.41895-7.68311,3.26367-9.31494-1.63281-9.79102V1.56396h15.16309v1.22363c-3.67188,.6123-5.30371,1.76807-9.31543,8.49902l-11.35449,19.71826v9.92725c0,6.79883,.27246,7.88672,7.47949,8.70312Z"/>
      <path class="cls-1" d="M28.15039,71.20361c13.32617,0,25.9043,8.97559,25.9043,25.76953s-12.57812,25.76953-25.9043,25.76953c-13.32715,0-25.90625-8.97559-25.90625-25.76953s12.5791-25.76953,25.90625-25.76953Zm0,2.51562c-9.38379,0-15.50293,8.90723-15.50293,23.25391s6.11914,23.25391,15.50293,23.25391c9.38281,0,15.50195-8.90723,15.50195-23.25391s-6.11914-23.25391-15.50195-23.25391Z"/>
      <path class="cls-1" d="M60.58789,120.63525c6.5957-.81641,6.73242-1.7002,6.73242-8.70312v-29.44141c0-7.00293-.13672-7.8877-6.73242-8.70312v-1.22363h25.90625c4.69141,0,10.74219,0,16.0459-.2041l1.63184,16.25h-1.35938c-3.40039-11.49023-8.02344-13.59863-21.21484-13.59863h-4.96289v19.92188h7.95508c3.87598,0,6.32324-1.90332,7.00391-7.61523h1.22363v18.22266h-1.22363c-.68066-5.71191-3.12793-7.61523-7.00391-7.61523h-7.95508v14.07422c0,6.7998,.27148,7.81934,7.47949,8.63574v1.22363h-23.52637v-1.22363Z"/>
      <path class="cls-1" d="M152.86133,71.20361c13.32617,0,25.9043,8.97559,25.9043,25.76953s-12.57812,25.76953-25.9043,25.76953c-13.32715,0-25.90625-8.97559-25.90625-25.76953s12.5791-25.76953,25.90625-25.76953Zm0,2.51562c-9.38379,0-15.50293,8.90723-15.50293,23.25391s6.11914,23.25391,15.50293,23.25391c9.38281,0,15.50195-8.90723,15.50195-23.25391s-6.11914-23.25391-15.50195-23.25391Z"/>
      <path class="cls-1" d="M187.81445,119.0708v-16.58984h1.36035c1.90332,12.64648,6.93457,17.74609,15.02637,17.74609,5.9834,0,10.94727-2.92383,10.94727-9.04297,0-4.62402-3.67188-7.00391-9.11133-9.58691l-6.05176-2.85645c-7.20703-3.39941-11.7627-7.88672-11.7627-14.48242,0-7.81934,7.41113-13.25879,16.93066-13.25879,4.89551,0,11.28613,1.36035,14.61816,3.40039v13.93848h-1.35938c-1.9043-9.72363-6.5957-14.82324-13.32715-14.82324-5.50684,0-9.38281,2.58398-9.38281,7.34375,0,4.69141,3.19531,6.86719,6.7998,8.56738l7.20703,3.39941c7.54688,3.53516,13.19043,7.27539,13.19043,14.68652,0,8.90723-8.49902,15.23047-18.69824,15.23047-6.66309,0-12.44336-1.56348-16.38672-3.67188Z"/>
      <path class="cls-1" d="M229.3623,120.63525c6.59473-.81641,6.73145-1.7002,6.73145-8.70312v-29.44141c0-7.00293-.13672-7.8877-6.73145-8.70312v-1.22363h22.77832v1.22363c-6.5957,.81543-6.73242,1.7002-6.73242,8.70312v34.2002c0,2.24414,.68066,2.78809,2.78809,2.78809h2.1084c12.30664,0,15.57031-2.99219,19.24219-14.61816h1.35938l-2.17578,17.06543c-3.26367-.06738-11.21875-.06738-13.93848-.06738h-25.42969v-1.22363Z"/>
      <path class="cls-1" d="M301.84668,71.20361c13.32715,0,25.90527,8.97559,25.90527,25.76953s-12.57812,25.76953-25.90527,25.76953-25.90527-8.97559-25.90527-25.76953,12.57812-25.76953,25.90527-25.76953Zm0,2.51562c-9.38379,0-15.50293,8.90723-15.50293,23.25391s6.11914,23.25391,15.50293,23.25391c9.38281,0,15.50293-8.90723,15.50293-23.25391s-6.12012-23.25391-15.50293-23.25391Z"/>
    </g>
  </g>
</svg>