<svg xmlns="http://www.w3.org/2000/svg" width="623.95605" height="122.74219" viewBox="0 0 623.95605 122.74219">
  <defs>
    <style>
      .cls-1 {
        fill: #fff;
      }
    </style>
  </defs>
  <g id="Outline">
    <g>
      <path class="cls-1" d="M0,2.7876V1.564H22.77783V2.7876c-6.59521.81592-6.73144,1.63183-6.73144,8.77148V31.209c0,10.67481,3.60351,16.65821,12.85058,16.65821,9.99512,0,13.395-7.00342,13.59864-17.20215V11.49072c0-7.00293-.13575-7.8872-6.731-8.70312V1.564h16.6582V2.7876c-6.59521.81592-6.73144,1.70019-6.73144,8.70312V30.52881c0,14.75488-6.86719,21.21387-19.03809,21.21387-13.53076,0-19.92187-7.00293-19.92187-19.582V11.55908C6.73145,4.55566,6.59521,3.60352,0,2.7876Z"/>
      <path class="cls-1" d="M90.36865,2.7876V1.564h16.65821V2.7876c-6.59522.81592-6.73145,1.70019-6.73145,8.70312V50.85889H94.584L65.61914,13.39453v27.5376c0,7.00293.13574,7.88672,6.731,8.70312v1.22364H55.69189V49.63525c6.59571-.8164,6.73145-1.70019,6.73145-8.70312V9.24707L61.26758,7.75146c-2.37988-3.12792-3.67188-4.41992-5.57569-5.168V1.564h12.647L97.1001,38.55225V11.49072C97.1001,4.48779,96.96387,3.60352,90.36865,2.7876Z"/>
      <path class="cls-1" d="M127.22607,40.93213c0,7.00293.13575,7.88672,6.73145,8.70312v1.22364H111.17969V49.63525c6.59521-.8164,6.73144-1.70019,6.73144-8.70312V11.49072c0-7.00293-.13623-7.8872-6.73144-8.70312V1.564h22.77783V2.7876c-6.5957.81592-6.73145,1.70019-6.73145,8.70312Z"/>
      <path class="cls-1" d="M144.43066,9.45117c-1.9038-4.96338-2.71972-6.11963-6.935-6.66357V1.564h21.00976V2.7876c-4.28369.54394-5.57568,1.76806-4.35156,5.16748l11.96631,32.70459L174.415,16.6582c4.41992-12.78271,2.51562-13.32666-2.71875-13.8706V1.564h15.70605V2.7876c-4.55566.54394-5.23535,1.42773-8.7705,11.55908L165.78027,50.85889H160.273Z"/>
      <path class="cls-1" d="M216.168,50.85889H190.94238V49.63525c6.59571-.8164,6.73145-1.70019,6.73145-8.70312V11.49072c0-7.00293-.13574-7.8872-6.73145-8.70312V1.564H215.4873c4.69141,0,10.74415,0,16.04688-.2041L233.166,17.61035h-1.36036C228.40723,6.11963,223.7832,4.01172,210.59277,4.01172h-3.60351V23.93359h7.95508c3.875,0,6.32226-1.9038,7.00293-7.61523h1.22363V34.54053h-1.22363c-.68067-5.71143-3.12793-7.61524-7.00293-7.61524h-7.95508V45.55518c0,2.37988.47558,2.92382,3.46679,2.92382h2.584c12.375,0,16.72656-2.78759,20.39844-13.80273h1.291l-2.71875,16.25049C226.57129,50.85889,220.99512,50.85889,216.168,50.85889Z"/>
      <path class="cls-1" d="M241.05762,49.63525c6.5957-.8164,6.73144-1.70019,6.73144-8.70312V11.49072c0-7.00293-.13574-7.8872-6.73144-8.70312V1.564h8.70312c3.332,0,10.19922-.06835,12.30664-.06835,12.57813,0,22.30176,3.3999,22.30176,12.98681,0,6.59522-4.96387,10.47119-12.30664,12.23877l10.53906,16.31836c3.12793,4.82764,4.14746,6.05176,8.90723,6.5957v1.22364H276.27832c-1.292-2.51563-3.40039-6.25537-5.64355-9.92676l-2.92383-4.55567c-2.85645-4.48779-4.35156-6.79931-5.71192-8.63525h-4.89453V40.93213c0,7.00293.13477,7.88672,7.41016,8.70312v1.22364h-23.457Zm20.60156-45.6914h-4.55469V25.29346h4.55469c7.82031,0,12.375-2.71973,12.375-10.67481S269.47949,3.94385,261.65918,3.94385Z"/>
      <path class="cls-1" d="M296.81738,48.07129V31.481h1.35938c1.90429,12.64648,6.93554,17.74609,15.02637,17.74609,5.98339,0,10.94628-2.92383,10.94628-9.043,0-4.62353-3.67089-7.00342-9.11035-9.58691l-6.05176-2.856c-7.207-3.3999-11.76269-7.88721-11.76269-14.48242C297.22461,5.43945,304.63574,0,314.15527,0c4.89453,0,11.28711,1.35986,14.61817,3.3999V17.33838h-1.36035c-1.90332-9.72315-6.59473-14.82276-13.32618-14.82276-5.50781,0-9.38281,2.584-9.38281,7.34327,0,4.6914,3.19531,6.86718,6.79883,8.56738l7.207,3.39941c7.54785,3.53565,13.19141,7.27539,13.19141,14.68653,0,8.90722-8.5,15.23047-18.69824,15.23047A35.614,35.614,0,0,1,296.81738,48.07129Z"/>
      <path class="cls-1" d="M354.41113,40.93213c0,7.00293.13477,7.88672,6.73047,8.70312v1.22364H338.36426V49.63525c6.5957-.8164,6.73144-1.70019,6.73144-8.70312V11.49072c0-7.00293-.13574-7.8872-6.73144-8.70312V1.564H361.1416V2.7876c-6.5957.81592-6.73047,1.70019-6.73047,8.70312Z"/>
      <path class="cls-1" d="M378.82324,49.63525c7.207-.8164,7.47852-1.90429,7.47852-8.70312V3.80762h-1.69922c-9.51953,0-13.53125,4.82763-16.92969,15.70654h-1.36133l2.041-18.1543c5.23437.2041,11.55859.2041,16.25.2041H397.249c4.69141,0,11.01563,0,16.31836-.2041l2.04,18.1543h-1.42871c-3.33105-10.87891-7.3418-15.70654-16.86133-15.70654h-1.70019V40.93213c0,6.79883.27246,7.88672,7.47949,8.70312v1.22364H378.82324Z"/>
      <path class="cls-1" d="M446.00488,50.85889H420.7793V49.63525c6.59472-.8164,6.73144-1.70019,6.73144-8.70312V11.49072c0-7.00293-.13672-7.8872-6.73144-8.70312V1.564h24.5459c4.6914,0,10.74218,0,16.04589-.2041l1.63184,16.25049h-1.35938c-3.40039-11.49072-8.02343-13.59863-21.21484-13.59863H436.8252V23.93359h7.95507c3.877,0,6.32422-1.9038,7.00391-7.61523h1.22461V34.54053h-1.22461c-.67969-5.71143-3.12695-7.61524-7.00391-7.61524H436.8252V45.55518c0,2.37988.47656,2.92382,3.46875,2.92382h2.583c12.375,0,16.72657-2.78759,20.39746-13.80273h1.293l-2.7207,16.25049C456.40723,50.85889,450.833,50.85889,446.00488,50.85889Z"/>
      <path class="cls-1" d="M482.99707,49.63525c7.207-.8164,7.47949-1.90429,7.47949-8.70312V3.80762h-1.70019c-9.51856,0-13.53028,4.82763-16.92969,15.70654H470.4873l2.03907-18.1543c5.23535.2041,11.55859.2041,16.25.2041h12.64648c4.69141,0,11.01563,0,16.31836-.2041l2.041,18.1543h-1.42774c-3.332-10.87891-7.34375-15.70654-16.86328-15.70654H499.792V40.93213c0,6.79883.27149,7.88672,7.47852,8.70312v1.22364H482.99707Z"/>
      <path class="cls-1" d="M550.17969,50.85889H524.9541V49.63525c6.5957-.8164,6.73145-1.70019,6.73145-8.70312V11.49072c0-7.00293-.13575-7.8872-6.73145-8.70312V1.564H549.499c4.69141,0,10.74414,0,16.04688-.2041l1.63183,16.25049h-1.36035C562.419,6.11963,557.79492,4.01172,544.60449,4.01172H541.001V23.93359h7.95507c3.875,0,6.32227-1.9038,7.00293-7.61523h1.22364V34.54053H555.959c-.68066-5.71143-3.12793-7.61524-7.00293-7.61524H541.001V45.55518c0,2.37988.47558,2.92382,3.46679,2.92382h2.584c12.375,0,16.72656-2.78759,20.39844-13.80273h1.291l-2.71875,16.25049C560.583,50.85889,555.00684,50.85889,550.17969,50.85889Z"/>
      <path class="cls-1" d="M587.17285,49.63525c7.207-.8164,7.47852-1.90429,7.47852-8.70312V3.80762h-1.69922c-9.51953,0-13.53125,4.82763-16.93164,15.70654h-1.35938l2.04-18.1543c5.23535.2041,11.55957.2041,16.251.2041h12.64648c4.69141,0,11.01465,0,16.31836-.2041l2.03906,18.1543h-1.42773c-3.332-10.87891-7.34375-15.70654-16.86133-15.70654h-1.70117V40.93213c0,6.79883.27246,7.88672,7.48047,8.70312v1.22364H587.17285Z"/>
      <path class="cls-1" d="M17.33838,111.93164c0,7.00293.13574,7.88672,6.73144,8.70313v1.22363H1.292v-1.22363c6.59522-.81641,6.73145-1.7002,6.73145-8.70313V82.49023c0-7.00293-.13623-7.88671-6.73145-8.70312V72.56348H24.06982v1.22363c-6.5957.81641-6.73144,1.70019-6.73144,8.70312Z"/>
      <path class="cls-1" d="M74.18506,71.2041c13.32666,0,25.90527,8.97461,25.90527,25.76856,0,16.79492-12.57861,25.76953-25.90527,25.76953s-25.90527-8.97461-25.90527-25.76953C48.27979,80.17871,60.8584,71.2041,74.18506,71.2041Zm0,2.51563c-9.3833,0-15.50244,8.90722-15.50244,23.25293,0,14.34668,6.11914,23.2539,15.50244,23.2539,9.38281,0,15.50244-8.90722,15.50244-23.2539C89.6875,82.62695,83.56787,73.71973,74.18506,73.71973Z"/>
      <path class="cls-1" d="M109.13916,119.07129V102.48047H110.499c1.90381,12.64648,6.93506,17.74609,15.02637,17.74609,5.9834,0,10.94678-2.92383,10.94678-9.043,0-4.623-3.67139-7.00293-9.11084-9.58691l-6.05127-2.85547c-7.20752-3.40039-11.76318-7.88769-11.76318-14.48242C109.54688,76.43945,116.9585,71,126.47705,71c4.89551,0,11.28711,1.35938,14.61865,3.39941V88.33789h-1.35986c-1.90381-9.72266-6.59522-14.82227-13.32666-14.82227-5.50732,0-9.38281,2.584-9.38281,7.34278,0,4.6914,3.1958,6.86719,6.79931,8.56738l7.207,3.39942c7.54737,3.53613,13.19092,7.27539,13.19092,14.68652,0,8.90723-8.49951,15.23047-18.69824,15.23047A35.62119,35.62119,0,0,1,109.13916,119.07129Z"/>
      <path class="cls-1" d="M150.687,120.63477c6.59522-.81641,6.73145-1.7002,6.73145-8.70313V82.49023c0-7.00293-.13623-7.88671-6.73145-8.70312V72.56348h22.77783v1.22363c-6.59472.81641-6.73144,1.70019-6.73144,8.70312v34.20118c0,2.24316.67969,2.78711,2.78711,2.78711h2.1084c12.30664,0,15.57031-2.99122,19.24218-14.61817h1.36036l-2.17579,17.06641c-3.26367-.06836-11.21875-.06836-13.93945-.06836H150.687Z"/>
      <path class="cls-1" d="M223.1709,71.2041c13.32617,0,25.90527,8.97461,25.90527,25.76856,0,16.79492-12.5791,25.76953-25.90527,25.76953s-25.90625-8.97461-25.90625-25.76953C197.26465,80.17871,209.84473,71.2041,223.1709,71.2041Zm0,2.51563c-9.38281,0-15.50195,8.90722-15.50195,23.25293,0,14.34668,6.11914,23.2539,15.50195,23.2539s15.502-8.90722,15.502-23.2539C238.67285,82.62695,232.55371,73.71973,223.1709,73.71973Z"/>
    </g>
  </g>
</svg>
